<svg width="480" height="510" viewBox="0 0 480 510" fill="none" xmlns="http://www.w3.org/2000/svg">
    <path
        d="M253.4 2.9C249.2 1 244.7 0 240 0C235.3 0 230.8 1 226.6 2.9L38.3 82.8C16.3 92.1 -0.100033 113.8 -3.3432e-05 140C0.499967 239.2 41.3 420.7 213.6 503.2C230.3 511.2 249.7 511.2 266.4 503.2C438.7 420.7 479.5 239.2 480 140C480.1 113.8 463.7 92.1 441.7 82.8L253.4 2.9ZM240 112C248.8 112 256 119.2 256 128C256 161 295.9 177.5 319.2 154.2C325.4 148 335.6 148 341.8 154.2C348 160.4 348 170.6 341.8 176.8C318.5 200.1 335 240 368 240C376.8 240 384 247.2 384 256C384 264.8 376.8 272 368 272C335 272 318.5 311.9 341.8 335.2C348 341.4 348 351.6 341.8 357.8C335.6 364 325.4 364 319.2 357.8C295.9 334.5 256 351 256 384C256 392.8 248.8 400 240 400C231.2 400 224 392.8 224 384C224 351 184.1 334.5 160.8 357.8C154.6 364 144.4 364 138.2 357.8C132 351.6 132 341.4 138.2 335.2C161.5 311.9 145 272 112 272C103.2 272 96 264.8 96 256C96 247.2 103.2 240 112 240C145 240 161.5 200.1 138.2 176.8C132 170.6 132 160.4 138.2 154.2C144.4 148 154.6 148 160.8 154.2C184.1 177.5 224 161 224 128C224 119.2 231.2 112 240 112ZM216 256C222.365 256 228.47 253.471 232.971 248.971C237.471 244.47 240 238.365 240 232C240 225.635 237.471 219.53 232.971 215.029C228.47 210.529 222.365 208 216 208C209.635 208 203.53 210.529 199.029 215.029C194.529 219.53 192 225.635 192 232C192 238.365 194.529 244.47 199.029 248.971C203.53 253.471 209.635 256 216 256ZM288 288C288 283.757 286.314 279.687 283.314 276.686C280.313 273.686 276.243 272 272 272C267.757 272 263.687 273.686 260.686 276.686C257.686 279.687 256 283.757 256 288C256 292.243 257.686 296.313 260.686 299.314C263.687 302.314 267.757 304 272 304C276.243 304 280.313 302.314 283.314 299.314C286.314 296.313 288 292.243 288 288Z"
        fill="url(#paint0_linear_877_30859)" />
    <style type="text/css">
        fill: linear-gradient(180deg, #0A4195 0%, #5297FE 100%);
    </style>
    <defs>
        <linearGradient id="paint0_linear_877_30859" x1="240" y1="0" x2="240" y2="509.2"
            gradientUnits="userSpaceOnUse">
            <stop stop-color="#0A4195" />
            <stop offset="1" stop-color="#5297FE" />
        </linearGradient>
    </defs>
</svg>