<svg width="512" height="513" viewBox="0 0 512 513" fill="none" xmlns="http://www.w3.org/2000/svg">
    <path
        d="M256 0C309 0 352 43 352 96V99.6C352 115.3 339.3 128 323.6 128H188.4C172.7 128 160 115.3 160 99.6V96C160 43 203 0 256 0ZM41.4 105.4C53.9 92.9 74.2 92.9 86.7 105.4L150.7 169.4C151.4 170.1 152 170.8 152.6 171.5C166.8 164.2 183 160.1 200.1 160.1H312C329.1 160.1 345.2 164.2 359.5 171.5C360.1 170.8 360.7 170.1 361.4 169.4L425.4 105.4C437.9 92.9 458.2 92.9 470.7 105.4C483.2 117.9 483.2 138.2 470.7 150.7L406.7 214.7C406 215.4 405.3 216 404.6 216.6C410.8 228.6 414.7 241.9 415.7 256.1H480C497.7 256.1 512 270.4 512 288.1C512 305.8 497.7 320.1 480 320.1H416C416 344.7 410.5 367.9 400.6 388.7C402.8 390 404.8 391.6 406.6 393.5L470.6 457.5C483.1 470 483.1 490.3 470.6 502.8C458.1 515.3 437.8 515.3 425.3 502.8L362.2 439.7C337.7 461.5 306.4 475.9 271.9 479.3V240C271.9 231.2 264.7 224 255.9 224C247.1 224 239.9 231.2 239.9 240V479.2C205.4 475.8 174.1 461.4 149.6 439.6L86.6 502.6C74.1 515.1 53.8 515.1 41.3 502.6C28.8 490.1 28.8 469.8 41.3 457.3L105.3 393.3C107.2 391.4 109.2 389.9 111.3 388.5C101.5 367.8 96 344.6 96 320H32C14.3 320 0 305.7 0 288C0 270.3 14.3 256 32 256H96.3C97.4 241.9 101.3 228.5 107.4 216.5C106.7 215.9 106 215.3 105.3 214.6L41.3 150.6C28.8 138.1 28.8 117.8 41.3 105.3L41.4 105.4Z"
        fill="url(#paint0_linear_877_30861)" />
    <style type="text/css">
        fill: linear-gradient(180deg, #0A4195 0%, #5297FE 100%);
    </style>
    <defs>
        <linearGradient id="paint0_linear_877_30861" x1="256" y1="0" x2="256" y2="512.175"
            gradientUnits="userSpaceOnUse">
            <stop stop-color="#0A4195" />
            <stop offset="1" stop-color="#5297FE" />
        </linearGradient>
    </defs>
</svg>