<svg width="448" height="508" viewBox="0 0 448 508" fill="none" xmlns="http://www.w3.org/2000/svg">
    <path
        d="M201 5.85C215.3 -1.95 232.6 -1.95 247 5.85L422.3 101.55C427.4 104.35 430.6 109.75 430.6 115.55C430.6 121.35 427.4 126.75 422.3 129.55L231.7 233.55C226.9 236.15 221.2 236.15 216.4 233.55L25.7 129.55C20.6 126.75 17.4 121.35 17.4 115.55C17.4 109.75 20.6 104.35 25.7 101.55L201 5.85ZM23.7 165.55L199.7 261.55C204.8 264.35 208 269.75 208 275.55V491.55C208 497.15 205 502.45 200.2 505.35C195.4 508.25 189.3 508.35 184.4 505.65L25 418.65C9.6 410.25 0 394.15 0 376.55V179.55C0 173.95 3 168.65 7.8 165.75C12.6 162.85 18.7 162.75 23.6 165.45L23.7 165.55ZM424.4 165.55C429.4 162.85 435.4 162.95 440.2 165.85C445 168.75 448 173.95 448 179.65V376.55C448 394.15 438.4 410.25 423 418.65L263.7 505.55C258.7 508.25 252.7 508.15 247.9 505.25C243.1 502.35 240.1 497.15 240.1 491.45V275.55C240.1 269.65 243.3 264.35 248.4 261.55L424.4 165.55Z"
        fill="url(#paint0_linear_877_30851)" />
    <style type="text/css">
        fill: linear-gradient(180deg, #0A4195 0%, #5297FE 100%);
    </style>
    <defs>
        <linearGradient id="paint0_linear_877_30851" x1="224" y1="0" x2="224" y2="507.603"
            gradientUnits="userSpaceOnUse">
            <stop stop-color="#0A4195" />
            <stop offset="1" stop-color="#5297FE" />
        </linearGradient>
    </defs>
</svg>