<svg width="360" height="65" viewBox="0 0 360 65" fill="none" xmlns="http://www.w3.org/2000/svg">
<path fill-rule="evenodd" clip-rule="evenodd" d="M78.3809 52.2115V16.0645H85.8684V32.2274L101.67 16.0645H110.81L93.2527 33.2603L111.636 52.2115H101.618L85.8684 35.4291V52.2115H78.3809ZM122.185 52.728C120.119 52.728 118.277 52.2803 116.659 51.3853C115.076 50.4557 113.819 49.1819 112.889 47.564C111.994 45.9462 111.547 44.087 111.547 41.987V25.3078H118.621V40.9543C118.621 42.6756 119.121 44.0526 120.119 45.0854C121.152 46.1182 122.529 46.6345 124.25 46.6345C125.421 46.6345 126.47 46.4109 127.4 45.9631C128.364 45.4813 129.156 44.81 129.775 43.9494V25.3078H136.85V52.2116H129.775V50.0428C127.71 51.8329 125.179 52.728 122.185 52.728ZM142.364 52.2115V16.0645L149.438 14.877V27.4766C151.572 25.7897 154.085 24.9463 156.977 24.9463C159.524 24.9463 161.831 25.5661 163.897 26.8052C165.962 28.0447 167.598 29.7142 168.803 31.8144C170.042 33.8797 170.661 36.2036 170.661 38.7854C170.661 41.3673 170.042 43.7083 168.803 45.8083C167.563 47.8739 165.894 49.5261 163.794 50.7656C161.693 51.9704 159.353 52.5729 156.771 52.5729C155.428 52.5729 154.12 52.3834 152.846 52.0048C151.572 51.6264 150.402 51.0755 149.335 50.3525V52.2114L142.364 52.2115ZM155.841 46.5828C157.322 46.5828 158.647 46.2386 159.818 45.55C161.022 44.8615 161.969 43.9322 162.657 42.7615C163.346 41.5911 163.69 40.2657 163.69 38.7854C163.69 37.3052 163.346 35.9797 162.657 34.8093C161.969 33.6046 161.022 32.675 159.818 32.0208C158.647 31.3323 157.322 30.988 155.841 30.988C154.533 30.988 153.328 31.2116 152.227 31.6594C151.159 32.0724 150.229 32.7094 149.438 33.5699V44.0526C150.196 44.8444 151.125 45.4641 152.227 45.9116C153.363 46.3593 154.567 46.5828 155.841 46.5828ZM188.108 52.728C185.422 52.728 182.979 52.1083 180.775 50.8688C178.606 49.6296 176.885 47.9599 175.611 45.8599C174.338 43.7599 173.7 41.402 173.7 38.7854C173.7 36.1689 174.303 33.8109 175.508 31.711C176.747 29.611 178.418 27.9415 180.517 26.7021C182.617 25.4629 184.958 24.8432 187.54 24.8432C190.121 24.8432 192.412 25.4798 194.407 26.7537C196.404 28.0275 197.97 29.7488 199.107 31.9176C200.277 34.0864 200.862 36.5479 200.862 39.302V41.1609H180.93C181.24 42.2281 181.739 43.1918 182.427 44.0526C183.15 44.9134 184.028 45.5847 185.061 46.0666C186.128 46.5484 187.265 46.7895 188.469 46.7895C189.675 46.7895 190.776 46.6 191.774 46.2214C192.807 45.8427 193.684 45.309 194.407 44.6207L199.055 48.8551C197.403 50.1975 195.698 51.1787 193.943 51.7984C192.222 52.4181 190.276 52.728 188.108 52.728ZM180.827 36.1001H193.891C193.651 35.0329 193.203 34.1036 192.548 33.3118C191.929 32.4854 191.172 31.8488 190.276 31.401C189.416 30.9192 188.452 30.6781 187.384 30.6781C186.283 30.6781 185.286 30.902 184.39 31.3495C183.495 31.7972 182.737 32.4338 182.118 33.2602C181.533 34.052 181.103 34.9988 180.827 36.1001Z" fill="white"/>
<path fill-rule="evenodd" clip-rule="evenodd" d="M202.202 52.2114L217.074 16.0645H225.698L240.415 52.2114H232.307L228.641 42.7099H213.717L210 52.2114H202.202ZM216.041 36.7198H226.369L221.205 23.3972L216.041 36.7198ZM243.018 52.2114V25.3077H250.093V28.3029C250.953 27.1322 251.985 26.2373 253.191 25.6175C254.396 24.9978 255.755 24.6879 257.271 24.6879C258.579 24.7226 259.559 24.929 260.214 25.3077V31.5044C259.698 31.2634 259.13 31.0911 258.51 30.9879C257.89 30.8503 257.253 30.7815 256.6 30.7815C255.222 30.7815 253.966 31.1258 252.83 31.8143C251.694 32.5026 250.781 33.4837 250.093 34.7576V52.2113L243.018 52.2114ZM264.097 52.2114V25.3077H271.172V27.3733C273.099 25.6519 275.44 24.7914 278.195 24.7914C279.95 24.7914 281.516 25.1529 282.894 25.8758C284.27 26.5641 285.406 27.5453 286.302 28.8191C287.403 27.5109 288.694 26.5125 290.175 25.8242C291.689 25.1357 293.358 24.7914 295.184 24.7914C297.214 24.7914 298.987 25.2561 300.503 26.1854C302.052 27.0806 303.256 28.3373 304.117 29.9551C305.012 31.5388 305.46 33.3977 305.46 35.5321V52.2113H298.437V36.5649C298.437 34.8092 297.972 33.4321 297.043 32.4337C296.113 31.4009 294.874 30.8847 293.325 30.8847C292.257 30.8847 291.276 31.1083 290.381 31.556C289.52 32.0035 288.781 32.6748 288.161 33.5697C288.194 33.8796 288.229 34.1894 288.264 34.4993C288.298 34.8092 288.316 35.1534 288.316 35.5321V52.2113H281.241V36.5648C281.241 34.8091 280.777 33.4321 279.847 32.4337C278.951 31.4009 277.73 30.8846 276.181 30.8846C275.113 30.8846 274.149 31.091 273.289 31.5044C272.463 31.9174 271.757 32.5369 271.172 33.3633V52.2113L264.097 52.2114ZM323.961 52.7279C321.276 52.7279 318.848 52.1082 316.68 50.8687C314.511 49.6295 312.789 47.9598 311.516 45.8598C310.242 43.7598 309.605 41.4019 309.605 38.7854C309.605 36.1688 310.225 33.8109 311.464 31.7109C312.737 29.5765 314.459 27.8896 316.628 26.6504C318.83 25.4109 321.276 24.7915 323.961 24.7915C326.646 24.7915 329.073 25.4109 331.242 26.6504C333.444 27.8896 335.166 29.5765 336.405 31.7109C337.678 33.8109 338.316 36.1688 338.316 38.7854C338.316 41.4019 337.678 43.7598 336.405 45.8598C335.166 47.9598 333.462 49.6295 331.293 50.8687C329.125 52.1082 326.679 52.7279 323.961 52.7279ZM323.961 46.5828C325.372 46.5828 326.628 46.2385 327.73 45.55C328.866 44.8614 329.761 43.9321 330.416 42.7614C331.104 41.5567 331.448 40.2312 331.448 38.7854C331.448 37.3051 331.104 35.9796 330.416 34.8093C329.761 33.6386 328.866 32.7093 327.73 32.0207C326.628 31.2978 325.372 30.9364 323.961 30.9364C322.583 30.9364 321.327 31.2978 320.191 32.0207C319.055 32.7093 318.159 33.6386 317.506 34.8093C316.851 35.9796 316.525 37.3051 316.525 38.7854C316.525 40.2312 316.851 41.5567 317.506 42.7614C318.159 43.9321 319.055 44.8614 320.191 45.55C321.327 46.2385 322.583 46.5828 323.961 46.5828ZM342.664 52.2114V25.3077H349.739V28.3029C350.6 27.1322 351.632 26.2373 352.837 25.6175C354.041 24.9978 355.402 24.6879 356.916 24.6879C358.224 24.7226 359.205 24.929 359.86 25.3077V31.5044C359.343 31.2634 358.775 31.0911 358.156 30.9879C357.536 30.8503 356.9 30.7815 356.245 30.7815C354.868 30.7815 353.611 31.1258 352.475 31.8143C351.339 32.5026 350.427 33.4837 349.739 34.7576V52.2113L342.664 52.2114Z" fill="white"/>
<path fill-rule="evenodd" clip-rule="evenodd" d="M32.7977 0.0242298C34.8638 -0.2873 40.5848 2.45739 46.1982 5.25505C51.029 7.60055 57.182 10.0112 58.8978 12.6142C60.4296 14.0353 61.8508 20.2196 63.1635 26.3525C64.3417 31.5917 66.2932 37.9052 65.3278 40.8695C65.1716 42.9534 61.2227 47.9204 57.2464 52.7704C53.8847 56.9582 50.1652 62.4204 47.2458 63.5139C45.5192 64.6912 39.1738 64.7004 32.9027 64.6155C27.5329 64.5983 20.943 65.096 18.268 63.4953C16.2709 62.8795 12.3073 57.9241 8.46377 52.9683C5.12903 48.7591 0.631406 43.9175 0.215017 40.8277C-0.548412 38.8825 0.854168 32.6941 2.33276 26.5991C3.54448 21.3677 4.52539 14.8325 6.68142 12.5806C7.72614 10.7708 13.4391 8.00915 19.1263 5.36489C23.9718 3.05047 29.6927 -0.257061 32.7977 0.0242298Z" fill="#5096FF"/>
<path fill-rule="evenodd" clip-rule="evenodd" d="M32.7763 5.64258L43.504 10.8088L54.2314 15.975L56.8809 27.5829L59.5304 39.191L52.1067 48.5L44.6829 57.8091H32.7763H20.8696L13.4459 48.5L6.02246 39.191L8.67168 27.5829L11.3212 15.975L22.0486 10.8088L32.7763 5.64258Z" fill="#0A2878"/>
<path fill-rule="evenodd" clip-rule="evenodd" d="M21.2109 32.6893C21.022 23.7828 24.2998 20.0761 29.39 19.0882L28.4402 11.3555H32.7761H37.112L36.1621 19.0882C41.2523 20.0761 44.5302 23.7828 44.3415 32.6893C42.568 36.494 41.5577 40.3577 42.7278 44.4157C38.7401 46.6755 36.4662 49.9517 35.1757 53.8182C34.6735 53.6531 34.1714 53.4884 33.6693 53.3233C35.9566 46.1573 40.0203 33.8958 39.8447 32.797H32.7761H25.7077C25.5321 33.8958 29.5959 46.1573 31.8828 53.3233C31.3807 53.4884 30.8786 53.6531 30.3768 53.8182C29.086 49.9517 26.8121 46.6755 22.8246 44.4157C23.9944 40.3578 22.9844 36.494 21.2109 32.6893ZM32.7761 12.8626L30.172 12.894L31.6997 25.5025L32.7755 26.6643V28.9774L30.2691 26.2446L29.5847 20.6723C25.5312 21.1514 23.0321 24.6451 22.7652 32.4683C24.6452 36.481 25.2835 40.2235 24.524 43.6626C25.8811 44.5636 27.1263 45.6877 28.3112 46.933C27.1133 43.1033 25.9157 39.2734 24.7179 35.4436C23.8274 32.652 24.0832 31.2264 24.0832 31.2264H32.776H41.4689C41.4689 31.2264 41.725 32.652 40.8342 35.4436C39.6366 39.2735 38.4388 43.1034 37.2412 46.933C38.4257 45.6877 39.6713 44.5636 41.0281 43.6626C40.2689 40.2236 40.9069 36.481 42.7869 32.4683C42.52 24.6451 40.0211 21.1514 35.9676 20.6723L35.283 26.2446L32.7755 28.9774V26.6643L33.8524 25.5025L35.3801 12.894L32.7761 12.8626Z" fill="white"/>
</svg>
