<?xml version="1.0" encoding="UTF-8"?>
<!DOCTYPE svg PUBLIC "-//W3C//DTD SVG 1.1//EN" "http://www.w3.org/Graphics/SVG/1.1/DTD/svg11.dtd">
<!-- Creator: CorelDRAW -->
<svg xmlns="http://www.w3.org/2000/svg" xml:space="preserve" width="5.36459in" height="1.15104in" style="shape-rendering:geometricPrecision; text-rendering:geometricPrecision; image-rendering:optimizeQuality; fill-rule:evenodd; clip-rule:evenodd"
viewBox="0 0 3.80578 0.816581"
 xmlns:xlink="http://www.w3.org/1999/xlink">
 <defs>
  <style type="text/css">
   <![CDATA[
    .fil5 {fill:none}
    .fil3 {fill:#0A2878}
    .fil0 {fill:#0B4296}
    .fil2 {fill:#5096FF}
    .fil1 {fill:#6981A5}
    .fil4 {fill:white}
   ]]>
  </style>
 </defs>
 <g id="Layer_x0020_1">
  <metadata id="CorelCorpID_0Corel-Layer"/>
  <g id="_318077008">
   <path id="_318077056" class="fil0" d="M0.890247 0.603122l0 -0.363936 0.0753864 0 0 0.162732 0.159093 -0.162732 0.0920244 0 -0.17677 0.173131 0.185088 0.190805 -0.100861 0 -0.158574 -0.168969 0 0.168969 -0.0753864 0zm0.441026 0.0052006c-0.0207968,0 -0.0393397,-0.00450793 -0.0556314,-0.0135182 -0.0159426,-0.00935941 -0.0285949,-0.0221849 -0.0379543,-0.0384738 -0.00901028,-0.0162889 -0.0135182,-0.0350077 -0.0135182,-0.0561509l0 -0.16793 0.0712276 0 0 0.157532c0,0.0173307 0.00502743,0.0311952 0.0150795,0.0415936 0.0103984,0.0103984 0.024263,0.0155962 0.0415908,0.0155962 0.0117865,0 0.0223581,-0.00225117 0.0317147,-0.00675911 0.00971133,-0.00485147 0.0176798,-0.0116106 0.0239166,-0.0202745l0 -0.187688 0.0712276 0 0 0.270873 -0.0712276 0 0 -0.0218358c-0.0207968,0.0180234 -0.0462719,0.0270364 -0.0764254,0.0270364zm0.203167 -0.0052006l0 -0.363936 0.0712276 -0.0119569 0 0.126856c0.0214867,-0.0169843 0.0467914,-0.0254751 0.0759059,-0.0254751 0.0256455,0 0.0488722,0.0062396 0.0696691,0.018716 0.0207968,0.0124792 0.0372645,0.0292876 0.0493917,0.0504335 0.0124764,0.020794 0.018716,0.0441911 0.018716,0.0701858 0,0.0259946 -0.0062396,0.0495649 -0.018716,0.0707081 -0.0124792,0.0207968 -0.0292848,0.037432 -0.0504307,0.0499112 -0.0211487,0.0121301 -0.0447134,0.0181965 -0.0707081,0.0181965 -0.0135182,0 -0.0266845,-0.00190763 -0.0395128,-0.0057201 -0.0128283,-0.00380968 -0.0246065,-0.00935661 -0.035354,-0.0166352l0 0.018716 -0.0701886 0zm0.135696 -0.0566704c0.0149091,0 0.0282458,-0.00346614 0.0400351,-0.0103984 0.0121245,-0.00693227 0.0216654,-0.0162889 0.0285921,-0.0280754 0.00692948,-0.0117837 0.0103984,-0.0251288 0.0103984,-0.0400323 0,-0.0149035 -0.00346893,-0.0282486 -0.0103984,-0.0400323 -0.00692669,-0.0121301 -0.0164676,-0.0214895 -0.0285921,-0.0280754 -0.0117893,-0.00693227 -0.025126,-0.0103984 -0.0400351,-0.0103984 -0.0131663,0 -0.0253048,0.00225117 -0.036393,0.00675911 -0.0107475,0.00415881 -0.0201069,0.0105716 -0.0280754,0.0192355l0 0.105543c0.00763053,0.00797128 0.0169871,0.0142109 0.0280754,0.018716 0.0114374,0.00450793 0.0235647,0.00675911 0.036393,0.00675911zm0.324867 0.061871c-0.0270364,0 -0.0516401,-0.0062396 -0.0738279,-0.0187188 -0.0218358,-0.0124764 -0.0391637,-0.0292876 -0.051992,-0.0504307 -0.0128144,-0.0211432 -0.0192355,-0.0448838 -0.0192355,-0.0712276 0,-0.0263438 0.00606923,-0.0500844 0.0181965,-0.0712276 0.0124764,-0.0211432 0.029296,-0.0379515 0.0504307,-0.0504307 0.0211459,-0.0124764 0.0447134,-0.018716 0.0707081,-0.018716 0.0259946,0 0.0490538,0.00640998 0.0691468,0.0192355 0.0201069,0.0128255 0.0358735,0.0301562 0.0473137,0.051992 0.0117865,0.0218358 0.0176742,0.0466183 0.0176742,0.0743474l0 0.018716 -0.200684 0c0.0031198,0.0107447 0.00815003,0.0204477 0.0150767,0.0291144 0.0072814,0.00866674 0.0161185,0.0154258 0.0265169,0.0202773 0.0107475,0.00485147 0.0221877,0.00727861 0.0343122,0.00727861 0.0121413,0 0.0232295,-0.00190763 0.033276,-0.0057201 0.0103984,-0.00381247 0.0192355,-0.00918624 0.0265141,-0.0161157l0.0467914 0.0426326c-0.0166352,0.0135154 -0.0337927,0.0233943 -0.0514698,0.0296339 -0.0173251,0.0062396 -0.0369125,0.00935941 -0.0587484,0.00935941zm-0.0733084 -0.167414l0.131537 0c-0.00241875,-0.0107447 -0.00692948,-0.0201014 -0.0135182,-0.0280726 -0.0062396,-0.0083204 -0.0138562,-0.0147304 -0.0228748,-0.0192383 -0.00865836,-0.00485147 -0.0183669,-0.00727861 -0.0291172,-0.00727861 -0.0110855,0 -0.021132,0.00225397 -0.0301534,0.00675911 -0.00900749,0.00450793 -0.016638,0.0109179 -0.0228748,0.0192383 -0.00589048,0.00797128 -0.0102169,0.0175038 -0.0129987,0.0285921z"/>
   <path id="_318076600" class="fil1" d="M2.13691 0.603122l0.149734 -0.363936 0.0868238 0 0.148175 0.363936 -0.081626 0 -0.0369125 -0.0956637 -0.150256 0 -0.037432 0.0956637 -0.0785062 0zm0.139335 -0.155973l0.103981 0 -0.0519893 -0.134135 -0.051992 0.134135zm0.271613 0.155973l0 -0.270873 0.0712276 0 0 0.0301562c0.00865836,-0.0117865 0.019054,-0.0207968 0.0311952,-0.0270364 0.0121273,-0.0062396 0.0258131,-0.00935941 0.0410741,-0.00935941 0.0131663,0.000349127 0.0230424,0.00242713 0.0296339,0.0062396l0 0.0623905c-0.0052006,-0.00242713 -0.0109179,-0.0041616 -0.0171575,-0.0052006 -0.0062396,-0.00138534 -0.0126608,-0.00207801 -0.0192355,-0.00207801 -0.0138701,0 -0.0265169,0.00346614 -0.0379543,0.0103984 -0.0114374,0.00692948 -0.0206264,0.0168084 -0.0275559,0.0296339l0 0.175728 -0.0712276 0zm0.212228 0l0 -0.270873 0.0712276 0 0 0.0207968c0.0194059,-0.0173307 0.0429706,-0.0259946 0.0707081,-0.0259946 0.017677,0 0.0334436,0.0036393 0.0473109,0.0109179 0.0138562,0.00692948 0.0252936,0.0168084 0.034315,0.0296339 0.0110855,-0.0131719 0.0240842,-0.023224 0.0389933,-0.0301534 0.0152443,-0.00693227 0.0320527,-0.0103984 0.0504307,-0.0103984 0.0204449,0 0.0382895,0.00467831 0.0535506,0.0140349 0.0155962,0.00901307 0.0277235,0.0216654 0.036393,0.0379543 0.00900749,0.0159453 0.0135182,0.0346614 0.0135182,0.0561509l0 0.16793 -0.0707081 0 0 -0.157532c0,-0.017677 -0.00467831,-0.0315416 -0.0140377,-0.0415936 -0.00935941,-0.0103984 -0.0218358,-0.0155962 -0.037432,-0.0155962 -0.0107503,0 -0.0206292,0.00225117 -0.0296367,0.00675911 -0.00866953,0.00450514 -0.0161157,0.0112642 -0.0223553,0.0202745 0.000337955,0.0031198 0.000689876,0.0062396 0.001039,0.00935941 0.000337955,0.0031198 0.000522295,0.00658594 0.000522295,0.0103984l0 0.16793 -0.0712304 0 0 -0.157532c0,-0.017677 -0.00467831,-0.0315416 -0.0140349,-0.0415936 -0.00902145,-0.0103984 -0.0213191,-0.0155962 -0.0369153,-0.0155962 -0.0107475,0 -0.0204589,0.00207801 -0.0291144,0.0062396 -0.00831761,0.00415881 -0.0154286,0.0103956 -0.0213163,0.018716l0 0.189766 -0.0712276 0zm0.602717 0.0052006c-0.0270336,0 -0.0514698,-0.0062396 -0.0733056,-0.0187188 -0.0218358,-0.0124764 -0.0391749,-0.0292876 -0.051992,-0.0504307 -0.0128283,-0.0211432 -0.0192355,-0.0448838 -0.0192355,-0.0712276 0,-0.0263438 0.00623681,-0.0500844 0.018716,-0.0712276 0.0128144,-0.0214895 0.0301562,-0.0384738 0.051992,-0.0509503 0.0221738,-0.0124792 0.0467914,-0.018716 0.0738251,-0.018716 0.0270364,0 0.0514725,0.00623681 0.0733084,0.018716 0.0221738,0.0124764 0.0395128,0.0294608 0.0519893,0.0509503 0.0128172,0.0211432 0.0192383,0.0448838 0.0192383,0.0712276 0,0.0263438 -0.00642115,0.0500844 -0.0192383,0.0712276 -0.0124764,0.0211432 -0.0296339,0.0379543 -0.0514698,0.0504307 -0.0218358,0.0124792 -0.0464535,0.0187188 -0.0738279,0.0187188zm0 -0.061871c0.0142081,0 0.0268549,-0.00346614 0.0379543,-0.0103984 0.0114374,-0.00693227 0.0204449,-0.0162889 0.0270364,-0.0280754 0.00692669,-0.0121301 0.0103956,-0.0254751 0.0103956,-0.0400323 0,-0.0149035 -0.00346893,-0.0282486 -0.0103956,-0.0400323 -0.00659152,-0.0117865 -0.015599,-0.0211432 -0.0270364,-0.0280754 -0.0110995,-0.00727861 -0.0237462,-0.0109179 -0.0379543,-0.0109179 -0.0138673,0 -0.0265141,0.0036393 -0.0379515,0.0109179 -0.0114402,0.00693227 -0.0204589,0.0162889 -0.0270364,0.0280754 -0.00658873,0.0117837 -0.00987891,0.0251288 -0.00987891,0.0400323 0,0.0145572 0.00329018,0.0279023 0.00987891,0.0400323 0.00657756,0.0117865 0.0155962,0.0211432 0.0270364,0.0280754 0.0114374,0.00693227 0.0240842,0.0103984 0.0379515,0.0103984zm0.188311 0.0566704l0 -0.270873 0.0712276 0 0 0.0301562c0.00866953,-0.0117865 0.0190679,-0.0207968 0.0311952,-0.0270364 0.0121273,-0.0062396 0.025827,-0.00935941 0.0410741,-0.00935941 0.0131663,0.000349127 0.0230452,0.00242713 0.0296339,0.0062396l0 0.0623905c-0.0052006,-0.00242713 -0.0109179,-0.0041616 -0.0171575,-0.0052006 -0.0062396,-0.00138534 -0.0126468,-0.00207801 -0.0192355,-0.00207801 -0.0138701,0 -0.0265169,0.00346614 -0.0379543,0.0103984 -0.0114374,0.00692948 -0.0206264,0.0168084 -0.0275559,0.0296339l0 0.175728 -0.0712276 0z"/>
  </g>
  <path class="fil2" d="M0.431309 0.0776906c0.0208024,-0.00313656 0.0784028,0.0244976 0.13492,0.0526652 0.0486376,0.023615 0.110587,0.0478863 0.127862,0.0740932 0.0154231,0.0143086 0.0297317,0.0765734 0.0429483,0.138321 0.011862,0.052749 0.0315108,0.116315 0.0217911,0.146161 -0.00157247,0.0209812 -0.0413311,0.0709902 -0.0813662,0.119821 -0.0338458,0.0421634 -0.0712946,0.097158 -0.100688,0.108168 -0.0173837,0.0118536 -0.0812713,0.0119457 -0.14441,0.0110911 -0.0540645,-0.000173167 -0.120413,0.00483751 -0.147346,-0.0112782 -0.0201069,-0.0062005 -0.0600136,-0.0560922 -0.0987109,-0.105989 -0.0335749,-0.0423785 -0.0788581,-0.091125 -0.0830504,-0.122234 -0.00768639,-0.0195846 0.00643512,-0.0818913 0.0213219,-0.143257 0.0121999,-0.0526708 0.022076,-0.118469 0.0437834,-0.141142 0.0105185,-0.0182217 0.0680379,-0.0460262 0.125298,-0.0726492 0.0487857,-0.0233022 0.106386,-0.0566033 0.137648,-0.0537712z"/>
  <polygon class="fil3" points="0.431091,0.13426 0.5391,0.186275 0.647106,0.238289 0.673782,0.35516 0.700458,0.472034 0.625714,0.565759 0.55097,0.659485 0.431091,0.659485 0.311212,0.659485 0.236468,0.565759 0.161727,0.472034 0.1884,0.35516 0.215076,0.238289 0.323082,0.186275 "/>
  <path class="fil4" d="M0.31465 0.406571c-0.00190205,-0.0896727 0.0311003,-0.126993 0.0823494,-0.136939l-0.0095633 -0.0778554 0.0436549 0 0.0436549 0 -0.0095633 0.0778554c0.0512491,0.00994594 0.0842514,0.0472663 0.0823522,0.136939 -0.0178558,0.0383063 -0.0280279,0.0772074 -0.016247,0.118064 -0.0401496,0.0227519 -0.063044,0.0557375 -0.0760371,0.0946666 -0.00505536,-0.00166185 -0.0101107,-0.0033209 -0.0151661,-0.00498275 0.0230284,-0.0721493 0.0639434,-0.195601 0.0621754,-0.206664l-0.0711689 0 -0.0711661 0c-0.00176798,0.0110631 0.039147,0.134515 0.0621726,0.206664 -0.00505536,0.00166185 -0.0101107,0.0033209 -0.0151633,0.00498275 -0.0129959,-0.0389291 -0.0358903,-0.0719147 -0.0760371,-0.0946666 0.0117782,-0.0408563 0.00160878,-0.0797574 -0.016247,-0.118064zm0.116441 -0.19962l-0.0262181 0.000315611 0.0153812 0.126946 0.0108313 0.0116972 0 0.0232882 -0.0252349 -0.027514 -0.00689038 -0.0561034c-0.0408116,0.00482354 -0.0659739,0.0399988 -0.0686608,0.118765 0.0189283,0.040401 0.025355,0.0780816 0.0177077,0.112707 0.0136634,0.00907173 0.0262013,0.020389 0.0381303,0.0329269 -0.0120603,-0.0385576 -0.0241177,-0.077118 -0.036178,-0.115678 -0.00896559,-0.0281061 -0.00639043,-0.0424595 -0.00639043,-0.0424595l0.087522 0 0.087522 0c0,0 0.00257796,0.0143533 -0.00639043,0.0424595 -0.0120575,0.0385604 -0.0241177,0.0771208 -0.0361752,0.115678 0.0119262,-0.0125379 0.0244668,-0.0238552 0.0381275,-0.0329269 -0.00764449,-0.0346251 -0.00122055,-0.0723057 0.0177077,-0.112707 -0.00268688,-0.0787659 -0.0278464,-0.113941 -0.068658,-0.118765l-0.00689317 0.0561034 -0.0252349 0.027514 0 -0.0232882 0.0108313 -0.0116972 0.0153812 -0.126946 -0.0262181 -0.000315611z"/>
  <rect class="fil5" width="3.80578" height="0.816581"/>
 </g>
</svg>
