<svg width="465" height="446" viewBox="0 0 465 446" fill="none" xmlns="http://www.w3.org/2000/svg">
<path opacity="0.999" fill-rule="evenodd" clip-rule="evenodd" d="M236.041 0C243.285 0 250.532 0 257.776 0C260.517 0.450786 263.199 1.21151 265.818 2.28216C315.617 26.5661 365.39 50.9092 415.137 75.3114C420.338 78.5758 424.141 83.0314 426.547 88.6784C428.33 93.9536 430.069 99.2424 431.764 104.545C442.514 155.906 453.236 207.272 463.932 258.645C464.173 261.462 464.281 264.288 464.258 267.122C464.994 274.723 463.147 281.604 458.715 287.77C424.737 330.588 390.757 373.405 356.778 416.223C355.35 417.797 353.792 419.21 352.105 420.462C349.063 422.489 346.02 424.519 342.977 426.547C339.519 428.532 335.824 429.801 331.892 430.351C275.744 430.388 219.594 430.351 163.447 430.242C157.342 429.471 152.053 427.008 147.58 422.852C144.027 421.757 140.912 419.944 138.234 417.419C131.283 410.324 124.654 402.971 118.347 395.358C88.8772 359.595 59.8249 323.515 31.1898 287.118C28.5857 283.219 26.9193 278.946 26.1908 274.294C26.0458 269.584 26.0458 264.877 26.1908 260.167C37.9891 207.188 49.8709 154.228 61.836 101.285C62.4915 98.9557 63.3609 96.7098 64.4442 94.5468C67.2378 90.4048 70.0272 86.2751 72.8121 82.1579C75.1136 79.5932 77.7218 77.3834 80.6367 75.5288C129.758 51.1133 178.878 26.6976 227.999 2.28216C230.62 1.21097 233.303 0.450251 236.041 0Z" fill="#5297FE"/>
<path fill-rule="evenodd" clip-rule="evenodd" d="M241.475 38.2534C245.098 38.2171 248.721 38.2534 252.342 38.3621C296.101 59.7347 339.862 81.1075 383.621 102.48C386.527 103.879 389.389 105.364 392.206 106.936C393.091 109.297 393.886 111.688 394.597 114.108C405.091 164.155 415.524 214.218 425.895 264.296C426.041 265.311 426.041 266.324 425.895 267.339C393.728 307.912 361.56 348.482 329.393 389.055C328.262 390.217 326.995 391.195 325.589 391.989C274.077 392.134 222.566 392.134 171.054 391.989C168.04 388.922 164.49 386.677 160.404 385.251C157.107 381.519 153.811 377.789 150.514 374.057C121.251 338.923 92.5606 303.35 64.4442 267.339C64.2992 266.252 64.2992 265.166 64.4442 264.079C75.8161 213.887 87.1182 163.679 98.3506 113.456C99.1396 111.589 100.154 109.85 101.393 108.24C148.11 84.9356 194.804 61.6067 241.475 38.2534Z" fill="#082D75"/>
<path fill-rule="evenodd" clip-rule="evenodd" d="M267.122 130.844C266.874 131.453 266.839 132.106 267.013 132.8C267.109 132.286 267.217 131.779 267.339 131.279C267.685 129.912 268.011 128.535 268.317 127.149C280.584 129.5 291.632 134.535 301.463 142.255C310.657 150.379 316.851 160.414 320.046 172.358C322.38 180.699 324.048 189.175 325.045 197.788C325.956 204.502 326.536 211.24 326.784 218.001C321.661 228.39 317.388 239.112 313.96 250.169C311.456 258.915 310.513 267.826 311.135 276.903C311.939 283.543 312.954 290.135 314.178 296.681C304.397 302.095 295.16 308.29 286.466 315.265C276.192 324.304 267.969 334.919 261.797 347.106C259.641 351.308 257.576 355.546 255.602 359.821C255.157 359.891 254.722 359.819 254.298 359.604C251.44 358.424 248.614 357.228 245.821 356.018C258.643 319.07 271.792 282.267 285.27 245.604C287.242 239.834 289.126 234.037 290.921 228.216C291.769 225.06 292.456 221.872 292.986 218.653C293.182 218.499 293.256 218.281 293.204 218.001C260.999 217.929 228.831 218.001 196.701 218.218C197.961 225.941 199.736 233.548 202.026 241.04C209.415 264.511 216.805 287.985 224.195 311.461C228.736 326.241 233.191 341.055 237.562 355.909C237.508 356.198 237.362 356.415 237.128 356.561C234.032 357.713 230.918 358.728 227.782 359.604C223.937 349.417 219.192 339.673 213.545 330.37C208.01 322.007 201.308 314.654 193.44 308.309C188.218 304.139 182.785 300.261 177.139 296.681C177.067 296.501 176.994 296.318 176.922 296.138C179.062 286.803 180.04 277.348 179.856 267.774C179.288 258.556 177.549 249.573 174.64 240.823C172.115 233.174 169.289 225.641 166.163 218.218C166.706 204.706 168.228 191.302 170.727 178.009C172.567 168.539 175.972 159.7 180.943 151.492C186.143 143.828 192.845 137.851 201.048 133.561C206.052 130.963 211.268 128.898 216.697 127.366C216.842 127.439 216.986 127.511 217.131 127.584C218.175 130.818 219.118 134.078 219.957 137.365C209.244 139.947 200.152 145.236 192.68 153.231C188.695 158.155 185.725 163.661 183.768 169.749C181.556 177.004 179.963 184.393 178.987 191.919C177.859 200.148 177.134 208.407 176.813 216.697C182.432 229.494 186.561 242.753 189.202 256.472C190.504 264.848 190.721 273.253 189.854 281.684C189.322 285.016 188.888 288.35 188.55 291.682C195.41 296.366 201.895 301.548 208.003 307.223C209.85 309.216 211.698 311.207 213.545 313.2C208.483 296.199 203.194 279.246 197.679 262.34C194.114 251.194 190.853 239.964 187.898 228.651C187.166 225.128 186.623 221.579 186.268 218.001C186.268 216.842 186.268 215.682 186.268 214.523C186.848 214.523 187.427 214.523 188.007 214.523C189.021 214.523 190.035 214.523 191.05 214.523C191.05 212.278 191.05 210.031 191.05 207.786C227.201 207.786 263.355 207.786 299.507 207.786C299.507 209.959 299.507 212.133 299.507 214.306C300.852 214.376 302.156 214.304 303.419 214.089C303.671 215.789 303.706 217.527 303.528 219.305C302.228 226.458 300.417 233.485 298.094 240.388C289.265 265.29 280.317 290.139 271.251 314.939C280.639 305.901 291.034 298.077 302.441 291.465C301.802 286.625 301.222 281.771 300.702 276.903C300.139 267.633 301.009 258.504 303.31 249.517C306.557 238.034 310.833 226.949 316.134 216.262C315.523 204.112 313.93 192.085 311.352 180.182C309.411 171.23 305.716 163.116 300.267 155.839C294.134 148.947 286.707 143.911 277.989 140.733C274.136 139.34 270.223 138.145 266.252 137.147C265.085 149.473 263.818 161.789 262.449 174.096C256.291 180.255 250.132 186.413 243.974 192.571C238.273 186.454 232.622 180.296 227.021 174.096C222.698 140.728 218.603 107.328 214.741 73.8986C234.156 73.8986 253.574 73.8986 272.99 73.8986C271.09 92.8841 269.134 111.866 267.122 130.844Z" fill="#FDFDFE"/>
<path opacity="0.298" fill-rule="evenodd" clip-rule="evenodd" d="M72.8119 82.1579C70.027 86.2751 67.2375 90.4048 64.444 94.5468C63.3607 96.7098 62.4913 98.9557 61.8358 101.285C49.8707 154.228 37.9889 207.188 26.1905 260.167C26.0456 264.877 26.0456 269.584 26.1905 274.294C26.9191 278.946 28.5855 283.219 31.1896 287.118C59.8246 323.515 88.877 359.595 118.346 395.358C124.654 402.971 131.283 410.324 138.234 417.419C140.912 419.944 144.027 421.757 147.58 422.852C152.053 427.008 157.342 429.471 163.446 430.242C219.594 430.351 275.744 430.388 331.892 430.351C330.416 432.227 328.749 433.928 326.893 435.459C323.561 437.704 320.227 439.951 316.895 442.196C313.48 444.144 309.859 445.411 306.027 446C249.734 446 193.441 446 137.147 446C131.144 445.026 125.855 442.527 121.281 438.501C118.159 437.413 115.333 435.817 112.804 433.72C109.132 430.192 105.618 426.534 102.263 422.744C89.7825 408.09 77.466 393.31 65.3134 378.404C44.6346 352.873 24.2038 327.154 4.02096 301.246C1.96175 297.712 0.621435 293.943 0 289.943C0 285.234 0 280.526 0 275.816C11.8033 223.165 23.6489 170.495 35.5366 117.803C36.2466 114.368 37.5507 111.18 39.4488 108.24C41.6347 105.257 43.7358 102.214 45.7519 99.1111C48.1447 95.8481 51.079 93.2036 54.5546 91.1779C60.6193 88.1091 66.705 85.1025 72.8119 82.1579Z" fill="#00D2FF"/>
<path fill-rule="evenodd" clip-rule="evenodd" d="M226.478 84.3314C238.143 84.3314 249.806 84.3314 261.471 84.3314C258.578 112.67 255.572 140.998 252.451 169.315C249.766 172.035 247.05 174.716 244.3 177.357C241.918 174.722 239.492 172.113 237.019 169.532C233.394 141.145 229.881 112.745 226.478 84.3314Z" fill="#092D75"/>
<path fill-rule="evenodd" clip-rule="evenodd" d="M267.121 130.844C267.084 131.06 267.156 131.204 267.339 131.279C267.217 131.779 267.108 132.286 267.013 132.8C266.839 132.106 266.874 131.454 267.121 130.844Z" fill="#8294B9"/>
<path fill-rule="evenodd" clip-rule="evenodd" d="M299.507 207.786C299.722 209.847 299.796 211.948 299.724 214.089C300.957 214.089 302.187 214.089 303.419 214.089C302.156 214.304 300.852 214.376 299.507 214.306C299.507 212.133 299.507 209.959 299.507 207.786Z" fill="#8396BA"/>
<path fill-rule="evenodd" clip-rule="evenodd" d="M188.007 214.523C187.428 214.523 186.848 214.523 186.269 214.523C186.269 215.682 186.269 216.842 186.269 218.001C186.054 216.811 185.981 215.579 186.051 214.306C186.75 214.239 187.402 214.311 188.007 214.523Z" fill="#8798BB"/>
<path fill-rule="evenodd" clip-rule="evenodd" d="M196.7 218.218C228.831 218.001 260.999 217.929 293.203 218.001C293.255 218.281 293.181 218.499 292.986 218.653C260.964 218.218 228.868 218.073 196.7 218.218Z" fill="#DFE4ED"/>
</svg>
