<?xml version="1.0" encoding="UTF-8"?>
<!DOCTYPE svg PUBLIC "-//W3C//DTD SVG 1.1//EN" "http://www.w3.org/Graphics/SVG/1.1/DTD/svg11.dtd">
<svg xmlns="http://www.w3.org/2000/svg" version="1.1" width="954px" height="514px" style="shape-rendering:geometricPrecision; text-rendering:geometricPrecision; image-rendering:optimizeQuality; fill-rule:evenodd; clip-rule:evenodd" xmlns:xlink="http://www.w3.org/1999/xlink">
<g><path style="opacity:1" fill="#4d7188" d="M -0.5,-0.5 C 317.5,-0.5 635.5,-0.5 953.5,-0.5C 953.5,170.833 953.5,342.167 953.5,513.5C 635.5,513.5 317.5,513.5 -0.5,513.5C -0.5,342.167 -0.5,170.833 -0.5,-0.5 Z"/></g>
<g><path style="opacity:1" fill="#5f8094" d="M 247.5,77.5 C 248.167,97.5 248.833,117.5 249.5,137.5C 249.167,138.5 248.5,139.167 247.5,139.5C 247.5,118.833 247.5,98.1667 247.5,77.5 Z"/></g>
<g><path style="opacity:1" fill="#b9c7d0" d="M 247.5,77.5 C 247.5,98.1667 247.5,118.833 247.5,139.5C 247.158,140.338 246.492,140.672 245.5,140.5C 242.287,140.81 239.287,140.477 236.5,139.5C 236.167,139.5 235.833,139.5 235.5,139.5C 235.5,118.833 235.5,98.1667 235.5,77.5C 239.5,77.5 243.5,77.5 247.5,77.5 Z"/></g>
<g><path style="opacity:1" fill="#fdfdfe" d="M 236.5,139.5 C 236.5,119.167 236.5,98.8333 236.5,78.5C 239.833,78.5 243.167,78.5 246.5,78.5C 246.5,98.8333 246.5,119.167 246.5,139.5C 243.167,139.5 239.833,139.5 236.5,139.5 Z"/></g>
<g><path style="opacity:1" fill="#829bab" d="M 253.5,77.5 C 254.686,79.8744 254.686,82.2078 253.5,84.5C 252.053,83.8658 251.387,82.6991 251.5,81C 251.387,79.3009 252.053,78.1342 253.5,77.5 Z"/></g>
<g><path style="opacity:1" fill="#f8f9fa" d="M 164.5,81.5 C 168.167,81.5 171.833,81.5 175.5,81.5C 175.5,86.8333 175.5,92.1667 175.5,97.5C 177.607,98.4682 179.941,98.8016 182.5,98.5C 182.5,101.167 182.5,103.833 182.5,106.5C 179.941,106.198 177.607,106.532 175.5,107.5C 175.334,114.508 175.5,121.508 176,128.5C 176.383,129.056 176.883,129.389 177.5,129.5C 178.919,130.451 180.585,130.784 182.5,130.5C 182.5,133.5 182.5,136.5 182.5,139.5C 179.167,139.5 175.833,139.5 172.5,139.5C 171.508,139.672 170.842,139.338 170.5,138.5C 169.118,136.451 167.452,134.785 165.5,133.5C 164.542,116.201 164.208,98.8679 164.5,81.5 Z"/></g>
<g><path style="opacity:1" fill="#a2b5c1" d="M 253.5,77.5 C 255.621,77.3253 257.621,77.6586 259.5,78.5C 259.079,80.9099 257.746,82.7432 255.5,84C 256.996,84.5074 258.163,84.0074 259,82.5C 259.667,83.1667 259.667,83.8333 259,84.5C 257.644,85.3802 256.144,85.7135 254.5,85.5C 253.833,85.5 253.5,85.1667 253.5,84.5C 254.686,82.2078 254.686,79.8744 253.5,77.5 Z"/></g>
<g><path style="opacity:1" fill="#6c899d" d="M 259.5,78.5 C 261.772,80.8082 262.106,83.4749 260.5,86.5C 258.265,86.7947 256.265,86.4614 254.5,85.5C 256.144,85.7135 257.644,85.3802 259,84.5C 259.667,83.8333 259.667,83.1667 259,82.5C 258.163,84.0074 256.996,84.5074 255.5,84C 257.746,82.7432 259.079,80.9099 259.5,78.5 Z"/></g>
<g><path style="opacity:1" fill="#5a8097" d="M 97.5,78.5 C 97.5,82.5 97.5,86.5 97.5,90.5C 101.5,90.5 105.5,90.5 109.5,90.5C 109.5,86.5 109.5,82.5 109.5,78.5C 110.647,82.6463 110.814,86.9796 110,91.5C 105.599,92.4667 101.099,92.8 96.5,92.5C 96.1805,87.6367 96.5139,82.97 97.5,78.5 Z"/></g>
<g><path style="opacity:1" fill="#5daad2" d="M 97.5,78.5 C 101.5,78.5 105.5,78.5 109.5,78.5C 109.5,82.5 109.5,86.5 109.5,90.5C 105.5,90.5 101.5,90.5 97.5,90.5C 97.5,86.5 97.5,82.5 97.5,78.5 Z"/></g>
<g><path style="opacity:1" fill="#59c2f6" d="M 98.5,79.5 C 101.833,79.5 105.167,79.5 108.5,79.5C 108.5,82.8333 108.5,86.1667 108.5,89.5C 105.167,89.5 101.833,89.5 98.5,89.5C 98.5,86.1667 98.5,82.8333 98.5,79.5 Z"/></g>
<g><path style="opacity:1" fill="#9eb2be" d="M 145.5,97.5 C 141.102,97.2941 136.768,97.6274 132.5,98.5C 132.611,97.8826 132.944,97.3826 133.5,97C 137.689,96.1881 141.689,96.3547 145.5,97.5 Z"/></g>
<g><path style="opacity:1" fill="#9cb0bd" d="M 212.5,97.5 C 208.102,97.2941 203.768,97.6274 199.5,98.5C 199.611,97.8826 199.944,97.3826 200.5,97C 204.689,96.1881 208.689,96.3547 212.5,97.5 Z"/></g>
<g><path style="opacity:1" fill="#fcfdfd" d="M 145.5,97.5 C 146.833,97.8333 148.167,98.1667 149.5,98.5C 150.833,100.5 152.5,102.167 154.5,103.5C 154.932,104.71 155.599,105.71 156.5,106.5C 156.5,117.5 156.5,128.5 156.5,139.5C 153.5,139.5 150.5,139.5 147.5,139.5C 147.666,131.16 147.5,122.827 147,114.5C 146.617,113.944 146.117,113.611 145.5,113.5C 144.962,111.883 144.629,110.216 144.5,108.5C 143.209,108.737 142.209,108.404 141.5,107.5C 138.36,106.359 135.027,106.192 131.5,107C 130.944,107.383 130.611,107.883 130.5,108.5C 129.272,109.306 128.272,110.306 127.5,111.5C 126.778,111.918 126.278,112.584 126,113.5C 125.5,122.16 125.334,130.827 125.5,139.5C 122.5,139.5 119.5,139.5 116.5,139.5C 116.5,125.833 116.5,112.167 116.5,98.5C 119.5,98.5 122.5,98.5 125.5,98.5C 125.5,99.8333 125.5,101.167 125.5,102.5C 126.791,102.737 127.791,102.404 128.5,101.5C 130.23,100.974 131.564,99.9744 132.5,98.5C 136.768,97.6274 141.102,97.2941 145.5,97.5 Z"/></g>
<g><path style="opacity:1" fill="#f8fafa" d="M 212.5,97.5 C 214.216,97.6287 215.883,97.962 217.5,98.5C 217.973,99.9063 218.973,100.573 220.5,100.5C 221.239,100.369 221.906,100.536 222.5,101C 224.364,103.688 226.364,106.188 228.5,108.5C 228.41,111.152 229.076,113.485 230.5,115.5C 230.5,117.833 230.5,120.167 230.5,122.5C 219.5,122.5 208.5,122.5 197.5,122.5C 197.232,124.099 197.566,125.432 198.5,126.5C 199.272,127.694 200.272,128.694 201.5,129.5C 201.611,130.117 201.944,130.617 202.5,131C 206.167,131.667 209.833,131.667 213.5,131C 214.056,130.617 214.389,130.117 214.5,129.5C 215.609,129.443 216.609,129.11 217.5,128.5C 218.609,128.443 219.609,128.11 220.5,127.5C 221.27,129.935 222.937,131.269 225.5,131.5C 227.481,132.105 227.815,133.105 226.5,134.5C 224.973,134.427 223.973,135.094 223.5,136.5C 222.232,138.047 220.565,139.047 218.5,139.5C 212.146,140.734 205.812,140.734 199.5,139.5C 198.508,139.672 197.842,139.338 197.5,138.5C 197.027,137.094 196.027,136.427 194.5,136.5C 192.833,134.833 191.167,133.167 189.5,131.5C 189.245,129.033 188.245,127.033 186.5,125.5C 186.5,121.833 186.5,118.167 186.5,114.5C 188.074,112.898 188.741,110.898 188.5,108.5C 190.587,107.415 191.92,105.749 192.5,103.5C 195.165,102.148 197.498,100.482 199.5,98.5C 203.768,97.6274 208.102,97.2941 212.5,97.5 Z"/></g>
<g><path style="opacity:1" fill="#839cac" d="M 149.5,98.5 C 152.167,99.1667 153.833,100.833 154.5,103.5C 152.5,102.167 150.833,100.5 149.5,98.5 Z"/></g>
<g><path style="opacity:1" fill="#c9d5db" d="M 108.5,97.5 C 108.5,97.8333 108.5,98.1667 108.5,98.5C 105.167,98.5 101.833,98.5 98.5,98.5C 98.5,112.167 98.5,125.833 98.5,139.5C 101.833,139.5 105.167,139.5 108.5,139.5C 105.038,140.482 101.371,140.815 97.5,140.5C 97.5,126.167 97.5,111.833 97.5,97.5C 101.167,97.5 104.833,97.5 108.5,97.5 Z"/></g>
<g><path style="opacity:1" fill="#fcfcfd" d="M 108.5,98.5 C 108.5,112.167 108.5,125.833 108.5,139.5C 105.167,139.5 101.833,139.5 98.5,139.5C 98.5,125.833 98.5,112.167 98.5,98.5C 101.833,98.5 105.167,98.5 108.5,98.5 Z"/></g>
<g><path style="opacity:1" fill="#8da3b2" d="M 108.5,97.5 C 109.496,111.99 109.829,126.657 109.5,141.5C 105.298,141.817 101.298,141.483 97.5,140.5C 101.371,140.815 105.038,140.482 108.5,139.5C 108.5,125.833 108.5,112.167 108.5,98.5C 108.5,98.1667 108.5,97.8333 108.5,97.5 Z"/></g>
<g><path style="opacity:1" fill="#afbfc9" d="M 175.5,97.5 C 178.167,97.5 180.833,97.5 183.5,97.5C 183.5,100.833 183.5,104.167 183.5,107.5C 180.833,107.5 178.167,107.5 175.5,107.5C 177.607,106.532 179.941,106.198 182.5,106.5C 182.5,103.833 182.5,101.167 182.5,98.5C 179.941,98.8016 177.607,98.4682 175.5,97.5 Z"/></g>
<g><path style="opacity:1" fill="#acbdc8" d="M 217.5,98.5 C 219.027,98.427 220.027,99.0937 220.5,100.5C 218.973,100.573 217.973,99.9063 217.5,98.5 Z"/></g>
<g><path style="opacity:1" fill="#8aa1b0" d="M 126.5,97.5 C 127.268,98.2625 127.768,99.2625 128,100.5C 129.33,99.4178 130.83,98.7512 132.5,98.5C 131.564,99.9744 130.23,100.974 128.5,101.5C 126.824,100.817 126.157,99.4832 126.5,97.5 Z"/></g>
<g><path style="opacity:1" fill="#becbd3" d="M 199.5,98.5 C 197.498,100.482 195.165,102.148 192.5,103.5C 193.992,100.677 196.326,99.0102 199.5,98.5 Z"/></g>
<g><path style="opacity:1" fill="#b6c5ce" d="M 192.5,103.5 C 191.92,105.749 190.587,107.415 188.5,108.5C 189.08,106.251 190.413,104.585 192.5,103.5 Z"/></g>
<g><path style="opacity:1" fill="#9db1bd" d="M 141.5,107.5 C 137.766,107.323 134.099,107.656 130.5,108.5C 130.611,107.883 130.944,107.383 131.5,107C 135.027,106.192 138.36,106.359 141.5,107.5 Z"/></g>
<g><path style="opacity:1" fill="#507389" d="M 213.5,107.5 C 215.076,108.143 216.41,109.143 217.5,110.5C 217.5,110.833 217.5,111.167 217.5,111.5C 211.588,113.456 205.255,114.123 198.5,113.5C 199.203,111.284 200.536,109.451 202.5,108C 206.152,107.501 209.818,107.335 213.5,107.5 Z"/></g>
<g><path style="opacity:1" fill="#b3c2cc" d="M 188.5,108.5 C 188.741,110.898 188.074,112.898 186.5,114.5C 186.259,112.102 186.926,110.102 188.5,108.5 Z"/></g>
<g><path style="opacity:1" fill="#98acba" d="M 228.5,108.5 C 229.924,110.515 230.59,112.848 230.5,115.5C 229.076,113.485 228.41,111.152 228.5,108.5 Z"/></g>
<g><path style="opacity:1" fill="#b3c3cc" d="M 156.5,106.5 C 158.049,112.587 158.716,118.92 158.5,125.5C 158.487,130.413 158.154,135.247 157.5,140C 153.577,140.793 149.744,140.626 146,139.5C 145.5,130.84 145.334,122.173 145.5,113.5C 146.117,113.611 146.617,113.944 147,114.5C 147.5,122.827 147.666,131.16 147.5,139.5C 150.5,139.5 153.5,139.5 156.5,139.5C 156.5,128.5 156.5,117.5 156.5,106.5 Z"/></g>
<g><path style="opacity:1" fill="#a5b7c3" d="M 213.5,107.5 C 209.818,107.335 206.152,107.501 202.5,108C 200.536,109.451 199.203,111.284 198.5,113.5C 204.979,114.491 211.646,114.824 218.5,114.5C 218.737,113.209 218.404,112.209 217.5,111.5C 217.5,111.167 217.5,110.833 217.5,110.5C 219.256,111.552 219.923,113.219 219.5,115.5C 211.833,115.5 204.167,115.5 196.5,115.5C 196.738,111.862 198.404,109.029 201.5,107C 205.689,106.188 209.689,106.355 213.5,107.5 Z"/></g>
<g><path style="opacity:1" fill="#6b899c" d="M 217.5,111.5 C 218.404,112.209 218.737,113.209 218.5,114.5C 211.646,114.824 204.979,114.491 198.5,113.5C 205.255,114.123 211.588,113.456 217.5,111.5 Z"/></g>
<g><path style="opacity:1" fill="#829bab" d="M 126.5,97.5 C 122.833,97.5 119.167,97.5 115.5,97.5C 115.5,111.833 115.5,126.167 115.5,140.5C 119.167,140.5 122.833,140.5 126.5,140.5C 126.174,131.983 126.507,123.65 127.5,115.5C 127.5,124.167 127.5,132.833 127.5,141.5C 123.167,141.5 118.833,141.5 114.5,141.5C 114.5,126.5 114.5,111.5 114.5,96.5C 118.702,96.1832 122.702,96.5166 126.5,97.5 Z"/></g>
<g><path style="opacity:1" fill="#c4d0d7" d="M 126.5,97.5 C 126.157,99.4832 126.824,100.817 128.5,101.5C 127.791,102.404 126.791,102.737 125.5,102.5C 125.5,101.167 125.5,99.8333 125.5,98.5C 122.5,98.5 119.5,98.5 116.5,98.5C 116.5,112.167 116.5,125.833 116.5,139.5C 119.5,139.5 122.5,139.5 125.5,139.5C 125.334,130.827 125.5,122.16 126,113.5C 126.278,112.584 126.778,111.918 127.5,111.5C 127.5,112.833 127.5,114.167 127.5,115.5C 126.507,123.65 126.174,131.983 126.5,140.5C 122.833,140.5 119.167,140.5 115.5,140.5C 115.5,126.167 115.5,111.833 115.5,97.5C 119.167,97.5 122.833,97.5 126.5,97.5 Z"/></g>
<g><path style="opacity:1" fill="#90a7b5" d="M 230.5,122.5 C 220.013,123.494 209.346,123.828 198.5,123.5C 198.5,124.5 198.5,125.5 198.5,126.5C 197.566,125.432 197.232,124.099 197.5,122.5C 208.5,122.5 219.5,122.5 230.5,122.5 Z"/></g>
<g><path style="opacity:1" fill="#b5c4cd" d="M 220.5,127.5 C 219.609,128.11 218.609,128.443 217.5,128.5C 218.221,126.618 219.221,126.285 220.5,127.5 Z"/></g>
<g><path style="opacity:1" fill="#537e96" d="M 882.5,128.5 C 845.663,128.168 808.996,128.502 772.5,129.5C 771.511,134.975 771.178,140.642 771.5,146.5C 770.174,140.432 770.174,134.266 771.5,128C 808.669,127.169 845.669,127.336 882.5,128.5 Z"/></g>
<g><path style="opacity:1" fill="#59c1f4" d="M 325.5,136.5 C 325.982,137.416 326.315,138.416 326.5,139.5C 324.729,142.916 323.729,146.582 323.5,150.5C 322.596,151.209 322.263,152.209 322.5,153.5C 318.364,153.345 314.698,152.011 311.5,149.5C 309.967,147.755 307.967,146.755 305.5,146.5C 303.708,146.634 302.042,146.301 300.5,145.5C 299.737,144.732 298.737,144.232 297.5,144C 290.167,143.333 282.833,143.333 275.5,144C 274.944,144.383 274.611,144.883 274.5,145.5C 260.68,147.495 255.346,155.328 258.5,169C 260.851,173.516 264.518,176.349 269.5,177.5C 272.008,179.554 275.008,180.554 278.5,180.5C 278.833,180.5 279.167,180.5 279.5,180.5C 282.251,182.975 285.584,183.975 289.5,183.5C 289.611,184.117 289.944,184.617 290.5,185C 297.402,187.263 304.402,189.096 311.5,190.5C 320.415,194.085 327.081,200.085 331.5,208.5C 331.76,215.557 331.427,222.557 330.5,229.5C 330.44,232.341 329.774,235.007 328.5,237.5C 325.167,240.167 322.167,243.167 319.5,246.5C 317.5,247.5 315.5,248.5 313.5,249.5C 308.039,252.054 302.372,253.721 296.5,254.5C 284.76,254.858 273.093,254.192 261.5,252.5C 261.167,252.5 260.833,252.5 260.5,252.5C 257.811,250.883 254.811,249.883 251.5,249.5C 250.508,249.672 249.842,249.338 249.5,248.5C 248.365,246.787 246.698,246.12 244.5,246.5C 240.632,244.971 237.299,242.637 234.5,239.5C 235.065,237.491 236.065,235.824 237.5,234.5C 239.245,232.967 240.245,230.967 240.5,228.5C 240.628,226.91 241.295,225.577 242.5,224.5C 248.572,230.035 255.572,233.702 263.5,235.5C 263.611,236.117 263.944,236.617 264.5,237C 275.428,239.827 286.428,240.161 297.5,238C 299.653,237.901 301.319,237.067 302.5,235.5C 302.833,235.5 303.167,235.5 303.5,235.5C 306.267,235.13 308.267,233.796 309.5,231.5C 310.79,230.942 311.623,229.942 312,228.5C 313.817,223.472 313.817,218.472 312,213.5C 311.617,212.944 311.117,212.611 310.5,212.5C 309.71,211.206 308.71,210.039 307.5,209C 299.025,204.425 290.025,201.592 280.5,200.5C 278.064,199.129 275.397,198.129 272.5,197.5C 270.708,197.634 269.042,197.301 267.5,196.5C 265.064,195.129 262.397,194.129 259.5,193.5C 252.776,191.453 247.442,187.453 243.5,181.5C 241.63,177.874 239.963,174.208 238.5,170.5C 238.5,165.833 238.5,161.167 238.5,156.5C 239.795,154.021 240.795,151.354 241.5,148.5C 242.063,145.705 243.396,143.372 245.5,141.5C 245.5,141.167 245.5,140.833 245.5,140.5C 246.492,140.672 247.158,140.338 247.5,139.5C 248.5,139.167 249.167,138.5 249.5,137.5C 252.27,134.781 255.604,133.115 259.5,132.5C 261.987,131.677 264.321,130.677 266.5,129.5C 281.168,126.847 295.834,127.014 310.5,130C 315.271,132.719 320.271,134.886 325.5,136.5 Z"/></g>
<g><path style="opacity:1" fill="#609bb7" d="M 772.5,129.5 C 808.996,128.502 845.663,128.168 882.5,128.5C 883.833,134.5 883.833,140.5 882.5,146.5C 882.5,140.833 882.5,135.167 882.5,129.5C 845.833,129.5 809.167,129.5 772.5,129.5 Z"/></g>
<g><path style="opacity:1" fill="#c6d1d9" d="M 220.5,127.5 C 222.461,128.46 224.127,129.793 225.5,131.5C 222.937,131.269 221.27,129.935 220.5,127.5 Z"/></g>
<g><path style="opacity:1" fill="#5aacd5" d="M 724.5,129.5 C 726.786,129.595 728.786,130.262 730.5,131.5C 705.192,130.537 679.859,130.204 654.5,130.5C 654.5,171.5 654.5,212.5 654.5,253.5C 654.167,253.5 653.833,253.5 653.5,253.5C 653.5,212.167 653.5,170.833 653.5,129.5C 677.167,129.5 700.833,129.5 724.5,129.5 Z"/></g>
<g><path style="opacity:1" fill="#5bb9e6" d="M 772.5,129.5 C 809.167,129.5 845.833,129.5 882.5,129.5C 882.5,135.167 882.5,140.833 882.5,146.5C 882.167,146.5 881.833,146.5 881.5,146.5C 881.5,141.167 881.5,135.833 881.5,130.5C 845.5,130.5 809.5,130.5 773.5,130.5C 773.5,135.833 773.5,141.167 773.5,146.5C 772.511,141.025 772.178,135.358 772.5,129.5 Z"/></g>
<g><path style="opacity:1" fill="#8aa2b1" d="M 186.5,125.5 C 188.245,127.033 189.245,129.033 189.5,131.5C 187.755,129.967 186.755,127.967 186.5,125.5 Z"/></g>
<g><path style="opacity:1" fill="#a0b3c0" d="M 201.5,129.5 C 205.833,130.833 210.167,130.833 214.5,129.5C 214.389,130.117 214.056,130.617 213.5,131C 209.833,131.667 206.167,131.667 202.5,131C 201.944,130.617 201.611,130.117 201.5,129.5 Z"/></g>
<g><path style="opacity:1" fill="#5794b3" d="M 266.5,129.5 C 264.321,130.677 261.987,131.677 259.5,132.5C 261.09,130.179 263.423,129.179 266.5,129.5 Z"/></g>
<g><path style="opacity:1" fill="#6191a9" d="M 372.5,129.5 C 366.167,129.5 359.833,129.5 353.5,129.5C 352.501,170.663 352.168,211.997 352.5,253.5C 351.501,212.003 351.168,170.337 351.5,128.5C 358.687,128.175 365.687,128.509 372.5,129.5 Z"/></g>
<g><path style="opacity:1" fill="#67abcc" d="M 353.5,129.5 C 353.5,170.833 353.5,212.167 353.5,253.5C 359.5,253.5 365.5,253.5 371.5,253.5C 371.5,253.833 371.5,254.167 371.5,254.5C 364.978,254.823 358.645,254.49 352.5,253.5C 352.168,211.997 352.501,170.663 353.5,129.5 Z"/></g>
<g><path style="opacity:1" fill="#59c2f5" d="M 353.5,129.5 C 359.833,129.5 366.167,129.5 372.5,129.5C 387.908,151.729 403.075,174.062 418,196.5C 419.307,198.192 420.807,199.525 422.5,200.5C 426.079,197.687 428.412,194.02 429.5,189.5C 431.369,187.966 432.702,185.966 433.5,183.5C 434.974,182.564 435.974,181.23 436.5,179.5C 439.277,177.049 441.277,174.049 442.5,170.5C 447.209,163.471 451.875,156.471 456.5,149.5C 458.531,148.461 459.864,146.795 460.5,144.5C 462.326,142.853 463.66,140.853 464.5,138.5C 464.554,136.368 465.554,135.035 467.5,134.5C 469.026,133.895 470.026,132.729 470.5,131C 476.825,130.5 483.158,130.334 489.5,130.5C 489.5,171.5 489.5,212.5 489.5,253.5C 483.5,253.5 477.5,253.5 471.5,253.5C 471.833,222.493 471.5,191.493 470.5,160.5C 469.081,161.005 468.415,162.005 468.5,163.5C 467.599,164.29 466.932,165.29 466.5,166.5C 463.723,168.951 461.723,171.951 460.5,175.5C 458.14,178.218 456.14,181.218 454.5,184.5C 452.178,185.802 450.845,187.802 450.5,190.5C 448.738,191.262 447.738,192.596 447.5,194.5C 445.178,195.802 443.845,197.802 443.5,200.5C 442.833,200.5 442.5,200.833 442.5,201.5C 439.723,203.951 437.723,206.951 436.5,210.5C 432.418,215.241 428.752,220.241 425.5,225.5C 424.356,227.1 423.189,228.767 422,230.5C 421.329,229.748 420.496,229.414 419.5,229.5C 405.239,207.307 390.239,185.641 374.5,164.5C 374.5,163.833 374.5,163.167 374.5,162.5C 374.189,161.522 373.522,160.855 372.5,160.5C 371.5,191.493 371.167,222.493 371.5,253.5C 365.5,253.5 359.5,253.5 353.5,253.5C 353.5,212.167 353.5,170.833 353.5,129.5 Z"/></g>
<g><path style="opacity:1" fill="#5baed8" d="M 490.5,253.5 C 490.167,253.5 489.833,253.5 489.5,253.5C 489.5,212.5 489.5,171.5 489.5,130.5C 483.158,130.334 476.825,130.5 470.5,131C 470.026,132.729 469.026,133.895 467.5,134.5C 467.84,132.321 468.84,130.488 470.5,129C 477.158,128.5 483.825,128.334 490.5,128.5C 490.5,170.167 490.5,211.833 490.5,253.5 Z"/></g>
<g><path style="opacity:1" fill="#59c1f4" d="M 583.5,132.5 C 585.558,135.697 587.225,139.03 588.5,142.5C 589.641,146.13 590.808,149.797 592,153.5C 592.383,154.056 592.883,154.389 593.5,154.5C 598.558,165.865 603.558,177.198 608.5,188.5C 608.511,190.547 608.844,192.547 609.5,194.5C 611.391,197.162 613.058,199.828 614.5,202.5C 619.167,213.167 623.833,223.833 628.5,234.5C 630.504,238.59 632.504,242.59 634.5,246.5C 634.66,248.153 635.326,249.486 636.5,250.5C 636.5,251.5 636.5,252.5 636.5,253.5C 629.833,253.5 623.167,253.5 616.5,253.5C 613.522,247.653 610.689,241.653 608,235.5C 607.543,231.265 606.043,227.598 603.5,224.5C 593.355,223.168 582.855,222.501 572,222.5C 561.145,222.501 550.645,223.168 540.5,224.5C 536.264,233.985 532.264,243.652 528.5,253.5C 521.468,253.83 514.468,253.497 507.5,252.5C 507.863,251.817 508.196,251.15 508.5,250.5C 508.897,247.554 509.897,244.887 511.5,242.5C 513.388,240.206 514.722,237.539 515.5,234.5C 518.806,226.848 522.139,219.181 525.5,211.5C 527.245,209.967 528.245,207.967 528.5,205.5C 529.295,201.916 530.628,198.583 532.5,195.5C 534.25,194.341 535.25,192.674 535.5,190.5C 537.864,183.713 540.53,177.046 543.5,170.5C 546.341,166.972 548.341,162.972 549.5,158.5C 549.5,158.167 549.5,157.833 549.5,157.5C 551.245,155.967 552.245,153.967 552.5,151.5C 553.295,147.916 554.628,144.583 556.5,141.5C 560.037,138.755 561.704,135.088 561.5,130.5C 568.175,130.334 574.842,130.5 581.5,131C 582.044,131.717 582.711,132.217 583.5,132.5 Z"/></g>
<g><path style="opacity:1" fill="#57839b" d="M 724.5,129.5 C 700.833,129.5 677.167,129.5 653.5,129.5C 653.5,170.833 653.5,212.167 653.5,253.5C 652.335,212.002 652.169,170.335 653,128.5C 676.094,127.34 699.261,127.173 722.5,128C 723.416,128.278 724.082,128.778 724.5,129.5 Z"/></g>
<g><path style="opacity:1" fill="#59c1f5" d="M 730.5,131.5 C 734.807,131.649 738.473,133.149 741.5,136C 746.131,140.119 750.131,144.619 753.5,149.5C 753.62,152.578 754.62,155.245 756.5,157.5C 756.683,164.868 756.35,172.201 755.5,179.5C 755.5,179.833 755.5,180.167 755.5,180.5C 753.552,182.32 752.552,184.654 752.5,187.5C 751.662,187.842 751.328,188.508 751.5,189.5C 747.159,193.544 742.825,197.544 738.5,201.5C 737.18,202.942 735.514,203.608 733.5,203.5C 742.533,219.226 751.2,235.226 759.5,251.5C 753.25,253.459 746.584,254.126 739.5,253.5C 739.573,251.973 738.906,250.973 737.5,250.5C 737.245,248.033 736.245,246.033 734.5,244.5C 732.858,240.879 730.858,237.546 728.5,234.5C 727.364,229.404 725.031,225.071 721.5,221.5C 719.086,216.337 716.419,211.337 713.5,206.5C 700.344,205.504 687.01,205.171 673.5,205.5C 673.5,221.5 673.5,237.5 673.5,253.5C 667.167,254.833 660.833,254.833 654.5,253.5C 654.5,212.5 654.5,171.5 654.5,130.5C 679.859,130.204 705.192,130.537 730.5,131.5 Z"/></g>
<g><path style="opacity:1" fill="#58c2f6" d="M 881.5,146.5 C 866.657,146.171 851.99,146.504 837.5,147.5C 836.502,182.663 836.168,217.996 836.5,253.5C 830.5,253.5 824.5,253.5 818.5,253.5C 818.5,217.833 818.5,182.167 818.5,146.5C 803.5,146.5 788.5,146.5 773.5,146.5C 773.5,141.167 773.5,135.833 773.5,130.5C 809.5,130.5 845.5,130.5 881.5,130.5C 881.5,135.833 881.5,141.167 881.5,146.5 Z"/></g>
<g><path style="opacity:1" fill="#97abb9" d="M 164.5,81.5 C 164.208,98.8679 164.542,116.201 165.5,133.5C 165.5,133.833 165.5,134.167 165.5,134.5C 164.883,134.389 164.383,134.056 164,133.5C 163.171,115.995 163.338,98.6618 164.5,81.5 Z"/></g>
<g><path style="opacity:1" fill="#cad4db" d="M 165.5,134.5 C 165.5,134.167 165.5,133.833 165.5,133.5C 167.452,134.785 169.118,136.451 170.5,138.5C 168.225,137.889 166.559,136.555 165.5,134.5 Z"/></g>
<g><path style="opacity:1" fill="#5ca8ce" d="M 583.5,132.5 C 582.711,132.217 582.044,131.717 581.5,131C 574.842,130.5 568.175,130.334 561.5,130.5C 561.704,135.088 560.037,138.755 556.5,141.5C 558.365,137.215 560.365,133.048 562.5,129C 568.833,128.333 575.167,128.333 581.5,129C 582.823,129.816 583.489,130.983 583.5,132.5 Z"/></g>
<g><path style="opacity:1" fill="#8ba2b1" d="M 226.5,134.5 C 226.027,135.906 225.027,136.573 223.5,136.5C 223.973,135.094 224.973,134.427 226.5,134.5 Z"/></g>
<g><path style="opacity:1" fill="#a9bac5" d="M 194.5,136.5 C 196.027,136.427 197.027,137.094 197.5,138.5C 195.973,138.573 194.973,137.906 194.5,136.5 Z"/></g>
<g><path style="opacity:1" fill="#becbd3" d="M 182.5,130.5 C 183.479,133.625 183.813,136.958 183.5,140.5C 179.833,140.5 176.167,140.5 172.5,140.5C 172.5,140.167 172.5,139.833 172.5,139.5C 175.833,139.5 179.167,139.5 182.5,139.5C 182.5,136.5 182.5,133.5 182.5,130.5 Z"/></g>
<g><path style="opacity:1" fill="#8099aa" d="M 177.5,129.5 C 179.833,129.5 182.167,129.5 184.5,129.5C 184.5,133.5 184.5,137.5 184.5,141.5C 180.298,141.817 176.298,141.483 172.5,140.5C 176.167,140.5 179.833,140.5 183.5,140.5C 183.813,136.958 183.479,133.625 182.5,130.5C 180.585,130.784 178.919,130.451 177.5,129.5 Z"/></g>
<g><path style="opacity:1" fill="#96abb9" d="M 199.5,139.5 C 205.812,140.734 212.146,140.734 218.5,139.5C 218.082,140.222 217.416,140.722 216.5,141C 211.167,141.667 205.833,141.667 200.5,141C 199.944,140.617 199.611,140.117 199.5,139.5 Z"/></g>
<g><path style="opacity:1" fill="#7490a2" d="M 235.5,139.5 C 235.833,139.5 236.167,139.5 236.5,139.5C 239.287,140.477 242.287,140.81 245.5,140.5C 245.5,140.833 245.5,141.167 245.5,141.5C 241.671,142.069 238.337,141.402 235.5,139.5 Z"/></g>
<g><path style="opacity:1" fill="#5aa1c5" d="M 464.5,138.5 C 463.66,140.853 462.326,142.853 460.5,144.5C 460.845,141.802 462.178,139.802 464.5,138.5 Z"/></g>
<g><path style="opacity:1" fill="#588fac" d="M 325.5,136.5 C 327.252,136.418 328.252,137.251 328.5,139C 326.526,142.792 324.86,146.625 323.5,150.5C 323.729,146.582 324.729,142.916 326.5,139.5C 326.315,138.416 325.982,137.416 325.5,136.5 Z"/></g>
<g><path style="opacity:1" fill="#5c9ec0" d="M 300.5,145.5 C 291.82,144.355 283.153,144.355 274.5,145.5C 274.611,144.883 274.944,144.383 275.5,144C 282.833,143.333 290.167,143.333 297.5,144C 298.737,144.232 299.737,144.732 300.5,145.5 Z"/></g>
<g><path style="opacity:1" fill="#5790af" d="M 588.5,142.5 C 591.063,146.034 592.73,150.034 593.5,154.5C 592.883,154.389 592.383,154.056 592,153.5C 590.808,149.797 589.641,146.13 588.5,142.5 Z"/></g>
<g><path style="opacity:1" fill="#59a4c9" d="M 460.5,144.5 C 459.864,146.795 458.531,148.461 456.5,149.5C 457.124,147.246 458.457,145.579 460.5,144.5 Z"/></g>
<g><path style="opacity:1" fill="#5d9ec0" d="M 772.5,129.5 C 772.178,135.358 772.511,141.025 773.5,146.5C 788.5,146.5 803.5,146.5 818.5,146.5C 818.5,182.167 818.5,217.833 818.5,253.5C 817.833,218.167 817.167,182.833 816.5,147.5C 801.324,147.829 786.324,147.496 771.5,146.5C 771.178,140.642 771.511,134.975 772.5,129.5 Z"/></g>
<g><path style="opacity:1" fill="#578fad" d="M 881.5,146.5 C 881.833,146.5 882.167,146.5 882.5,146.5C 868.01,147.496 853.343,147.829 838.5,147.5C 838.832,183.004 838.498,218.337 837.5,253.5C 837.5,218.167 837.5,182.833 837.5,147.5C 851.99,146.504 866.657,146.171 881.5,146.5 Z"/></g>
<g><path style="opacity:1" fill="#56a8d1" d="M 837.5,147.5 C 837.5,182.833 837.5,218.167 837.5,253.5C 831.355,254.49 825.022,254.823 818.5,254.5C 818.5,254.167 818.5,253.833 818.5,253.5C 824.5,253.5 830.5,253.5 836.5,253.5C 836.168,217.996 836.502,182.663 837.5,147.5 Z"/></g>
<g><path style="opacity:1" fill="#58a0c3" d="M 305.5,146.5 C 307.967,146.755 309.967,147.755 311.5,149.5C 309.033,149.245 307.033,148.245 305.5,146.5 Z"/></g>
<g><path style="opacity:1" fill="#5993b1" d="M 727.5,149.5 C 725.518,149.005 723.518,148.505 721.5,148C 705.837,147.5 690.17,147.333 674.5,147.5C 674.5,160.833 674.5,174.167 674.5,187.5C 674.167,187.5 673.833,187.5 673.5,187.5C 673.5,173.833 673.5,160.167 673.5,146.5C 689.837,146.333 706.17,146.5 722.5,147C 724.653,147.099 726.319,147.933 727.5,149.5 Z"/></g>
<g><path style="opacity:1" fill="#4d7188" d="M 727.5,149.5 C 736.932,155.153 740.265,163.486 737.5,174.5C 735.592,175.486 734.592,177.152 734.5,179.5C 732.142,181.529 729.808,183.529 727.5,185.5C 725.897,185.312 724.563,185.812 723.5,187C 707.17,187.5 690.837,187.667 674.5,187.5C 674.5,174.167 674.5,160.833 674.5,147.5C 690.17,147.333 705.837,147.5 721.5,148C 723.518,148.505 725.518,149.005 727.5,149.5 Z"/></g>
<g><path style="opacity:1" fill="#63889e" d="M 816.5,147.5 C 817.167,182.833 817.833,218.167 818.5,253.5C 818.5,253.833 818.5,254.167 818.5,254.5C 816.506,219.182 815.84,183.516 816.5,147.5 Z"/></g>
<g><path style="opacity:1" fill="#5791af" d="M 241.5,148.5 C 240.795,151.354 239.795,154.021 238.5,156.5C 238.307,153.189 239.307,150.522 241.5,148.5 Z"/></g>
<g><path style="opacity:1" fill="#589dc1" d="M 552.5,151.5 C 552.245,153.967 551.245,155.967 549.5,157.5C 549.755,155.033 550.755,153.033 552.5,151.5 Z"/></g>
<g><path style="opacity:1" fill="#4e728a" d="M 576.5,162.5 C 576.592,164.848 577.592,166.514 579.5,167.5C 580.352,172.195 582.019,176.528 584.5,180.5C 584.12,182.698 584.787,184.365 586.5,185.5C 587.338,185.842 587.672,186.508 587.5,187.5C 587.755,189.967 588.755,191.967 590.5,193.5C 592.06,195.954 593.06,198.62 593.5,201.5C 593.539,202.583 593.873,203.583 594.5,204.5C 579.339,205.826 564.339,205.826 549.5,204.5C 550.448,201.86 551.448,199.193 552.5,196.5C 554.25,195.341 555.25,193.674 555.5,191.5C 559.676,182.729 563.343,173.729 566.5,164.5C 568.25,163.341 569.25,161.674 569.5,159.5C 569.447,156.939 570.447,154.939 572.5,153.5C 574.881,156.063 576.214,159.063 576.5,162.5 Z"/></g>
<g><path style="opacity:1" fill="#5aa1c5" d="M 753.5,149.5 C 755.38,151.755 756.38,154.422 756.5,157.5C 754.62,155.245 753.62,152.578 753.5,149.5 Z"/></g>
<g><path style="opacity:1" fill="#5aa5c9" d="M 374.5,162.5 C 372.836,192.653 371.836,222.986 371.5,253.5C 371.167,222.493 371.5,191.493 372.5,160.5C 373.522,160.855 374.189,161.522 374.5,162.5 Z"/></g>
<g><path style="opacity:1" fill="#58a7cc" d="M 489.5,253.5 C 489.833,253.5 490.167,253.5 490.5,253.5C 484.021,254.491 477.354,254.824 470.5,254.5C 470.667,223.832 470.5,193.165 470,162.5C 469.617,163.056 469.117,163.389 468.5,163.5C 468.415,162.005 469.081,161.005 470.5,160.5C 471.5,191.493 471.833,222.493 471.5,253.5C 477.5,253.5 483.5,253.5 489.5,253.5 Z"/></g>
<g><path style="opacity:1" fill="#5895b4" d="M 569.5,159.5 C 569.25,161.674 568.25,163.341 566.5,164.5C 566.592,162.152 567.592,160.486 569.5,159.5 Z"/></g>
<g><path style="opacity:1" fill="#5588a3" d="M 374.5,162.5 C 374.5,163.167 374.5,163.833 374.5,164.5C 374.164,194.681 373.164,224.681 371.5,254.5C 371.5,254.167 371.5,253.833 371.5,253.5C 371.836,222.986 372.836,192.653 374.5,162.5 Z"/></g>
<g><path style="opacity:1" fill="#5a9dc0" d="M 576.5,162.5 C 578.25,163.659 579.25,165.326 579.5,167.5C 577.592,166.514 576.592,164.848 576.5,162.5 Z"/></g>
<g><path style="opacity:1" fill="#5aaad3" d="M 756.5,157.5 C 757.654,163.987 757.821,170.654 757,177.5C 756.722,178.416 756.222,179.082 755.5,179.5C 756.35,172.201 756.683,164.868 756.5,157.5 Z"/></g>
<g><path style="opacity:1" fill="#5692b0" d="M 549.5,158.5 C 548.341,162.972 546.341,166.972 543.5,170.5C 543.519,168.94 543.852,167.44 544.5,166C 545.91,163.138 547.577,160.638 549.5,158.5 Z"/></g>
<g><path style="opacity:1" fill="#589bbd" d="M 466.5,166.5 C 465.277,170.049 463.277,173.049 460.5,175.5C 461.723,171.951 463.723,168.951 466.5,166.5 Z"/></g>
<g><path style="opacity:1" fill="#599fc2" d="M 442.5,170.5 C 441.277,174.049 439.277,177.049 436.5,179.5C 437.723,175.951 439.723,172.951 442.5,170.5 Z"/></g>
<g><path style="opacity:1" fill="#58a4cb" d="M 737.5,174.5 C 737.25,176.674 736.25,178.341 734.5,179.5C 734.592,177.152 735.592,175.486 737.5,174.5 Z"/></g>
<g><path style="opacity:1" fill="#5588a4" d="M 238.5,170.5 C 239.963,174.208 241.63,177.874 243.5,181.5C 239.758,178.937 238.091,175.27 238.5,170.5 Z"/></g>
<g><path style="opacity:1" fill="#5891af" d="M 269.5,177.5 C 272.811,177.883 275.811,178.883 278.5,180.5C 275.008,180.554 272.008,179.554 269.5,177.5 Z"/></g>
<g><path style="opacity:1" fill="#588eab" d="M 279.5,180.5 C 283.702,181.132 287.702,182.132 291.5,183.5C 290.833,183.5 290.167,183.5 289.5,183.5C 285.584,183.975 282.251,182.975 279.5,180.5 Z"/></g>
<g><path style="opacity:1" fill="#5891b0" d="M 584.5,180.5 C 586.213,181.635 586.88,183.302 586.5,185.5C 584.787,184.365 584.12,182.698 584.5,180.5 Z"/></g>
<g><path style="opacity:1" fill="#578fae" d="M 454.5,184.5 C 453.66,186.853 452.326,188.853 450.5,190.5C 450.845,187.802 452.178,185.802 454.5,184.5 Z"/></g>
<g><path style="opacity:1" fill="#59a5cb" d="M 755.5,180.5 C 755.065,183.157 754.065,185.491 752.5,187.5C 752.552,184.654 753.552,182.32 755.5,180.5 Z"/></g>
<g><path style="opacity:1" fill="#55a5ce" d="M 727.5,185.5 C 727.196,186.15 726.863,186.817 726.5,187.5C 708.671,188.827 691.005,188.827 673.5,187.5C 673.833,187.5 674.167,187.5 674.5,187.5C 690.837,187.667 707.17,187.5 723.5,187C 724.563,185.812 725.897,185.312 727.5,185.5 Z"/></g>
<g><path style="opacity:1" fill="#5aabd3" d="M 289.5,183.5 C 290.167,183.5 290.833,183.5 291.5,183.5C 297.73,185.258 304.064,187.091 310.5,189C 311.056,189.383 311.389,189.883 311.5,190.5C 304.402,189.096 297.402,187.263 290.5,185C 289.944,184.617 289.611,184.117 289.5,183.5 Z"/></g>
<g><path style="opacity:1" fill="#59a6cc" d="M 433.5,183.5 C 432.702,185.966 431.369,187.966 429.5,189.5C 429.845,186.802 431.178,184.802 433.5,183.5 Z"/></g>
<g><path style="opacity:1" fill="#599cbe" d="M 587.5,187.5 C 589.245,189.033 590.245,191.033 590.5,193.5C 588.755,191.967 587.755,189.967 587.5,187.5 Z"/></g>
<g><path style="opacity:1" fill="#5aa2c6" d="M 535.5,190.5 C 535.25,192.674 534.25,194.341 532.5,195.5C 532.592,193.152 533.592,191.486 535.5,190.5 Z"/></g>
<g><path style="opacity:1" fill="#568eac" d="M 259.5,193.5 C 262.397,194.129 265.064,195.129 267.5,196.5C 264.284,196.655 261.617,195.655 259.5,193.5 Z"/></g>
<g><path style="opacity:1" fill="#5893b2" d="M 555.5,191.5 C 555.25,193.674 554.25,195.341 552.5,196.5C 552.592,194.152 553.592,192.486 555.5,191.5 Z"/></g>
<g><path style="opacity:1" fill="#558aa6" d="M 751.5,189.5 C 750.27,191.297 749.604,193.297 749.5,195.5C 746.363,198.233 742.696,200.233 738.5,201.5C 742.825,197.544 747.159,193.544 751.5,189.5 Z"/></g>
<g><path style="opacity:1" fill="#59aed8" d="M 429.5,189.5 C 428.412,194.02 426.079,197.687 422.5,200.5C 423.773,197.391 425.273,194.391 427,191.5C 427.708,190.619 428.542,189.953 429.5,189.5 Z"/></g>
<g><path style="opacity:1" fill="#5aacd5" d="M 608.5,188.5 C 611.035,192.907 613.035,197.573 614.5,202.5C 613.058,199.828 611.391,197.162 609.5,194.5C 608.844,192.547 608.511,190.547 608.5,188.5 Z"/></g>
<g><path style="opacity:1" fill="#5794b4" d="M 447.5,194.5 C 446.66,196.853 445.326,198.853 443.5,200.5C 443.845,197.802 445.178,195.802 447.5,194.5 Z"/></g>
<g><path style="opacity:1" fill="#5891af" d="M 272.5,197.5 C 275.397,198.129 278.064,199.129 280.5,200.5C 277.284,200.655 274.617,199.655 272.5,197.5 Z"/></g>
<g><path style="opacity:1" fill="#579ec2" d="M 593.5,201.5 C 595.213,202.635 595.88,204.302 595.5,206.5C 579.819,206.833 564.152,206.499 548.5,205.5C 548.624,204.893 548.957,204.56 549.5,204.5C 564.339,205.826 579.339,205.826 594.5,204.5C 593.873,203.583 593.539,202.583 593.5,201.5 Z"/></g>
<g><path style="opacity:1" fill="#589abb" d="M 442.5,201.5 C 441.277,205.049 439.277,208.049 436.5,210.5C 437.723,206.951 439.723,203.951 442.5,201.5 Z"/></g>
<g><path style="opacity:1" fill="#5792b0" d="M 713.5,206.5 C 700.5,206.5 687.5,206.5 674.5,206.5C 674.83,222.342 674.496,238.009 673.5,253.5C 673.5,237.5 673.5,221.5 673.5,205.5C 687.01,205.171 700.344,205.504 713.5,206.5 Z"/></g>
<g><path style="opacity:1" fill="#58a0c4" d="M 528.5,205.5 C 528.245,207.967 527.245,209.967 525.5,211.5C 525.755,209.033 526.755,207.033 528.5,205.5 Z"/></g>
<g><path style="opacity:1" fill="#568aa7" d="M 310.5,212.5 C 311.117,212.611 311.617,212.944 312,213.5C 313.817,218.472 313.817,223.472 312,228.5C 311.623,229.942 310.79,230.942 309.5,231.5C 311.72,225.293 312.054,218.96 310.5,212.5 Z"/></g>
<g><path style="opacity:1" fill="#5aa6cd" d="M 331.5,208.5 C 332.654,214.987 332.821,221.654 332,228.5C 331.617,229.056 331.117,229.389 330.5,229.5C 331.427,222.557 331.76,215.557 331.5,208.5 Z"/></g>
<g><path style="opacity:1" fill="#64a5c5" d="M 603.5,224.5 C 582.5,224.5 561.5,224.5 540.5,224.5C 550.645,223.168 561.145,222.501 572,222.5C 582.855,222.501 593.355,223.168 603.5,224.5 Z"/></g>
<g><path style="opacity:1" fill="#5689a5" d="M 721.5,221.5 C 725.031,225.071 727.364,229.404 728.5,234.5C 726.581,231.958 724.748,229.291 723,226.5C 722.392,224.846 721.892,223.179 721.5,221.5 Z"/></g>
<g><path style="opacity:1" fill="#5796b7" d="M 425.5,225.5 C 425.701,229.36 424.035,231.194 420.5,231C 419.944,230.617 419.611,230.117 419.5,229.5C 420.496,229.414 421.329,229.748 422,230.5C 423.189,228.767 424.356,227.1 425.5,225.5 Z"/></g>
<g><path style="opacity:1" fill="#59a5c9" d="M 240.5,228.5 C 240.245,230.967 239.245,232.967 237.5,234.5C 237.755,232.033 238.755,230.033 240.5,228.5 Z"/></g>
<g><path style="opacity:1" fill="#5aa3c7" d="M 309.5,231.5 C 308.267,233.796 306.267,235.13 303.5,235.5C 305.118,233.684 307.118,232.351 309.5,231.5 Z"/></g>
<g><path style="opacity:1" fill="#578ca9" d="M 263.5,235.5 C 276.51,238.11 289.51,238.11 302.5,235.5C 301.319,237.067 299.653,237.901 297.5,238C 286.428,240.161 275.428,239.827 264.5,237C 263.944,236.617 263.611,236.117 263.5,235.5 Z"/></g>
<g><path style="opacity:1" fill="#568daa" d="M 628.5,234.5 C 631.973,237.607 633.973,241.607 634.5,246.5C 632.504,242.59 630.504,238.59 628.5,234.5 Z"/></g>
<g><path style="opacity:1" fill="#568da9" d="M 328.5,237.5 C 326.5,241.5 323.5,244.5 319.5,246.5C 322.167,243.167 325.167,240.167 328.5,237.5 Z"/></g>
<g><path style="opacity:1" fill="#5a97b6" d="M 515.5,234.5 C 514.722,237.539 513.388,240.206 511.5,242.5C 511.912,239.198 513.245,236.531 515.5,234.5 Z"/></g>
<g><path style="opacity:1" fill="#58a6cc" d="M 244.5,246.5 C 246.698,246.12 248.365,246.787 249.5,248.5C 247.302,248.88 245.635,248.213 244.5,246.5 Z"/></g>
<g><path style="opacity:1" fill="#588fac" d="M 734.5,244.5 C 736.245,246.033 737.245,248.033 737.5,250.5C 735.755,248.967 734.755,246.967 734.5,244.5 Z"/></g>
<g><path style="opacity:1" fill="#5aa5cb" d="M 251.5,249.5 C 254.811,249.883 257.811,250.883 260.5,252.5C 257.008,252.554 254.008,251.554 251.5,249.5 Z"/></g>
<g><path style="opacity:1" fill="#5992af" d="M 313.5,249.5 C 312.652,251.093 311.319,252.26 309.5,253C 305.246,254.265 300.912,255.098 296.5,255.5C 296.5,255.167 296.5,254.833 296.5,254.5C 302.372,253.721 308.039,252.054 313.5,249.5 Z"/></g>
<g><path style="opacity:1" fill="#5797b8" d="M 508.5,250.5 C 508.196,251.15 507.863,251.817 507.5,252.5C 514.468,253.497 521.468,253.83 528.5,253.5C 521.352,254.492 514.019,254.825 506.5,254.5C 506.157,252.517 506.824,251.183 508.5,250.5 Z"/></g>
<g><path style="opacity:1" fill="#5799bb" d="M 636.5,250.5 C 637.434,251.568 637.768,252.901 637.5,254.5C 630.313,254.825 623.313,254.491 616.5,253.5C 623.167,253.5 629.833,253.5 636.5,253.5C 636.5,252.5 636.5,251.5 636.5,250.5 Z"/></g>
<g><path style="opacity:1" fill="#589abc" d="M 759.5,251.5 C 760.478,251.811 761.145,252.478 761.5,253.5C 754.01,254.819 746.677,254.819 739.5,253.5C 746.584,254.126 753.25,253.459 759.5,251.5 Z"/></g>
<g><path style="opacity:1" fill="#5ab1dd" d="M 261.5,252.5 C 273.093,254.192 284.76,254.858 296.5,254.5C 296.5,254.833 296.5,255.167 296.5,255.5C 295.167,255.5 293.833,255.5 292.5,255.5C 286.833,255.5 281.167,255.5 275.5,255.5C 270.404,255.956 265.738,254.956 261.5,252.5 Z"/></g>
<g><path style="opacity:1" fill="#59859d" d="M 275.5,255.5 C 281.167,255.5 286.833,255.5 292.5,255.5C 292.389,256.117 292.056,256.617 291.5,257C 286.5,257.667 281.5,257.667 276.5,257C 275.944,256.617 275.611,256.117 275.5,255.5 Z"/></g>
<g><path style="opacity:1" fill="#589abc" d="M 310.5,282.5 C 299.76,280.994 289.093,281.327 278.5,283.5C 278.611,282.883 278.944,282.383 279.5,282C 285.127,281.069 290.794,280.569 296.5,280.5C 301.437,280.3 306.104,280.967 310.5,282.5 Z"/></g>
<g><path style="opacity:1" fill="#5897b8" d="M 730.5,282.5 C 719.418,280.881 708.418,281.214 697.5,283.5C 697.611,282.883 697.944,282.383 698.5,282C 704.12,281.017 709.787,280.517 715.5,280.5C 720.767,280.287 725.767,280.954 730.5,282.5 Z"/></g>
<g><path style="opacity:1" fill="#578aa6" d="M 594.5,283.5 C 581.819,280.864 569.153,280.864 556.5,283.5C 557.152,282.275 558.319,281.608 560,281.5C 569.815,280.424 579.648,280.257 589.5,281C 591.653,281.099 593.319,281.933 594.5,283.5 Z"/></g>
<g><path style="opacity:1" fill="#59c1f5" d="M 310.5,282.5 C 329.159,286.784 343.159,297.118 352.5,313.5C 353.611,316.856 355.277,319.856 357.5,322.5C 357.629,324.216 357.962,325.883 358.5,327.5C 359.229,332.13 359.563,336.797 359.5,341.5C 359.5,345.167 359.5,348.833 359.5,352.5C 322.996,352.168 286.663,352.502 250.5,353.5C 250.263,354.791 250.596,355.791 251.5,356.5C 251.41,359.152 252.076,361.485 253.5,363.5C 253.025,366.313 254.025,368.313 256.5,369.5C 259.589,373.768 262.923,377.934 266.5,382C 272.946,385.439 279.613,388.273 286.5,390.5C 293.655,391.655 300.988,391.822 308.5,391C 309.737,390.768 310.737,390.268 311.5,389.5C 312.167,389.5 312.833,389.5 313.5,389.5C 316.157,389.065 318.491,388.065 320.5,386.5C 326.13,382.761 331.297,378.428 336,373.5C 341.451,376.805 346.617,380.472 351.5,384.5C 345.255,391.245 338.255,397.079 330.5,402C 326.08,404.25 321.413,405.75 316.5,406.5C 306.248,408.179 295.914,408.846 285.5,408.5C 283.095,407.232 280.428,406.565 277.5,406.5C 274.811,404.883 271.811,403.883 268.5,403.5C 266.967,401.755 264.967,400.755 262.5,400.5C 251.843,394.51 243.51,386.176 237.5,375.5C 237.245,373.033 236.245,371.033 234.5,369.5C 234.5,369.167 234.5,368.833 234.5,368.5C 233.962,366.883 233.629,365.216 233.5,363.5C 230.895,350.52 230.895,337.52 233.5,324.5C 233.5,324.167 233.5,323.833 233.5,323.5C 235.718,321.349 237.052,318.682 237.5,315.5C 237.953,311.973 239.453,308.973 242,306.5C 246.061,302.194 250.228,298.027 254.5,294C 259.556,291.26 264.556,288.426 269.5,285.5C 272.391,284.322 275.391,283.655 278.5,283.5C 289.093,281.327 299.76,280.994 310.5,282.5 Z"/></g>
<g><path style="opacity:1" fill="#59c1f4" d="M 594.5,283.5 C 606.434,286.799 616.434,293.133 624.5,302.5C 620.143,306.358 615.976,310.358 612,314.5C 605.039,307.886 596.872,303.219 587.5,300.5C 586.737,299.732 585.737,299.232 584.5,299C 577.5,298.333 570.5,298.333 563.5,299C 562.944,299.383 562.611,299.883 562.5,300.5C 561.833,300.5 561.167,300.5 560.5,300.5C 557.279,300.896 554.612,302.229 552.5,304.5C 550.066,305.985 547.733,307.652 545.5,309.5C 542.5,310.5 540.5,312.5 539.5,315.5C 537.457,316.579 536.124,318.246 535.5,320.5C 533.166,322.176 532.166,324.509 532.5,327.5C 531.833,328.833 531.167,330.167 530.5,331.5C 529.105,335.754 528.439,340.254 528.5,345C 528.304,348.805 528.97,352.305 530.5,355.5C 534.839,372.882 545.506,384.216 562.5,389.5C 562.918,390.222 563.584,390.722 564.5,391C 568.333,391.167 572.167,391.333 576,391.5C 581.432,391.719 586.599,391.052 591.5,389.5C 593.927,389.477 596.26,388.977 598.5,388C 601.405,386.243 604.072,384.41 606.5,382.5C 607.167,382.167 607.833,381.833 608.5,381.5C 609.492,373.684 609.826,365.684 609.5,357.5C 599.167,357.5 588.833,357.5 578.5,357.5C 577.511,352.025 577.178,346.358 577.5,340.5C 594.5,340.5 611.5,340.5 628.5,340.5C 628.817,356.578 628.484,372.578 627.5,388.5C 623.308,392.087 618.975,395.42 614.5,398.5C 609.404,400.081 604.737,402.414 600.5,405.5C 598.784,405.629 597.117,405.962 595.5,406.5C 583.875,408.551 572.208,408.884 560.5,407.5C 559.167,407.167 557.833,406.833 556.5,406.5C 551.512,404.523 546.512,402.523 541.5,400.5C 538.525,399.345 535.858,397.678 533.5,395.5C 529.467,391.493 525.467,387.493 521.5,383.5C 519.483,380.126 517.483,376.793 515.5,373.5C 513.888,369.942 512.555,366.275 511.5,362.5C 510.211,350.814 510.211,339.147 511.5,327.5C 511.415,324.351 512.415,321.684 514.5,319.5C 516.828,315.54 519.161,311.54 521.5,307.5C 529.917,294.789 541.583,286.789 556.5,283.5C 569.153,280.864 581.819,280.864 594.5,283.5 Z"/></g>
<g><path style="opacity:1" fill="#59c1f4" d="M 730.5,282.5 C 732.435,283.15 734.435,283.483 736.5,283.5C 738.033,285.245 740.033,286.245 742.5,286.5C 757.71,292.377 768.71,302.711 775.5,317.5C 775.755,319.967 776.755,321.967 778.5,323.5C 778.5,324.167 778.5,324.833 778.5,325.5C 780.162,334.4 780.828,343.4 780.5,352.5C 743.833,352.5 707.167,352.5 670.5,352.5C 670.336,355.187 670.503,357.854 671,360.5C 671.383,361.056 671.883,361.389 672.5,361.5C 672.755,363.967 673.755,365.967 675.5,367.5C 682.789,380.121 693.455,387.787 707.5,390.5C 714.655,391.655 721.988,391.822 729.5,391C 730.056,390.617 730.389,390.117 730.5,389.5C 731.167,389.5 731.833,389.5 732.5,389.5C 735.491,389.834 737.824,388.834 739.5,386.5C 739.833,386.5 740.167,386.5 740.5,386.5C 743.317,385.905 745.65,384.572 747.5,382.5C 750.223,379.078 753.39,376.078 757,373.5C 761.189,377.008 765.689,380.175 770.5,383C 771.731,384.183 771.731,385.349 770.5,386.5C 767.121,389.551 763.788,392.551 760.5,395.5C 758.118,396.351 756.118,397.684 754.5,399.5C 749.127,402.406 743.46,404.739 737.5,406.5C 734.273,406.676 731.273,407.343 728.5,408.5C 716.655,409.146 704.988,408.146 693.5,405.5C 685.224,402.643 677.891,398.31 671.5,392.5C 669.5,389.833 667.167,387.5 664.5,385.5C 656.844,375.874 652.51,364.874 651.5,352.5C 651.5,346.5 651.5,340.5 651.5,334.5C 651.993,332.194 652.326,329.861 652.5,327.5C 653.736,325.351 654.736,323.018 655.5,320.5C 655.5,320.167 655.5,319.833 655.5,319.5C 657.771,317.388 659.104,314.721 659.5,311.5C 661.587,310.415 662.92,308.749 663.5,306.5C 669.921,296.951 678.588,290.285 689.5,286.5C 692.486,286.097 695.152,285.097 697.5,283.5C 708.418,281.214 719.418,280.881 730.5,282.5 Z"/></g>
<g><path style="opacity:1" fill="#5b8ba4" d="M 382.5,282.5 C 382.168,324.003 382.501,365.337 383.5,406.5C 403.503,406.667 423.503,406.5 443.5,406C 446.802,404.974 450.135,404.14 453.5,403.5C 450.588,406.518 446.921,408.018 442.5,408C 422.26,408.826 402.094,408.659 382,407.5C 381.169,365.665 381.335,323.998 382.5,282.5 Z"/></g>
<g><path style="opacity:1" fill="#5aa7ce" d="M 382.5,282.5 C 401.674,282.17 420.674,282.503 439.5,283.5C 420.833,283.5 402.167,283.5 383.5,283.5C 383.5,324.5 383.5,365.5 383.5,406.5C 382.501,365.337 382.168,324.003 382.5,282.5 Z"/></g>
<g><path style="opacity:1" fill="#59c1f4" d="M 439.5,283.5 C 442.57,283.368 445.57,283.701 448.5,284.5C 450.102,286.074 452.102,286.741 454.5,286.5C 455.659,288.25 457.326,289.25 459.5,289.5C 476.259,297.253 487.259,309.92 492.5,327.5C 492.5,328.833 492.5,330.167 492.5,331.5C 493.767,341.492 493.767,351.492 492.5,361.5C 491.469,363.961 490.802,366.627 490.5,369.5C 488.592,370.486 487.592,372.152 487.5,374.5C 487.5,375.167 487.167,375.5 486.5,375.5C 483.256,379.651 480.256,383.984 477.5,388.5C 474.847,390.155 472.514,392.155 470.5,394.5C 467.815,396.462 464.815,397.962 461.5,399C 460.619,399.708 459.953,400.542 459.5,401.5C 457.5,402.167 455.5,402.833 453.5,403.5C 450.135,404.14 446.802,404.974 443.5,406C 423.503,406.5 403.503,406.667 383.5,406.5C 383.5,365.5 383.5,324.5 383.5,283.5C 402.167,283.5 420.833,283.5 439.5,283.5 Z"/></g>
<g><path style="opacity:1" fill="#578fad" d="M 448.5,284.5 C 450.898,284.259 452.898,284.926 454.5,286.5C 452.102,286.741 450.102,286.074 448.5,284.5 Z"/></g>
<g><path style="opacity:1" fill="#589cbf" d="M 697.5,283.5 C 695.152,285.097 692.486,286.097 689.5,286.5C 691.522,284.307 694.189,283.307 697.5,283.5 Z"/></g>
<g><path style="opacity:1" fill="#5999b9" d="M 736.5,283.5 C 738.967,283.755 740.967,284.755 742.5,286.5C 740.033,286.245 738.033,285.245 736.5,283.5 Z"/></g>
<g><path style="opacity:1" fill="#59a0c3" d="M 454.5,286.5 C 456.848,286.592 458.514,287.592 459.5,289.5C 457.326,289.25 455.659,288.25 454.5,286.5 Z"/></g>
<g><path style="opacity:1" fill="#59a6cc" d="M 286.5,299.5 C 292.653,298.347 298.986,298.18 305.5,299C 306.737,299.232 307.737,299.732 308.5,300.5C 301.201,299.65 293.868,299.317 286.5,299.5 Z"/></g>
<g><path style="opacity:1" fill="#579fc4" d="M 587.5,300.5 C 579.147,299.235 570.813,299.235 562.5,300.5C 562.611,299.883 562.944,299.383 563.5,299C 570.5,298.333 577.5,298.333 584.5,299C 585.737,299.232 586.737,299.732 587.5,300.5 Z"/></g>
<g><path style="opacity:1" fill="#57a3ca" d="M 729.5,300.5 C 722.869,299.669 716.202,299.336 709.5,299.5C 707.435,299.517 705.435,299.85 703.5,300.5C 703.611,299.883 703.944,299.383 704.5,299C 712.167,298.333 719.833,298.333 727.5,299C 728.416,299.278 729.082,299.778 729.5,300.5 Z"/></g>
<g><path style="opacity:1" fill="#4d7189" d="M 286.5,299.5 C 293.868,299.317 301.201,299.65 308.5,300.5C 319.27,303.916 328.104,310.249 335,319.5C 335.898,322.069 337.065,324.402 338.5,326.5C 338.5,329.5 338.5,332.5 338.5,335.5C 309.833,335.5 281.167,335.5 252.5,335.5C 252.851,332.097 253.518,328.763 254.5,325.5C 256.469,319.218 260.136,314.218 265.5,310.5C 270.672,307.678 275.672,304.678 280.5,301.5C 282.5,300.833 284.5,300.167 286.5,299.5 Z"/></g>
<g><path style="opacity:1" fill="#4d7188" d="M 709.5,299.5 C 716.202,299.336 722.869,299.669 729.5,300.5C 729.833,300.5 730.167,300.5 730.5,300.5C 732.033,302.245 734.033,303.245 736.5,303.5C 746.974,308.64 754.308,316.64 758.5,327.5C 758.833,330.167 759.167,332.833 759.5,335.5C 730.167,335.5 700.833,335.5 671.5,335.5C 671.833,333.5 672.167,331.5 672.5,329.5C 674.771,327.388 676.104,324.721 676.5,321.5C 681.073,312.588 688.073,306.588 697.5,303.5C 701.048,302.241 704.715,301.407 708.5,301C 709.056,300.617 709.389,300.117 709.5,299.5 Z"/></g>
<g><path style="opacity:1" fill="#5687a2" d="M 709.5,299.5 C 709.389,300.117 709.056,300.617 708.5,301C 704.715,301.407 701.048,302.241 697.5,303.5C 698.911,301.461 700.911,300.461 703.5,300.5C 705.435,299.85 707.435,299.517 709.5,299.5 Z"/></g>
<g><path style="opacity:1" fill="#5686a0" d="M 438.5,301.5 C 426.833,301.5 415.167,301.5 403.5,301.5C 403.5,330.5 403.5,359.5 403.5,388.5C 415.5,388.5 427.5,388.5 439.5,388.5C 427.345,389.495 415.011,389.829 402.5,389.5C 402.5,359.833 402.5,330.167 402.5,300.5C 414.678,300.172 426.678,300.505 438.5,301.5 Z"/></g>
<g><path style="opacity:1" fill="#4d7188" d="M 438.5,301.5 C 440.167,301.5 441.833,301.5 443.5,301.5C 444.635,303.213 446.302,303.88 448.5,303.5C 459.404,307.74 467.404,315.074 472.5,325.5C 472.575,328.407 473.409,331.073 475,333.5C 475.5,340.826 475.666,348.159 475.5,355.5C 474.149,359.883 472.483,364.216 470.5,368.5C 466.862,372.474 463.195,376.474 459.5,380.5C 457.973,380.427 456.973,381.094 456.5,382.5C 454.326,382.75 452.659,383.75 451.5,385.5C 447.484,386.512 443.484,387.512 439.5,388.5C 427.5,388.5 415.5,388.5 403.5,388.5C 403.5,359.5 403.5,330.5 403.5,301.5C 415.167,301.5 426.833,301.5 438.5,301.5 Z"/></g>
<g><path style="opacity:1" fill="#59a4ca" d="M 443.5,301.5 C 445.698,301.12 447.365,301.787 448.5,303.5C 446.302,303.88 444.635,303.213 443.5,301.5 Z"/></g>
<g><path style="opacity:1" fill="#59a3c8" d="M 730.5,300.5 C 732.967,300.755 734.967,301.755 736.5,303.5C 734.033,303.245 732.033,302.245 730.5,300.5 Z"/></g>
<g><path style="opacity:1" fill="#599abc" d="M 560.5,300.5 C 558.388,302.771 555.721,304.104 552.5,304.5C 554.612,302.229 557.279,300.896 560.5,300.5 Z"/></g>
<g><path style="opacity:1" fill="#5790ae" d="M 280.5,301.5 C 275.672,304.678 270.672,307.678 265.5,310.5C 269.36,305.731 274.36,302.731 280.5,301.5 Z"/></g>
<g><path style="opacity:1" fill="#5aa1c5" d="M 663.5,306.5 C 662.92,308.749 661.587,310.415 659.5,311.5C 660.08,309.251 661.413,307.585 663.5,306.5 Z"/></g>
<g><path style="opacity:1" fill="#5596b7" d="M 545.5,309.5 C 543.833,311.833 541.833,313.833 539.5,315.5C 540.5,312.5 542.5,310.5 545.5,309.5 Z"/></g>
<g><path style="opacity:1" fill="#59a5cb" d="M 352.5,313.5 C 355.444,315.716 357.111,318.716 357.5,322.5C 355.277,319.856 353.611,316.856 352.5,313.5 Z"/></g>
<g><path style="opacity:1" fill="#58aad2" d="M 521.5,307.5 C 519.161,311.54 516.828,315.54 514.5,319.5C 515.342,314.463 517.675,310.463 521.5,307.5 Z"/></g>
<g><path style="opacity:1" fill="#59a2c7" d="M 659.5,311.5 C 659.104,314.721 657.771,317.388 655.5,319.5C 655.896,316.279 657.229,313.612 659.5,311.5 Z"/></g>
<g><path style="opacity:1" fill="#58a6cd" d="M 237.5,315.5 C 237.052,318.682 235.718,321.349 233.5,323.5C 233.912,320.198 235.245,317.531 237.5,315.5 Z"/></g>
<g><path style="opacity:1" fill="#5a98b8" d="M 775.5,317.5 C 777.245,319.033 778.245,321.033 778.5,323.5C 776.755,321.967 775.755,319.967 775.5,317.5 Z"/></g>
<g><path style="opacity:1" fill="#589abd" d="M 655.5,320.5 C 654.736,323.018 653.736,325.351 652.5,327.5C 652.179,324.423 653.179,322.09 655.5,320.5 Z"/></g>
<g><path style="opacity:1" fill="#5893b2" d="M 535.5,320.5 C 535.065,323.157 534.065,325.491 532.5,327.5C 532.166,324.509 533.166,322.176 535.5,320.5 Z"/></g>
<g><path style="opacity:1" fill="#5894b2" d="M 676.5,321.5 C 676.104,324.721 674.771,327.388 672.5,329.5C 672.896,326.279 674.229,323.612 676.5,321.5 Z"/></g>
<g><path style="opacity:1" fill="#5c98b7" d="M 492.5,327.5 C 493.924,329.515 494.59,331.848 494.5,334.5C 493.833,333.5 493.167,332.5 492.5,331.5C 492.5,330.167 492.5,328.833 492.5,327.5 Z"/></g>
<g><path style="opacity:1" fill="#5a8ca6" d="M 254.5,325.5 C 253.518,328.763 252.851,332.097 252.5,335.5C 281.167,335.5 309.833,335.5 338.5,335.5C 338.5,332.5 338.5,329.5 338.5,326.5C 340.011,329.544 340.678,332.878 340.5,336.5C 310.833,336.5 281.167,336.5 251.5,336.5C 251.5,335.167 251.5,333.833 251.5,332.5C 251.179,329.423 252.179,327.09 254.5,325.5 Z"/></g>
<g><path style="opacity:1" fill="#5a8ca6" d="M 758.5,327.5 C 760.074,329.102 760.741,331.102 760.5,333.5C 760.5,334.5 760.5,335.5 760.5,336.5C 730.833,336.5 701.167,336.5 671.5,336.5C 671.5,336.167 671.5,335.833 671.5,335.5C 700.833,335.5 730.167,335.5 759.5,335.5C 759.167,332.833 758.833,330.167 758.5,327.5 Z"/></g>
<g><path style="opacity:1" fill="#60a9cc" d="M 251.5,332.5 C 251.5,333.833 251.5,335.167 251.5,336.5C 281.167,336.5 310.833,336.5 340.5,336.5C 310.671,337.498 280.671,337.831 250.5,337.5C 250.216,335.585 250.549,333.919 251.5,332.5 Z"/></g>
<g><path style="opacity:1" fill="#60a9cc" d="M 760.5,333.5 C 761.434,334.568 761.768,335.901 761.5,337.5C 731.329,337.831 701.329,337.498 671.5,336.5C 701.167,336.5 730.833,336.5 760.5,336.5C 760.5,335.5 760.5,334.5 760.5,333.5 Z"/></g>
<g><path style="opacity:1" fill="#5baed8" d="M 233.5,324.5 C 230.895,337.52 230.895,350.52 233.5,363.5C 232.833,363.167 232.167,362.833 231.5,362.5C 229.12,351.876 228.954,341.209 231,330.5C 231.24,328.148 232.073,326.148 233.5,324.5 Z"/></g>
<g><path style="opacity:1" fill="#588eaa" d="M 472.5,325.5 C 473.375,327.568 474.541,329.568 476,331.5C 477.611,339.487 477.778,347.487 476.5,355.5C 476.167,355.5 475.833,355.5 475.5,355.5C 475.666,348.159 475.5,340.826 475,333.5C 473.409,331.073 472.575,328.407 472.5,325.5 Z"/></g>
<g><path style="opacity:1" fill="#6199b7" d="M 628.5,340.5 C 629.166,348.326 629.5,356.326 629.5,364.5C 629.498,372.862 628.831,380.862 627.5,388.5C 628.484,372.578 628.817,356.578 628.5,340.5 Z"/></g>
<g><path style="opacity:1" fill="#59a4c9" d="M 511.5,327.5 C 510.211,339.147 510.211,350.814 511.5,362.5C 509.532,356.807 508.532,350.807 508.5,344.5C 508.817,339.15 509.317,333.816 510,328.5C 510.383,327.944 510.883,327.611 511.5,327.5 Z"/></g>
<g><path style="opacity:1" fill="#59b3df" d="M 492.5,331.5 C 493.167,332.5 493.833,333.5 494.5,334.5C 494.666,342.174 494.5,349.841 494,357.5C 493.79,359.058 493.29,360.391 492.5,361.5C 493.767,351.492 493.767,341.492 492.5,331.5 Z"/></g>
<g><path style="opacity:1" fill="#57a2ca" d="M 778.5,325.5 C 780.13,327.026 780.963,329.026 781,331.5C 781.5,339.159 781.666,346.826 781.5,354.5C 744.833,354.5 708.167,354.5 671.5,354.5C 707.833,353.833 744.167,353.167 780.5,352.5C 780.828,343.4 780.162,334.4 778.5,325.5 Z"/></g>
<g><path style="opacity:1" fill="#5b8ea9" d="M 530.5,331.5 C 529.387,339.511 529.387,347.511 530.5,355.5C 528.97,352.305 528.304,348.805 528.5,345C 528.439,340.254 529.105,335.754 530.5,331.5 Z"/></g>
<g><path style="opacity:1" fill="#5ea9cc" d="M 651.5,334.5 C 651.5,340.5 651.5,346.5 651.5,352.5C 650.184,349.913 649.517,346.913 649.5,343.5C 649.517,340.087 650.184,337.087 651.5,334.5 Z"/></g>
<g><path style="opacity:1" fill="#5baad1" d="M 358.5,327.5 C 359.117,327.611 359.617,327.944 360,328.5C 361.612,336.295 361.778,343.961 360.5,351.5C 360.813,347.958 360.479,344.625 359.5,341.5C 359.563,336.797 359.229,332.13 358.5,327.5 Z"/></g>
<g><path style="opacity:1" fill="#57b6e7" d="M 359.5,341.5 C 360.479,344.625 360.813,347.958 360.5,351.5C 360.5,352.167 360.5,352.833 360.5,353.5C 323.833,353.5 287.167,353.5 250.5,353.5C 286.663,352.502 322.996,352.168 359.5,352.5C 359.5,348.833 359.5,345.167 359.5,341.5 Z"/></g>
<g><path style="opacity:1" fill="#57b5e5" d="M 780.5,352.5 C 744.167,353.167 707.833,353.833 671.5,354.5C 671.993,356.806 672.326,359.139 672.5,361.5C 671.883,361.389 671.383,361.056 671,360.5C 670.503,357.854 670.336,355.187 670.5,352.5C 707.167,352.5 743.833,352.5 780.5,352.5 Z"/></g>
<g><path style="opacity:1" fill="#5499c0" d="M 250.5,353.5 C 287.167,353.5 323.833,353.5 360.5,353.5C 323.989,353.835 287.655,354.835 251.5,356.5C 250.596,355.791 250.263,354.791 250.5,353.5 Z"/></g>
<g><path style="opacity:1" fill="#5698b9" d="M 578.5,357.5 C 588.833,357.5 599.167,357.5 609.5,357.5C 609.826,365.684 609.492,373.684 608.5,381.5C 608.5,373.833 608.5,366.167 608.5,358.5C 598.319,358.827 588.319,358.494 578.5,357.5 Z"/></g>
<g><path style="opacity:1" fill="#5a94b3" d="M 231.5,362.5 C 232.167,362.833 232.833,363.167 233.5,363.5C 233.629,365.216 233.962,366.883 234.5,368.5C 232.755,366.967 231.755,364.967 231.5,362.5 Z"/></g>
<g><path style="opacity:1" fill="#5aa7cd" d="M 253.5,363.5 C 254.492,365.456 255.492,367.456 256.5,369.5C 254.025,368.313 253.025,366.313 253.5,363.5 Z"/></g>
<g><path style="opacity:1" fill="#59a3c7" d="M 672.5,361.5 C 674.245,363.033 675.245,365.033 675.5,367.5C 673.755,365.967 672.755,363.967 672.5,361.5 Z"/></g>
<g><path style="opacity:1" fill="#59a5cc" d="M 475.5,355.5 C 475.833,355.5 476.167,355.5 476.5,355.5C 476.048,358.203 475.381,360.87 474.5,363.5C 473.165,365.201 471.832,366.868 470.5,368.5C 472.483,364.216 474.149,359.883 475.5,355.5 Z"/></g>
<g><path style="opacity:1" fill="#5791b0" d="M 490.5,369.5 C 490.25,371.674 489.25,373.341 487.5,374.5C 487.592,372.152 488.592,370.486 490.5,369.5 Z"/></g>
<g><path style="opacity:1" fill="#5a97b6" d="M 234.5,369.5 C 236.245,371.033 237.245,373.033 237.5,375.5C 235.755,373.967 234.755,371.967 234.5,369.5 Z"/></g>
<g><path style="opacity:1" fill="#5aa8ce" d="M 470.5,368.5 C 470.108,370.179 469.608,371.846 469,373.5C 465.937,376.076 462.771,378.409 459.5,380.5C 463.195,376.474 466.862,372.474 470.5,368.5 Z"/></g>
<g><path style="opacity:1" fill="#5486a2" d="M 515.5,373.5 C 517.483,376.793 519.483,380.126 521.5,383.5C 517.847,381.264 515.847,377.93 515.5,373.5 Z"/></g>
<g><path style="opacity:1" fill="#5aa7cd" d="M 456.5,382.5 C 455.514,384.408 453.848,385.408 451.5,385.5C 452.659,383.75 454.326,382.75 456.5,382.5 Z"/></g>
<g><path style="opacity:1" fill="#5891af" d="M 486.5,375.5 C 486.66,377.199 486.494,378.866 486,380.5C 483.35,383.316 480.516,385.982 477.5,388.5C 480.256,383.984 483.256,379.651 486.5,375.5 Z"/></g>
<g><path style="opacity:1" fill="#5996b5" d="M 747.5,382.5 C 745.65,384.572 743.317,385.905 740.5,386.5C 742.26,384.441 744.594,383.108 747.5,382.5 Z"/></g>
<g><path style="opacity:1" fill="#5792b0" d="M 664.5,385.5 C 667.167,387.5 669.5,389.833 671.5,392.5C 668.167,391.167 665.833,388.833 664.5,385.5 Z"/></g>
<g><path style="opacity:1" fill="#59a0c3" d="M 320.5,386.5 C 318.491,388.065 316.157,389.065 313.5,389.5C 315.09,387.179 317.423,386.179 320.5,386.5 Z"/></g>
<g><path style="opacity:1" fill="#5aacd4" d="M 606.5,382.5 C 604.072,384.41 601.405,386.243 598.5,388C 596.26,388.977 593.927,389.477 591.5,389.5C 596.256,386.769 601.256,384.436 606.5,382.5 Z"/></g>
<g><path style="opacity:1" fill="#5ca6ca" d="M 739.5,386.5 C 737.824,388.834 735.491,389.834 732.5,389.5C 734.509,387.935 736.843,386.935 739.5,386.5 Z"/></g>
<g><path style="opacity:1" fill="#5698ba" d="M 311.5,389.5 C 310.737,390.268 309.737,390.768 308.5,391C 300.988,391.822 293.655,391.655 286.5,390.5C 294.867,390.705 303.2,390.371 311.5,389.5 Z"/></g>
<g><path style="opacity:1" fill="#5aa6cc" d="M 562.5,389.5 C 572.154,390.678 581.821,390.678 591.5,389.5C 586.599,391.052 581.432,391.719 576,391.5C 572.167,391.333 568.333,391.167 564.5,391C 563.584,390.722 562.918,390.222 562.5,389.5 Z"/></g>
<g><path style="opacity:1" fill="#5897b7" d="M 730.5,389.5 C 730.389,390.117 730.056,390.617 729.5,391C 721.988,391.822 714.655,391.655 707.5,390.5C 715.201,390.691 722.868,390.358 730.5,389.5 Z"/></g>
<g><path style="opacity:1" fill="#5793b2" d="M 760.5,395.5 C 759.267,397.796 757.267,399.13 754.5,399.5C 756.118,397.684 758.118,396.351 760.5,395.5 Z"/></g>
<g><path style="opacity:1" fill="#5795b6" d="M 470.5,394.5 C 469.71,395.794 468.71,396.961 467.5,398C 464.664,398.921 461.998,400.088 459.5,401.5C 459.953,400.542 460.619,399.708 461.5,399C 464.815,397.962 467.815,396.462 470.5,394.5 Z"/></g>
<g><path style="opacity:1" fill="#59a4c9" d="M 262.5,400.5 C 264.967,400.755 266.967,401.755 268.5,403.5C 266.033,403.245 264.033,402.245 262.5,400.5 Z"/></g>
<g><path style="opacity:1" fill="#5aa3c8" d="M 268.5,403.5 C 271.811,403.883 274.811,404.883 277.5,406.5C 274.008,406.554 271.008,405.554 268.5,403.5 Z"/></g>
<g><path style="opacity:1" fill="#5aa5ca" d="M 541.5,400.5 C 546.512,402.523 551.512,404.523 556.5,406.5C 550.671,406.282 545.671,404.282 541.5,400.5 Z"/></g>
<g><path style="opacity:1" fill="#5689a6" d="M 614.5,398.5 C 614.047,399.458 613.381,400.292 612.5,401C 608.543,402.835 604.543,404.335 600.5,405.5C 604.737,402.414 609.404,400.081 614.5,398.5 Z"/></g>
<g><path style="opacity:1" fill="#5793b2" d="M 277.5,406.5 C 280.428,406.565 283.095,407.232 285.5,408.5C 282.302,409.036 279.635,408.369 277.5,406.5 Z"/></g>
<g><path style="opacity:1" fill="#5690b0" d="M 737.5,406.5 C 734.829,408.118 731.829,408.785 728.5,408.5C 731.273,407.343 734.273,406.676 737.5,406.5 Z"/></g>
<g><path style="opacity:1" fill="#5b96b3" d="M 316.5,406.5 C 313.851,408.109 310.851,408.943 307.5,409C 299.988,409.822 292.655,409.655 285.5,408.5C 295.914,408.846 306.248,408.179 316.5,406.5 Z"/></g>
<g><path style="opacity:1" fill="#5b99b8" d="M 595.5,406.5 C 594.737,407.268 593.737,407.768 592.5,408C 582.87,409.411 573.203,409.744 563.5,409C 562.263,408.768 561.263,408.268 560.5,407.5C 572.208,408.884 583.875,408.551 595.5,406.5 Z"/></g>
<g><path style="opacity:1" fill="#5b98b4" d="M 693.5,405.5 C 704.988,408.146 716.655,409.146 728.5,408.5C 718.3,409.815 707.967,409.649 697.5,408C 695.68,407.8 694.347,406.966 693.5,405.5 Z"/></g>
</svg>
