<?xml version="1.0" encoding="UTF-8"?>
<!DOCTYPE svg PUBLIC "-//W3C//DTD SVG 1.1//EN" "http://www.w3.org/Graphics/SVG/1.1/DTD/svg11.dtd">
<svg xmlns="http://www.w3.org/2000/svg" version="1.1" width="1152px" height="1004px" style="shape-rendering:geometricPrecision; text-rendering:geometricPrecision; image-rendering:optimizeQuality; fill-rule:evenodd; clip-rule:evenodd" xmlns:xlink="http://www.w3.org/1999/xlink">
<g><path style="opacity:0.965" fill="#006fbb" d="M 570.5,-0.5 C 575.833,-0.5 581.167,-0.5 586.5,-0.5C 605.002,5.80769 612.836,18.8077 610,38.5C 605.354,54.0872 594.854,62.4206 578.5,63.5C 554.212,59.7164 544.045,45.7164 548,21.5C 552.109,10.5566 559.609,3.22322 570.5,-0.5 Z"/></g>
<g><path style="opacity:0.964" fill="#006fbb" d="M 312.5,91.5 C 336.177,89.3294 349.511,99.9961 352.5,123.5C 348.595,147.616 334.595,157.783 310.5,154C 293.038,146.584 285.871,133.417 289,114.5C 292.787,102.544 300.621,94.8776 312.5,91.5 Z"/></g>
<g><path style="opacity:0.963" fill="#006fbb" d="M 831.5,94.5 C 851.821,93.9944 863.988,103.661 868,123.5C 867.007,148.821 853.841,160.321 828.5,158C 809.556,151.632 801.723,138.466 805,118.5C 809.306,105.354 818.14,97.3542 831.5,94.5 Z"/></g>
<g><path style="opacity:0.969" fill="#2ad5ff" d="M 559.5,145.5 C 635.556,142.019 702.889,164.186 761.5,212C 773.429,223.685 773.429,235.351 761.5,247C 753.5,251.667 745.5,251.667 737.5,247C 678.613,197.356 610.946,178.69 534.5,191C 507.325,196.17 481.658,205.503 457.5,219C 442.643,228.261 428.309,238.261 414.5,249C 397.797,252.981 388.13,246.481 385.5,229.5C 386.02,226.088 386.853,222.755 388,219.5C 409.404,198.692 433.904,182.192 461.5,170C 492.953,156.47 525.619,148.304 559.5,145.5 Z"/></g>
<g><path style="opacity:0.968" fill="#2ad5ff" d="M 563.5,226.5 C 618.521,223.452 667.021,239.452 709,274.5C 716.986,293.002 711.152,304.335 691.5,308.5C 687.698,307.772 684.031,306.606 680.5,305C 631.685,267.254 578.019,258.587 519.5,279C 502.22,286.301 486.22,295.634 471.5,307C 458.216,309.942 449.05,305.108 444,292.5C 442.146,284.067 444.312,276.9 450.5,271C 483.767,245.035 521.434,230.201 563.5,226.5 Z"/></g>
<g><path style="opacity:0.979" fill="#2ad5fe" d="M 319.5,432.5 C 318.167,444.167 318.167,455.833 319.5,467.5C 319.335,471.182 319.501,474.848 320,478.5C 320.232,479.737 320.732,480.737 321.5,481.5C 321.349,487.406 322.349,493.072 324.5,498.5C 325.677,504.208 327.01,509.874 328.5,515.5C 328.439,517.592 327.439,519.092 325.5,520C 314.83,521.548 304.163,523.048 293.5,524.5C 292.637,522.579 291.971,520.579 291.5,518.5C 290.5,515.167 289.5,511.833 288.5,508.5C 287.706,505.198 287.04,501.865 286.5,498.5C 285.938,495.454 285.271,492.454 284.5,489.5C 284.599,486.763 284.265,484.096 283.5,481.5C 283.632,478.43 283.299,475.43 282.5,472.5C 282.5,471.833 282.5,471.167 282.5,470.5C 282.167,465.167 281.833,459.833 281.5,454.5C 281.5,454.167 281.5,453.833 281.5,453.5C 281.5,445.5 281.5,437.5 281.5,429.5C 282.085,424.485 282.752,419.485 283.5,414.5C 283.5,414.167 283.5,413.833 283.5,413.5C 288.266,377.64 300.099,344.307 319,313.5C 330.636,304.828 340.97,306.161 350,317.5C 351.492,322.411 351.826,327.411 351,332.5C 332.569,363.295 322.069,396.628 319.5,432.5 Z"/></g>
<g><path style="opacity:0.966" fill="#2ad5ff" d="M 567.5,307.5 C 596.131,305.741 622.465,312.574 646.5,328C 654.512,335.274 656.679,344.107 653,354.5C 647.163,364.229 638.663,367.729 627.5,365C 594.462,344.336 561.462,344.336 528.5,365C 507.681,366.515 499.181,357.015 503,336.5C 504.061,333.438 505.894,330.938 508.5,329C 526.462,316.959 546.128,309.792 567.5,307.5 Z"/></g>
<g><path style="opacity:0.965" fill="#2ad4fe" d="M 872.5,399.5 C 871.167,399.167 869.833,398.833 868.5,398.5C 855.907,393.431 842.907,389.431 829.5,386.5C 825.592,369.344 819.425,353.011 811,337.5C 807.805,325.389 811.972,316.889 823.5,312C 830.765,310.412 837.265,311.912 843,316.5C 857.694,342.414 867.527,370.08 872.5,399.5 Z"/></g>
<g><path style="opacity:0.964" fill="#006fbb" d="M 178.5,327.5 C 204.358,329.852 215.525,343.852 212,369.5C 204.584,386.962 191.417,394.129 172.5,391C 154.597,384.373 147.097,371.54 150,352.5C 154.101,337.893 163.601,329.559 178.5,327.5 Z"/></g>
<g><path style="opacity:0.964" fill="#006fbb" d="M 964.5,333.5 C 987.828,331.843 1000.83,342.51 1003.5,365.5C 1001.15,387.676 988.821,398.176 966.5,397C 947.676,392.166 938.843,379.999 940,360.5C 942.791,346.546 950.957,337.546 964.5,333.5 Z"/></g>
<g><path style="opacity:0.955" fill="#2ad4fe" d="M 791.5,385.5 C 778.341,386.57 765.341,388.57 752.5,391.5C 749.888,384.606 747.555,377.606 745.5,370.5C 747.904,355.603 756.57,349.436 771.5,352C 774.726,353.198 777.559,355.031 780,357.5C 785.216,366.265 789.049,375.599 791.5,385.5 Z"/></g>
<g><path style="opacity:0.947" fill="#2ad4fe" d="M 719.5,405.5 C 719.5,405.833 719.5,406.167 719.5,406.5C 714.628,408.429 710.295,411.095 706.5,414.5C 699.557,418.777 692.89,423.444 686.5,428.5C 686.167,428.5 685.833,428.5 685.5,428.5C 684.174,422.509 682.84,416.509 681.5,410.5C 682.02,401.618 686.354,395.451 694.5,392C 706.976,389.232 715.309,393.732 719.5,405.5 Z"/></g>
<g><path style="opacity:0.985" fill="#71b8ed" d="M 829.5,386.5 C 842.907,389.431 855.907,393.431 868.5,398.5C 824.167,398.5 779.833,398.5 735.5,398.5C 741.063,395.884 746.729,393.551 752.5,391.5C 765.341,388.57 778.341,386.57 791.5,385.5C 804.14,384.364 816.807,384.697 829.5,386.5 Z"/></g>
<g><path style="opacity:0.984" fill="#6fb1e9" d="M 735.5,398.5 C 779.833,398.5 824.167,398.5 868.5,398.5C 869.833,398.833 871.167,399.167 872.5,399.5C 877.764,400.799 882.431,403.132 886.5,406.5C 830.833,406.5 775.167,406.5 719.5,406.5C 719.5,406.167 719.5,405.833 719.5,405.5C 724.605,402.613 729.939,400.28 735.5,398.5 Z"/></g>
<g><path style="opacity:0.964" fill="#6cabe5" d="M 283.5,413.5 C 283.5,413.833 283.5,414.167 283.5,414.5C 242.5,414.5 201.5,414.5 160.5,414.5C 180.172,406.033 200.839,402.033 222.5,402.5C 243.625,401.965 263.958,405.632 283.5,413.5 Z"/></g>
<g><path style="opacity:0.993" fill="#6cabe5" d="M 719.5,406.5 C 775.167,406.5 830.833,406.5 886.5,406.5C 891.5,408.664 896.167,411.331 900.5,414.5C 835.833,414.5 771.167,414.5 706.5,414.5C 710.295,411.095 714.628,408.429 719.5,406.5 Z"/></g>
<g><path style="opacity:0.889" fill="#36d8ff" d="M 472.5,414.5 C 458.193,417.628 443.86,420.628 429.5,423.5C 431.705,414.049 435.372,405.215 440.5,397C 451.625,389.863 461.459,391.363 470,401.5C 471.9,405.632 472.733,409.966 472.5,414.5 Z"/></g>
<g><path style="opacity:0.96" fill="#2ad5ff" d="M 572.5,409.5 C 588.579,408.101 599.745,414.768 606,429.5C 609.977,448.054 603.143,460.554 585.5,467C 564.108,469.484 551.774,460.15 548.5,439C 549.779,423.567 557.779,413.733 572.5,409.5 Z"/></g>
<g><path style="opacity:0.89" fill="#40d6fe" d="M 392.5,430.5 C 379.757,433.186 367.09,436.186 354.5,439.5C 355.611,410.723 363.111,383.723 377,358.5C 384.386,350.053 393.219,348.219 403.5,353C 411.063,358.698 413.563,366.198 411,375.5C 401.331,392.674 395.164,411.007 392.5,430.5 Z"/></g>
<g><path style="opacity:0.991" fill="#68a1df" d="M 160.5,414.5 C 201.5,414.5 242.5,414.5 283.5,414.5C 282.752,419.485 282.085,424.485 281.5,429.5C 231.5,429.5 181.5,429.5 131.5,429.5C 136.097,425.858 141.097,422.692 146.5,420C 151.087,417.87 155.753,416.037 160.5,414.5 Z"/></g>
<g><path style="opacity:0.995" fill="#68a1df" d="M 706.5,414.5 C 771.167,414.5 835.833,414.5 900.5,414.5C 907.418,418.788 913.751,423.788 919.5,429.5C 841.665,429.833 763.998,429.499 686.5,428.5C 692.89,423.444 699.557,418.777 706.5,414.5 Z"/></g>
<g><path style="opacity:0.755" fill="#53deff" d="M 472.5,414.5 C 469.369,421.561 467.036,428.894 465.5,436.5C 452.751,438.783 440.084,441.45 427.5,444.5C 427.446,437.424 428.113,430.424 429.5,423.5C 443.86,420.628 458.193,417.628 472.5,414.5 Z"/></g>
<g><path style="opacity:0.994" fill="#6497d9" d="M 685.5,428.5 C 685.833,428.5 686.167,428.5 686.5,428.5C 763.998,429.499 841.665,429.833 919.5,429.5C 923.5,432.833 927.167,436.5 930.5,440.5C 845.167,440.5 759.833,440.5 674.5,440.5C 678.167,436.5 681.833,432.5 685.5,428.5 Z"/></g>
<g><path style="opacity:0.994" fill="#6294d7" d="M 131.5,429.5 C 181.5,429.5 231.5,429.5 281.5,429.5C 281.5,437.5 281.5,445.5 281.5,453.5C 280.532,451.393 280.198,449.059 280.5,446.5C 223.5,446.5 166.5,446.5 109.5,446.5C 116.102,439.868 123.436,434.201 131.5,429.5 Z"/></g>
<g><path style="opacity:0.873" fill="#5fd5fe" d="M 392.5,430.5 C 390.194,454.083 392.861,477.083 400.5,499.5C 399.078,498.075 397.411,497.075 395.5,496.5C 385.437,488.798 374.437,482.632 362.5,478C 360.6,475.665 358.6,473.498 356.5,471.5C 355.833,469.5 355.167,467.5 354.5,465.5C 354.5,456.833 354.5,448.167 354.5,439.5C 367.09,436.186 379.757,433.186 392.5,430.5 Z"/></g>
<g><path style="opacity:0.996" fill="#5f8cd3" d="M 109.5,446.5 C 166.5,446.5 223.5,446.5 280.5,446.5C 280.198,449.059 280.532,451.393 281.5,453.5C 281.5,453.833 281.5,454.167 281.5,454.5C 221.5,454.5 161.5,454.5 101.5,454.5C 103.833,451.5 106.5,448.833 109.5,446.5 Z"/></g>
<g><path style="opacity:0.994" fill="#5f8ed4" d="M 674.5,440.5 C 759.833,440.5 845.167,440.5 930.5,440.5C 935.437,444.382 939.437,449.048 942.5,454.5C 849.167,454.5 755.833,454.5 662.5,454.5C 666.155,449.514 670.155,444.847 674.5,440.5 Z"/></g>
<g><path style="opacity:0.64" fill="#6de2ff" d="M 465.5,436.5 C 464.759,442.471 464.425,448.471 464.5,454.5C 452.533,457.294 440.533,459.96 428.5,462.5C 427.51,456.69 427.177,450.69 427.5,444.5C 440.084,441.45 452.751,438.783 465.5,436.5 Z"/></g>
<g><path style="opacity:0.995" fill="#5c86cf" d="M 101.5,454.5 C 161.5,454.5 221.5,454.5 281.5,454.5C 281.833,459.833 282.167,465.167 282.5,470.5C 281.532,468.393 281.198,466.059 281.5,463.5C 218.833,463.5 156.167,463.5 93.5,463.5C 95.4528,459.88 98.1195,456.88 101.5,454.5 Z"/></g>
<g><path style="opacity:0.967" fill="#5d89d1" d="M 319.5,432.5 C 331.436,441.434 342.102,451.768 351.5,463.5C 340.833,463.5 330.167,463.5 319.5,463.5C 319.5,464.833 319.5,466.167 319.5,467.5C 318.167,455.833 318.167,444.167 319.5,432.5 Z"/></g>
<g><path style="opacity:0.995" fill="#5c86cf" d="M 662.5,454.5 C 755.833,454.5 849.167,454.5 942.5,454.5C 945.185,457.19 947.518,460.19 949.5,463.5C 851.833,463.5 754.167,463.5 656.5,463.5C 658.255,460.32 660.255,457.32 662.5,454.5 Z"/></g>
<g><path style="opacity:0.996" fill="#597fcb" d="M 93.5,463.5 C 156.167,463.5 218.833,463.5 281.5,463.5C 281.198,466.059 281.532,468.393 282.5,470.5C 282.5,471.167 282.5,471.833 282.5,472.5C 217.167,472.5 151.833,472.5 86.5,472.5C 88.4821,469.19 90.8154,466.19 93.5,463.5 Z"/></g>
<g><path style="opacity:0.995" fill="#597fcb" d="M 656.5,463.5 C 754.167,463.5 851.833,463.5 949.5,463.5C 951.432,466.366 953.099,469.366 954.5,472.5C 853.167,472.5 751.833,472.5 650.5,472.5C 652.265,469.291 654.265,466.291 656.5,463.5 Z"/></g>
<g><path style="opacity:0.521" fill="#86e7ff" d="M 464.5,454.5 C 465.674,460.859 467.341,467.193 469.5,473.5C 457.034,475.66 444.701,478.326 432.5,481.5C 430.148,475.409 428.815,469.076 428.5,462.5C 440.533,459.96 452.533,457.294 464.5,454.5 Z"/></g>
<g><path style="opacity:0.996" fill="#5679c7" d="M 86.5,472.5 C 151.833,472.5 217.167,472.5 282.5,472.5C 283.299,475.43 283.632,478.43 283.5,481.5C 215.833,481.5 148.167,481.5 80.5,481.5C 82.2651,478.291 84.2651,475.291 86.5,472.5 Z"/></g>
<g><path style="opacity:1" fill="#577bc8" d="M 351.5,463.5 C 352.5,464.167 353.5,464.833 354.5,465.5C 355.167,467.5 355.833,469.5 356.5,471.5C 356.46,474.881 356.793,478.214 357.5,481.5C 345.5,481.5 333.5,481.5 321.5,481.5C 320.732,480.737 320.232,479.737 320,478.5C 319.501,474.848 319.335,471.182 319.5,467.5C 319.5,466.167 319.5,464.833 319.5,463.5C 330.167,463.5 340.833,463.5 351.5,463.5 Z"/></g>
<g><path style="opacity:0.995" fill="#5678c7" d="M 650.5,472.5 C 751.833,472.5 853.167,472.5 954.5,472.5C 956.56,475.24 958.226,478.24 959.5,481.5C 854.833,481.5 750.167,481.5 645.5,481.5C 646.913,478.339 648.58,475.339 650.5,472.5 Z"/></g>
<g><path style="opacity:0.996" fill="#5473c4" d="M 80.5,481.5 C 148.167,481.5 215.833,481.5 283.5,481.5C 284.265,484.096 284.599,486.763 284.5,489.5C 214.833,489.5 145.167,489.5 75.5,489.5C 77.1807,486.797 78.8474,484.131 80.5,481.5 Z"/></g>
<g><path style="opacity:0.988" fill="#5474c4" d="M 1088.5,489.5 C 927.833,489.5 767.167,489.5 606.5,489.5C 610.59,487.892 614.923,486.725 619.5,486C 627.831,485.147 636.164,484.314 644.5,483.5C 644.863,482.817 645.196,482.15 645.5,481.5C 750.167,481.5 854.833,481.5 959.5,481.5C 960.15,481.804 960.817,482.137 961.5,482.5C 1005.16,463.383 1047.5,465.716 1088.5,489.5 Z"/></g>
<g><path style="opacity:1" fill="#6dc5f5" d="M 356.5,471.5 C 358.6,473.498 360.6,475.665 362.5,478C 374.437,482.632 385.437,488.798 395.5,496.5C 384.593,497.362 373.926,499.362 363.5,502.5C 362.655,501.329 361.989,499.995 361.5,498.5C 360.318,492.772 358.984,487.105 357.5,481.5C 356.793,478.214 356.46,474.881 356.5,471.5 Z"/></g>
<g><path style="opacity:0.404" fill="#9fecff" d="M 469.5,473.5 C 471.986,479.805 474.986,485.805 478.5,491.5C 465.86,494.295 453.193,496.961 440.5,499.5C 436.79,494.071 434.124,488.071 432.5,481.5C 444.701,478.326 457.034,475.66 469.5,473.5 Z"/></g>
<g><path style="opacity:0.997" fill="#516dc0" d="M 75.5,489.5 C 145.167,489.5 214.833,489.5 284.5,489.5C 285.271,492.454 285.938,495.454 286.5,498.5C 214.833,498.5 143.167,498.5 71.5,498.5C 72.5612,495.378 73.8946,492.378 75.5,489.5 Z"/></g>
<g><path style="opacity:1" fill="#526fc1" d="M 321.5,481.5 C 333.5,481.5 345.5,481.5 357.5,481.5C 358.984,487.105 360.318,492.772 361.5,498.5C 349.167,498.5 336.833,498.5 324.5,498.5C 322.349,493.072 321.349,487.406 321.5,481.5 Z"/></g>
<g><path style="opacity:0.996" fill="#516cc0" d="M 606.5,489.5 C 767.167,489.5 927.833,489.5 1088.5,489.5C 1093.13,492.143 1097.47,495.143 1101.5,498.5C 928.833,498.5 756.167,498.5 583.5,498.5C 590.567,494.139 598.234,491.139 606.5,489.5 Z"/></g>
<g><path style="opacity:0.997" fill="#4e67bc" d="M 71.5,498.5 C 143.167,498.5 214.833,498.5 286.5,498.5C 287.04,501.865 287.706,505.198 288.5,508.5C 214.833,508.5 141.167,508.5 67.5,508.5C 68.2635,504.863 69.5968,501.53 71.5,498.5 Z"/></g>
<g><path style="opacity:0.996" fill="#4e67bc" d="M 583.5,498.5 C 756.167,498.5 928.833,498.5 1101.5,498.5C 1105.79,501.123 1109.46,504.456 1112.5,508.5C 930.5,508.5 748.5,508.5 566.5,508.5C 571.641,504.377 577.308,501.044 583.5,498.5 Z"/></g>
<g><path style="opacity:1" fill="#73bef0" d="M 395.5,496.5 C 397.411,497.075 399.078,498.075 400.5,499.5C 401.167,499.5 401.5,499.833 401.5,500.5C 401.878,502.921 402.545,505.254 403.5,507.5C 403.047,508.458 402.381,509.292 401.5,510C 390.425,512.353 379.425,514.853 368.5,517.5C 366.238,512.715 364.572,507.715 363.5,502.5C 373.926,499.362 384.593,497.362 395.5,496.5 Z"/></g>
<g><path style="opacity:0.295" fill="#bcf2ff" d="M 478.5,491.5 C 490.403,500.199 492.569,510.866 485,523.5C 477.073,530.376 468.573,531.209 459.5,526C 451.308,518.43 444.975,509.597 440.5,499.5C 453.193,496.961 465.86,494.295 478.5,491.5 Z"/></g>
<g><path style="opacity:0.997" fill="#4b60b8" d="M 67.5,508.5 C 141.167,508.5 214.833,508.5 288.5,508.5C 289.5,511.833 290.5,515.167 291.5,518.5C 215.571,517.503 139.571,517.17 63.5,517.5C 64.4617,514.261 65.7951,511.261 67.5,508.5 Z"/></g>
<g><path style="opacity:1" fill="#4d63ba" d="M 324.5,498.5 C 336.833,498.5 349.167,498.5 361.5,498.5C 361.989,499.995 362.655,501.329 363.5,502.5C 364.572,507.715 366.238,512.715 368.5,517.5C 368.5,517.833 368.5,518.167 368.5,518.5C 355.735,517.179 343.069,517.179 330.5,518.5C 329.833,517.5 329.167,516.5 328.5,515.5C 327.01,509.874 325.677,504.208 324.5,498.5 Z"/></g>
<g><path style="opacity:0.996" fill="#4c60b8" d="M 566.5,508.5 C 748.5,508.5 930.5,508.5 1112.5,508.5C 1115.5,510.833 1118.17,513.5 1120.5,516.5C 932.5,516.5 744.5,516.5 556.5,516.5C 559.52,513.484 562.854,510.817 566.5,508.5 Z"/></g>
<g><path style="opacity:1" fill="#68a6e0" d="M 403.5,507.5 C 405.83,512.159 408.163,516.826 410.5,521.5C 410.389,522.117 410.056,522.617 409.5,523C 397.659,526.128 385.659,528.294 373.5,529.5C 372.107,525.714 370.441,522.048 368.5,518.5C 368.5,518.167 368.5,517.833 368.5,517.5C 379.425,514.853 390.425,512.353 401.5,510C 402.381,509.292 403.047,508.458 403.5,507.5 Z"/></g>
<g><path style="opacity:0.997" fill="#495ab5" d="M 63.5,517.5 C 139.571,517.17 215.571,517.503 291.5,518.5C 291.971,520.579 292.637,522.579 293.5,524.5C 293.5,525.167 293.5,525.833 293.5,526.5C 216.167,526.5 138.833,526.5 61.5,526.5C 61.7556,523.402 62.4222,520.402 63.5,517.5 Z"/></g>
<g><path style="opacity:0.997" fill="#495ab5" d="M 556.5,516.5 C 744.5,516.5 932.5,516.5 1120.5,516.5C 1123.34,519.513 1125.67,522.846 1127.5,526.5C 933.833,526.5 740.167,526.5 546.5,526.5C 549.5,522.833 552.833,519.5 556.5,516.5 Z"/></g>
<g><path style="opacity:1" fill="#2dc6f4" d="M 328.5,515.5 C 329.167,516.5 329.833,517.5 330.5,518.5C 331.167,521.5 331.833,524.5 332.5,527.5C 331.848,528.725 330.681,529.392 329,529.5C 318.084,530.94 307.25,532.607 296.5,534.5C 295.488,531.743 294.488,529.076 293.5,526.5C 293.5,525.833 293.5,525.167 293.5,524.5C 304.163,523.048 314.83,521.548 325.5,520C 327.439,519.092 328.439,517.592 328.5,515.5 Z"/></g>
<g><path style="opacity:1" fill="#6093d5" d="M 410.5,521.5 C 412.192,523.205 413.525,525.205 414.5,527.5C 414.53,528.497 414.03,529.164 413,529.5C 401.355,532.87 389.522,535.204 377.5,536.5C 377.167,535.5 376.5,534.833 375.5,534.5C 375.107,532.716 374.441,531.05 373.5,529.5C 385.659,528.294 397.659,526.128 409.5,523C 410.056,522.617 410.389,522.117 410.5,521.5 Z"/></g>
<g><path style="opacity:1" fill="#4757b3" d="M 368.5,518.5 C 370.441,522.048 372.107,525.714 373.5,529.5C 374.441,531.05 375.107,532.716 375.5,534.5C 362.5,534.5 349.5,534.5 336.5,534.5C 335.167,532.167 333.833,529.833 332.5,527.5C 331.833,524.5 331.167,521.5 330.5,518.5C 343.069,517.179 355.735,517.179 368.5,518.5 Z"/></g>
<g><path style="opacity:0.997" fill="#4754b1" d="M 546.5,526.5 C 740.167,526.5 933.833,526.5 1127.5,526.5C 1129.85,528.86 1131.85,531.527 1133.5,534.5C 935.833,534.5 738.167,534.5 540.5,534.5C 542.122,531.545 544.122,528.878 546.5,526.5 Z"/></g>
<g><path style="opacity:1" fill="#2db9ec" d="M 332.5,527.5 C 333.833,529.833 335.167,532.167 336.5,534.5C 336.5,535.167 336.5,535.833 336.5,536.5C 324.458,539.414 312.124,541.414 299.5,542.5C 299.167,541.833 298.833,541.167 298.5,540.5C 298.029,538.421 297.363,536.421 296.5,534.5C 307.25,532.607 318.084,530.94 329,529.5C 330.681,529.392 331.848,528.725 332.5,527.5 Z"/></g>
<g><path style="opacity:0.998" fill="#4552b0" d="M 61.5,526.5 C 138.833,526.5 216.167,526.5 293.5,526.5C 294.488,529.076 295.488,531.743 296.5,534.5C 297.363,536.421 298.029,538.421 298.5,540.5C 218.571,539.503 138.571,539.17 58.5,539.5C 58.8816,534.908 59.8816,530.575 61.5,526.5 Z"/></g>
<g><path style="opacity:0.998" fill="#4550af" d="M 540.5,534.5 C 738.167,534.5 935.833,534.5 1133.5,534.5C 1134.44,536.05 1135.11,537.716 1135.5,539.5C 935.833,539.5 736.167,539.5 536.5,539.5C 537.124,537.246 538.457,535.579 540.5,534.5 Z"/></g>
<g><path style="opacity:1" fill="#434ead" d="M 336.5,534.5 C 349.5,534.5 362.5,534.5 375.5,534.5C 376.5,534.833 377.167,535.5 377.5,536.5C 378.913,539.661 380.58,542.661 382.5,545.5C 382.833,546.167 383.167,546.833 383.5,547.5C 369.833,547.5 356.167,547.5 342.5,547.5C 341.5,546.167 340.5,544.833 339.5,543.5C 338.736,540.982 337.736,538.649 336.5,536.5C 336.5,535.833 336.5,535.167 336.5,534.5 Z"/></g>
<g><path style="opacity:1" fill="#5882ca" d="M 414.5,527.5 C 416.821,530.796 419.154,534.129 421.5,537.5C 408.852,541.267 395.852,543.933 382.5,545.5C 380.58,542.661 378.913,539.661 377.5,536.5C 389.522,535.204 401.355,532.87 413,529.5C 414.03,529.164 414.53,528.497 414.5,527.5 Z"/></g>
<g><path style="opacity:0.944" fill="#4653b1" d="M 401.5,500.5 C 420.548,515.893 434.215,535.226 442.5,558.5C 438.208,555.543 434.208,552.21 430.5,548.5C 427.848,544.518 424.848,540.851 421.5,537.5C 419.154,534.129 416.821,530.796 414.5,527.5C 413.525,525.205 412.192,523.205 410.5,521.5C 408.163,516.826 405.83,512.159 403.5,507.5C 402.545,505.254 401.878,502.921 401.5,500.5 Z"/></g>
<g><path style="opacity:0.998" fill="#434cac" d="M 536.5,539.5 C 736.167,539.5 935.833,539.5 1135.5,539.5C 1137.34,541.849 1138.67,544.515 1139.5,547.5C 936.833,547.5 734.167,547.5 531.5,547.5C 532.68,544.46 534.347,541.794 536.5,539.5 Z"/></g>
<g><path style="opacity:1" fill="#30ace4" d="M 336.5,536.5 C 337.736,538.649 338.736,540.982 339.5,543.5C 338.306,544.777 336.64,545.444 334.5,545.5C 323.913,547.48 313.246,548.814 302.5,549.5C 301.305,547.249 300.305,544.915 299.5,542.5C 312.124,541.414 324.458,539.414 336.5,536.5 Z"/></g>
<g><path style="opacity:0.996" fill="#4149aa" d="M 58.5,539.5 C 138.571,539.17 218.571,539.503 298.5,540.5C 298.833,541.167 299.167,541.833 299.5,542.5C 300.305,544.915 301.305,547.249 302.5,549.5C 303.363,551.421 304.029,553.421 304.5,555.5C 219.167,555.5 133.833,555.5 48.5,555.5C 50.6076,553.941 52.9409,552.608 55.5,551.5C 56.8689,547.565 57.8689,543.565 58.5,539.5 Z"/></g>
<g><path style="opacity:0.998" fill="#4147a9" d="M 531.5,547.5 C 734.167,547.5 936.833,547.5 1139.5,547.5C 1141.34,549.853 1142.68,552.52 1143.5,555.5C 938.167,555.5 732.833,555.5 527.5,555.5C 528.326,552.515 529.659,549.849 531.5,547.5 Z"/></g>
<g><path style="opacity:1" fill="#5273c1" d="M 421.5,537.5 C 424.848,540.851 427.848,544.518 430.5,548.5C 417.163,551.168 403.829,553.835 390.5,556.5C 387.925,553.681 385.592,550.681 383.5,547.5C 383.167,546.833 382.833,546.167 382.5,545.5C 395.852,543.933 408.852,541.267 421.5,537.5 Z"/></g>
<g><path style="opacity:1" fill="#3197d7" d="M 339.5,543.5 C 340.5,544.833 341.5,546.167 342.5,547.5C 343.227,549.954 344.227,552.287 345.5,554.5C 345.389,555.117 345.056,555.617 344.5,556C 332.153,557.454 319.82,558.954 307.5,560.5C 306.737,558.632 305.737,556.965 304.5,555.5C 304.029,553.421 303.363,551.421 302.5,549.5C 313.246,548.814 323.913,547.48 334.5,545.5C 336.64,545.444 338.306,544.777 339.5,543.5 Z"/></g>
<g><path style="opacity:1" fill="#3f43a7" d="M 48.5,555.5 C 133.833,555.5 219.167,555.5 304.5,555.5C 305.737,556.965 306.737,558.632 307.5,560.5C 307.5,560.833 307.5,561.167 307.5,561.5C 280.5,561.5 253.5,561.5 226.5,561.5C 217.458,554.522 208.791,554.855 200.5,562.5C 146.669,561.501 92.6692,561.168 38.5,561.5C 41.4937,559 44.827,557 48.5,555.5 Z"/></g>
<g><path style="opacity:1" fill="#3f45a8" d="M 342.5,547.5 C 356.167,547.5 369.833,547.5 383.5,547.5C 385.592,550.681 387.925,553.681 390.5,556.5C 391.752,558.001 392.752,559.668 393.5,561.5C 379.167,561.5 364.833,561.5 350.5,561.5C 350.167,561.5 349.833,561.5 349.5,561.5C 348.404,558.968 347.071,556.635 345.5,554.5C 344.227,552.287 343.227,549.954 342.5,547.5 Z"/></g>
<g><path style="opacity:1" fill="#4960b5" d="M 430.5,548.5 C 434.208,552.21 438.208,555.543 442.5,558.5C 446.218,563.046 447.551,568.046 446.5,573.5C 446.672,572.508 446.338,571.842 445.5,571.5C 445.322,568.784 444.822,566.117 444,563.5C 443.653,561.82 442.653,560.82 441,560.5C 427.207,563.104 413.374,565.438 399.5,567.5C 397.5,565.5 395.5,563.5 393.5,561.5C 392.752,559.668 391.752,558.001 390.5,556.5C 403.829,553.835 417.163,551.168 430.5,548.5 Z"/></g>
<g><path style="opacity:0.998" fill="#3e42a6" d="M 527.5,555.5 C 732.833,555.5 938.167,555.5 1143.5,555.5C 1145.11,558.986 1146.11,562.653 1146.5,566.5C 1082,566.168 1017.66,566.501 953.5,567.5C 946.855,556.563 937.855,554.063 926.5,560C 923.879,562.114 921.879,564.614 920.5,567.5C 788.001,566.5 655.334,566.167 522.5,566.5C 523.603,562.503 525.269,558.836 527.5,555.5 Z"/></g>
<g><path style="opacity:1" fill="#fcfcfd" d="M 226.5,561.5 C 227.64,563.78 228.807,566.114 230,568.5C 230.497,571.146 230.664,573.813 230.5,576.5C 228.686,582.32 225.02,586.654 219.5,589.5C 215.5,589.5 211.5,589.5 207.5,589.5C 202.015,586.881 198.682,582.548 197.5,576.5C 196.909,571.436 197.909,566.769 200.5,562.5C 208.791,554.855 217.458,554.522 226.5,561.5 Z"/></g>
<g><path style="opacity:1" fill="#3285cb" d="M 345.5,554.5 C 347.071,556.635 348.404,558.968 349.5,561.5C 349.03,562.693 348.03,563.36 346.5,563.5C 334.837,565.261 323.17,566.928 311.5,568.5C 310.404,565.968 309.071,563.635 307.5,561.5C 307.5,561.167 307.5,560.833 307.5,560.5C 319.82,558.954 332.153,557.454 344.5,556C 345.056,555.617 345.389,555.117 345.5,554.5 Z"/></g>
<g><path style="opacity:1" fill="#fcfcfd" d="M 953.5,567.5 C 953.5,570.5 953.5,573.5 953.5,576.5C 951.615,582.382 947.948,586.715 942.5,589.5C 938.5,589.5 934.5,589.5 930.5,589.5C 925.496,586.511 922.163,582.178 920.5,576.5C 920.5,573.5 920.5,570.5 920.5,567.5C 921.879,564.614 923.879,562.114 926.5,560C 937.855,554.063 946.855,556.563 953.5,567.5 Z"/></g>
<g><path style="opacity:1" fill="#4250ac" d="M 445.5,571.5 C 432.841,573.166 420.174,574.832 407.5,576.5C 407.167,576.5 406.833,576.5 406.5,576.5C 403.925,573.681 401.592,570.681 399.5,567.5C 413.374,565.438 427.207,563.104 441,560.5C 442.653,560.82 443.653,561.82 444,563.5C 444.822,566.117 445.322,568.784 445.5,571.5 Z"/></g>
<g><path style="opacity:0.996" fill="#3c3da3" d="M 38.5,561.5 C 92.6692,561.168 146.669,561.501 200.5,562.5C 197.909,566.769 196.909,571.436 197.5,576.5C 139.167,576.5 80.8333,576.5 22.5,576.5C 27.204,570.795 32.5374,565.795 38.5,561.5 Z"/></g>
<g><path style="opacity:1" fill="#3c3da3" d="M 226.5,561.5 C 253.5,561.5 280.5,561.5 307.5,561.5C 309.071,563.635 310.404,565.968 311.5,568.5C 313.267,570.938 314.601,573.605 315.5,576.5C 287.167,576.5 258.833,576.5 230.5,576.5C 230.664,573.813 230.497,571.146 230,568.5C 228.807,566.114 227.64,563.78 226.5,561.5 Z"/></g>
<g><path style="opacity:1" fill="#3c3da3" d="M 350.5,561.5 C 364.833,561.5 379.167,561.5 393.5,561.5C 395.5,563.5 397.5,565.5 399.5,567.5C 401.592,570.681 403.925,573.681 406.5,576.5C 390.991,576.17 375.658,576.504 360.5,577.5C 359.167,575.833 357.833,574.167 356.5,572.5C 354.234,568.966 352.234,565.3 350.5,561.5 Z"/></g>
<g><path style="opacity:1" fill="#336cbd" d="M 349.5,561.5 C 349.833,561.5 350.167,561.5 350.5,561.5C 352.234,565.3 354.234,568.966 356.5,572.5C 343.575,574.3 330.575,576.3 317.5,578.5C 316.833,577.833 316.167,577.167 315.5,576.5C 314.601,573.605 313.267,570.938 311.5,568.5C 323.17,566.928 334.837,565.261 346.5,563.5C 348.03,563.36 349.03,562.693 349.5,561.5 Z"/></g>
<g><path style="opacity:0.999" fill="#3b3ba2" d="M 522.5,566.5 C 655.334,566.167 788.001,566.5 920.5,567.5C 920.5,570.5 920.5,573.5 920.5,576.5C 786.833,576.5 653.167,576.5 519.5,576.5C 520.101,573.032 521.101,569.699 522.5,566.5 Z"/></g>
<g><path style="opacity:0.997" fill="#3b3ba2" d="M 1146.5,566.5 C 1147.99,569.583 1148.99,572.917 1149.5,576.5C 1084.17,576.5 1018.83,576.5 953.5,576.5C 953.5,573.5 953.5,570.5 953.5,567.5C 1017.66,566.501 1082,566.168 1146.5,566.5 Z"/></g>
<g><path style="opacity:1" fill="#3d42a4" d="M 445.5,571.5 C 446.338,571.842 446.672,572.508 446.5,573.5C 446.5,573.833 446.5,574.167 446.5,574.5C 444.015,583.849 437.848,588.849 428,589.5C 419.476,587.805 412.642,583.471 407.5,576.5C 420.174,574.832 432.841,573.166 445.5,571.5 Z"/></g>
<g><path style="opacity:0.995" fill="#39359e" d="M 22.5,576.5 C 80.8333,576.5 139.167,576.5 197.5,576.5C 198.682,582.548 202.015,586.881 207.5,589.5C 142.5,589.5 77.5,589.5 12.5,589.5C 15.1183,584.587 18.4516,580.254 22.5,576.5 Z"/></g>
<g><path style="opacity:1" fill="#39359e" d="M 230.5,576.5 C 258.833,576.5 287.167,576.5 315.5,576.5C 316.167,577.167 316.833,577.833 317.5,578.5C 319.102,582.095 321.102,585.429 323.5,588.5C 323.5,588.833 323.5,589.167 323.5,589.5C 288.833,589.5 254.167,589.5 219.5,589.5C 225.02,586.654 228.686,582.32 230.5,576.5 Z"/></g>
<g><path style="opacity:0.998" fill="#39359e" d="M 519.5,576.5 C 653.167,576.5 786.833,576.5 920.5,576.5C 922.163,582.178 925.496,586.511 930.5,589.5C 792.5,589.5 654.5,589.5 516.5,589.5C 516.882,584.908 517.882,580.575 519.5,576.5 Z"/></g>
<g><path style="opacity:0.998" fill="#39359e" d="M 953.5,576.5 C 1018.83,576.5 1084.17,576.5 1149.5,576.5C 1149.9,580.011 1150.57,583.344 1151.5,586.5C 1151.5,587.5 1151.5,588.5 1151.5,589.5C 1081.83,589.5 1012.17,589.5 942.5,589.5C 947.948,586.715 951.615,582.382 953.5,576.5 Z"/></g>
<g><path style="opacity:1" fill="#3453ad" d="M 356.5,572.5 C 357.833,574.167 359.167,575.833 360.5,577.5C 361.925,578.922 362.925,580.589 363.5,582.5C 350.363,585.001 337.029,587.001 323.5,588.5C 321.102,585.429 319.102,582.095 317.5,578.5C 330.575,576.3 343.575,574.3 356.5,572.5 Z"/></g>
<g><path style="opacity:1" fill="#343ea2" d="M 363.5,582.5 C 365.816,585.095 368.149,587.761 370.5,590.5C 369.271,591.281 367.938,591.781 366.5,592C 354.124,593.336 341.79,594.836 329.5,596.5C 327.477,594.147 325.477,591.814 323.5,589.5C 323.5,589.167 323.5,588.833 323.5,588.5C 337.029,587.001 350.363,585.001 363.5,582.5 Z"/></g>
<g><path style="opacity:0.988" fill="#36309b" d="M 446.5,574.5 C 448.043,580.28 449.043,586.28 449.5,592.5C 455.795,593.486 461.462,595.82 466.5,599.5C 423.035,598.495 379.701,600.162 336.5,604.5C 334.259,603.929 332.592,602.596 331.5,600.5C 223.502,599.5 115.502,599.167 7.5,599.5C 9.16667,596.167 10.8333,592.833 12.5,589.5C 77.5,589.5 142.5,589.5 207.5,589.5C 211.5,589.5 215.5,589.5 219.5,589.5C 254.167,589.5 288.833,589.5 323.5,589.5C 325.477,591.814 327.477,594.147 329.5,596.5C 341.79,594.836 354.124,593.336 366.5,592C 367.938,591.781 369.271,591.281 370.5,590.5C 368.149,587.761 365.816,585.095 363.5,582.5C 362.925,580.589 361.925,578.922 360.5,577.5C 375.658,576.504 390.991,576.17 406.5,576.5C 406.833,576.5 407.167,576.5 407.5,576.5C 412.642,583.471 419.476,587.805 428,589.5C 437.848,588.849 444.015,583.849 446.5,574.5 Z"/></g>
<g><path style="opacity:0.998" fill="#362e9a" d="M 516.5,589.5 C 654.5,589.5 792.5,589.5 930.5,589.5C 934.5,589.5 938.5,589.5 942.5,589.5C 1012.17,589.5 1081.83,589.5 1151.5,589.5C 1151.5,592.833 1151.5,596.167 1151.5,599.5C 933.833,599.5 716.167,599.5 498.5,599.5C 503.584,595.961 509.251,593.461 515.5,592C 516.252,591.329 516.586,590.496 516.5,589.5 Z"/></g>
<g><path style="opacity:0.996" fill="#332897" d="M 7.5,599.5 C 115.502,599.167 223.502,599.5 331.5,600.5C 332.592,602.596 334.259,603.929 336.5,604.5C 379.701,600.162 423.035,598.495 466.5,599.5C 472.348,602.015 477.348,605.682 481.5,610.5C 322.167,610.5 162.833,610.5 3.5,610.5C 4.44113,606.675 5.77447,603.009 7.5,599.5 Z"/></g>
<g><path style="opacity:0.998" fill="#332897" d="M 498.5,599.5 C 716.167,599.5 933.833,599.5 1151.5,599.5C 1151.5,603.167 1151.5,606.833 1151.5,610.5C 928.833,610.5 706.167,610.5 483.5,610.5C 487.652,605.682 492.652,602.015 498.5,599.5 Z"/></g>
<g><path style="opacity:0.999" fill="#322495" d="M 3.5,610.5 C 162.833,610.5 322.167,610.5 481.5,610.5C 482.167,610.5 482.833,610.5 483.5,610.5C 706.167,610.5 928.833,610.5 1151.5,610.5C 1151.5,611.833 1151.5,613.167 1151.5,614.5C 768.5,614.5 385.5,614.5 2.5,614.5C 2.43255,613.041 2.76589,611.708 3.5,610.5 Z"/></g>
<g><path style="opacity:0.999" fill="#302193" d="M 2.5,614.5 C 385.5,614.5 768.5,614.5 1151.5,614.5C 1151.5,616.167 1151.5,617.833 1151.5,619.5C 1150.6,620.209 1150.26,621.209 1150.5,622.5C 767.167,622.5 383.833,622.5 0.5,622.5C 0.802327,619.627 1.46899,616.961 2.5,614.5 Z"/></g>
<g><path style="opacity:0.999" fill="#2e1d90" d="M 0.5,622.5 C 383.833,622.5 767.167,622.5 1150.5,622.5C 1150.17,625.167 1149.83,627.833 1149.5,630.5C 766.167,630.5 382.833,630.5 -0.5,630.5C -0.5,628.833 -0.5,627.167 -0.5,625.5C 0.403972,624.791 0.737305,623.791 0.5,622.5 Z"/></g>
<g><path style="opacity:0.999" fill="#2d1a8e" d="M -0.5,630.5 C 382.833,630.5 766.167,630.5 1149.5,630.5C 1148.68,632.772 1148.01,635.106 1147.5,637.5C 764.833,637.5 382.167,637.5 -0.5,637.5C -0.5,635.167 -0.5,632.833 -0.5,630.5 Z"/></g>
<g><path style="opacity:0.999" fill="#2b178b" d="M -0.5,637.5 C 382.167,637.5 764.833,637.5 1147.5,637.5C 1146.07,643.141 1144.07,648.475 1141.5,653.5C 761.167,653.5 380.833,653.5 0.5,653.5C 0.166667,653.5 -0.166667,653.5 -0.5,653.5C -0.5,648.167 -0.5,642.833 -0.5,637.5 Z"/></g>
<g><path style="opacity:0.999" fill="#271686" d="M 0.5,653.5 C 380.833,653.5 761.167,653.5 1141.5,653.5C 1138.48,662.551 1134.14,670.884 1128.5,678.5C 754.833,678.5 381.167,678.5 7.5,678.5C 3.47403,670.741 1.1407,662.407 0.5,653.5 Z"/></g>
<g><path style="opacity:0.994" fill="#221480" d="M 7.5,678.5 C 381.167,678.5 754.833,678.5 1128.5,678.5C 1105.53,710.835 1074.2,729.669 1034.5,735C 717.167,735.667 399.833,735.667 82.5,735C 47.263,729.578 22.263,710.745 7.5,678.5 Z"/></g>
<g><path style="opacity:0.955" fill="#2d2f91" d="M 80.5,889.5 C 76.835,891.246 73.0017,892.579 69,893.5C 65.4358,892.3 61.9358,890.966 58.5,889.5C 53.245,885.195 47.5783,881.361 41.5,878C 38.8647,876.039 37.0314,873.539 36,870.5C 35.3333,839.167 35.3333,807.833 36,776.5C 37.1667,772 40,769.167 44.5,768C 64.1667,767.333 83.8333,767.333 103.5,768C 106.937,769.105 109.437,771.272 111,774.5C 111.667,806.5 111.667,838.5 111,870.5C 109.167,872.333 107.333,874.167 105.5,876C 96.7859,880.02 88.4525,884.52 80.5,889.5 Z M 58.5,788.5 C 68.5,788.5 78.5,788.5 88.5,788.5C 88.8331,812.842 88.4997,837.176 87.5,861.5C 81.8859,864.891 76.0526,867.891 70,870.5C 66.0114,868.672 62.3447,866.339 59,863.5C 58.5,838.502 58.3334,813.502 58.5,788.5 Z"/></g>
<g><path style="opacity:0.961" fill="#2d2f91" d="M 163.5,890.5 C 155.833,890.5 148.167,890.5 140.5,890.5C 140.5,849.833 140.5,809.167 140.5,768.5C 161.175,768.349 181.842,768.182 202.5,768C 206.896,768.73 209.73,771.23 211,775.5C 211.667,798.167 211.667,820.833 211,843.5C 209.75,846.171 207.917,848.337 205.5,850C 191.871,853.359 178.205,856.526 164.5,859.5C 163.501,869.812 163.168,880.145 163.5,890.5 Z M 163.5,788.5 C 171.833,788.5 180.167,788.5 188.5,788.5C 188.833,802.516 188.499,816.516 187.5,830.5C 179.795,832.343 172.129,834.343 164.5,836.5C 163.501,820.514 163.167,804.514 163.5,788.5 Z"/></g>
<g><path style="opacity:0.953" fill="#2d2f91" d="M 302.5,890.5 C 282.787,890.809 263.121,890.476 243.5,889.5C 240.8,887.954 238.967,885.621 238,882.5C 237.5,844.168 237.333,805.835 237.5,767.5C 259.167,767.5 280.833,767.5 302.5,767.5C 302.5,774.833 302.5,782.167 302.5,789.5C 288.5,789.5 274.5,789.5 260.5,789.5C 260.5,797.833 260.5,806.167 260.5,814.5C 273.5,814.5 286.5,814.5 299.5,814.5C 299.5,821.833 299.5,829.167 299.5,836.5C 286.5,836.5 273.5,836.5 260.5,836.5C 260.5,847.167 260.5,857.833 260.5,868.5C 274.5,868.5 288.5,868.5 302.5,868.5C 302.5,875.833 302.5,883.167 302.5,890.5 Z"/></g>
<g><path style="opacity:0.954" fill="#2d2f91" d="M 403.5,890.5 C 395.833,890.5 388.167,890.5 380.5,890.5C 380.5,856.5 380.5,822.5 380.5,788.5C 378.143,788.337 375.81,788.503 373.5,789C 366.081,793.125 358.914,797.625 352,802.5C 351.5,831.831 351.333,861.165 351.5,890.5C 344.167,890.5 336.833,890.5 329.5,890.5C 328.501,849.67 328.168,808.67 328.5,767.5C 336.167,767.5 343.833,767.5 351.5,767.5C 351.334,771.846 351.501,776.179 352,780.5C 363.807,768.669 377.974,764.503 394.5,768C 397.625,768.979 400.125,770.813 402,773.5C 403.482,812.439 403.982,851.439 403.5,890.5 Z"/></g>
<g><path style="opacity:0.956" fill="#2d2f91" d="M 540.5,890.5 C 532.833,890.5 525.167,890.5 517.5,890.5C 517.5,872.167 517.5,853.833 517.5,835.5C 507.167,835.5 496.833,835.5 486.5,835.5C 486.5,853.833 486.5,872.167 486.5,890.5C 478.833,890.5 471.167,890.5 463.5,890.5C 463.5,849.5 463.5,808.5 463.5,767.5C 471.167,767.5 478.833,767.5 486.5,767.5C 486.5,782.5 486.5,797.5 486.5,812.5C 496.833,812.5 507.167,812.5 517.5,812.5C 517.5,797.5 517.5,782.5 517.5,767.5C 525.167,767.5 532.833,767.5 540.5,767.5C 540.5,808.5 540.5,849.5 540.5,890.5 Z"/></g>
<g><path style="opacity:0.955" fill="#2d2f91" d="M 614.5,889.5 C 610.511,890.826 606.511,892.159 602.5,893.5C 598.96,892.612 595.627,891.278 592.5,889.5C 586.072,884.775 579.405,880.275 572.5,876C 571.54,874.581 570.707,873.081 570,871.5C 569.333,839.5 569.333,807.5 570,775.5C 571.167,771.667 573.667,769.167 577.5,768C 597.167,767.333 616.833,767.333 636.5,768C 640.896,768.73 643.73,771.23 645,775.5C 645.667,806.833 645.667,838.167 645,869.5C 643.878,871.624 642.378,873.457 640.5,875C 631.61,879.608 622.943,884.441 614.5,889.5 Z M 592.5,788.5 C 602.5,788.5 612.5,788.5 622.5,788.5C 622.833,812.842 622.5,837.176 621.5,861.5C 615.464,864.518 609.464,867.518 603.5,870.5C 599.928,868.935 596.595,866.935 593.5,864.5C 592.5,839.175 592.167,813.842 592.5,788.5 Z"/></g>
<g><path style="opacity:0.955" fill="#2d2f91" d="M 744.5,890.5 C 737.5,890.5 730.5,890.5 723.5,890.5C 722.789,881.859 722.289,873.192 722,864.5C 716.333,857.5 710.667,850.5 705,843.5C 702.262,844.482 699.428,845.148 696.5,845.5C 696.5,860.5 696.5,875.5 696.5,890.5C 688.833,890.5 681.167,890.5 673.5,890.5C 673.5,849.833 673.5,809.167 673.5,768.5C 694.509,768.356 715.509,768.19 736.5,768C 739.539,769.031 742.039,770.865 744,773.5C 745.626,791.434 745.959,809.434 745,827.5C 742.063,834.225 736.897,837.892 729.5,838.5C 732.818,842.318 736.318,845.985 740,849.5C 741,851.5 742,853.5 743,855.5C 743.796,867.156 744.296,878.823 744.5,890.5 Z M 696.5,788.5 C 705.167,788.5 713.833,788.5 722.5,788.5C 722.666,798.839 722.5,809.172 722,819.5C 713.623,821.943 705.123,823.943 696.5,825.5C 696.5,813.167 696.5,800.833 696.5,788.5 Z"/></g>
<g><path style="opacity:0.953" fill="#2d2f91" d="M 797.5,890.5 C 789.833,890.5 782.167,890.5 774.5,890.5C 774.5,849.5 774.5,808.5 774.5,767.5C 782.167,767.5 789.833,767.5 797.5,767.5C 797.5,808.5 797.5,849.5 797.5,890.5 Z"/></g>
<g><path style="opacity:0.947" fill="#2d2f91" d="M 893.5,890.5 C 869.5,890.5 845.5,890.5 821.5,890.5C 821.334,885.489 821.501,880.489 822,875.5C 835.767,846.799 849.934,818.299 864.5,790C 850.837,789.5 837.171,789.333 823.5,789.5C 823.5,782.167 823.5,774.833 823.5,767.5C 846.167,767.5 868.833,767.5 891.5,767.5C 891.666,772.844 891.499,778.177 891,783.5C 877.295,811.744 863.461,839.91 849.5,868C 864.163,868.5 878.83,868.667 893.5,868.5C 893.5,875.833 893.5,883.167 893.5,890.5 Z"/></g>
<g><path style="opacity:0.954" fill="#2d2f91" d="M 961.5,889.5 C 957.404,890.96 953.237,892.293 949,893.5C 945.621,892.557 942.454,891.224 939.5,889.5C 933.574,884.86 927.241,880.693 920.5,877C 918.951,875.786 917.785,874.286 917,872.5C 916.333,839.833 916.333,807.167 917,774.5C 918.587,771.244 921.087,769.077 924.5,768C 944.167,767.333 963.833,767.333 983.5,768C 988,769.167 990.833,772 992,776.5C 992.667,807.167 992.667,837.833 992,868.5C 991.31,871.196 989.81,873.363 987.5,875C 978.61,879.608 969.943,884.441 961.5,889.5 Z M 939.5,788.5 C 949.5,788.5 959.5,788.5 969.5,788.5C 969.833,812.842 969.5,837.176 968.5,861.5C 962.395,864.636 956.228,867.636 950,870.5C 946.71,868.713 943.543,866.713 940.5,864.5C 939.5,839.175 939.167,813.842 939.5,788.5 Z"/></g>
<g><path style="opacity:0.956" fill="#2d2f91" d="M 1094.5,890.5 C 1086.83,890.5 1079.17,890.5 1071.5,890.5C 1071.5,856.5 1071.5,822.5 1071.5,788.5C 1069.14,788.337 1066.81,788.503 1064.5,789C 1058,793.417 1051.33,797.584 1044.5,801.5C 1043.5,831.159 1043.17,860.826 1043.5,890.5C 1035.83,890.5 1028.17,890.5 1020.5,890.5C 1020.5,849.5 1020.5,808.5 1020.5,767.5C 1028.17,767.5 1035.83,767.5 1043.5,767.5C 1043.18,771.555 1043.51,775.555 1044.5,779.5C 1050.93,774.552 1057.93,770.719 1065.5,768C 1073.58,767.099 1081.58,767.432 1089.5,769C 1091.38,770.543 1092.88,772.376 1094,774.5C 1094.5,813.165 1094.67,851.832 1094.5,890.5 Z"/></g>
<g><path style="opacity:0.258" fill="#272a7f" d="M 58.5,889.5 C 61.9358,890.966 65.4358,892.3 69,893.5C 73.0017,892.579 76.835,891.246 80.5,889.5C 89.9671,894.401 99.3004,899.567 108.5,905C 111.029,907.642 112.029,910.808 111.5,914.5C 102.167,914.5 92.8333,914.5 83.5,914.5C 78.8497,912.509 74.1831,910.509 69.5,908.5C 65.8226,910.518 62.1559,912.518 58.5,914.5C 50.8333,914.5 43.1667,914.5 35.5,914.5C 35.2628,910.59 36.0961,906.923 38,903.5C 44.986,898.934 51.8193,894.267 58.5,889.5 Z"/></g>
<g><path style="opacity:0.283" fill="#272a80" d="M 243.5,889.5 C 263.121,890.476 282.787,890.809 302.5,890.5C 302.5,896.833 302.5,903.167 302.5,909.5C 288.5,909.5 274.5,909.5 260.5,909.5C 260.5,911.167 260.5,912.833 260.5,914.5C 252.833,914.5 245.167,914.5 237.5,914.5C 237.334,908.491 237.501,902.491 238,896.5C 238.935,893.405 240.769,891.071 243.5,889.5 Z"/></g>
<g><path style="opacity:0.259" fill="#272a7f" d="M 592.5,889.5 C 595.627,891.278 598.96,892.612 602.5,893.5C 606.511,892.159 610.511,890.826 614.5,889.5C 622.668,894.136 631.002,898.636 639.5,903C 643.762,905.691 645.762,909.524 645.5,914.5C 636.167,914.5 626.833,914.5 617.5,914.5C 612.85,912.509 608.183,910.509 603.5,908.5C 599.683,910.241 596.017,912.241 592.5,914.5C 584.833,914.5 577.167,914.5 569.5,914.5C 569.184,911.022 569.684,907.688 571,904.5C 578.07,899.247 585.236,894.247 592.5,889.5 Z"/></g>
<g><path style="opacity:0.259" fill="#272a7f" d="M 939.5,889.5 C 942.454,891.224 945.621,892.557 949,893.5C 953.237,892.293 957.404,890.96 961.5,889.5C 969.943,894.559 978.61,899.392 987.5,904C 990.985,906.617 992.652,910.117 992.5,914.5C 982.833,914.5 973.167,914.5 963.5,914.5C 958.948,912.307 954.448,909.974 950,907.5C 946.729,910.216 943.229,912.549 939.5,914.5C 931.833,914.5 924.167,914.5 916.5,914.5C 916.184,911.022 916.684,907.688 918,904.5C 925.047,899.28 932.213,894.28 939.5,889.5 Z"/></g>
<g><path style="opacity:0.272" fill="#272a80" d="M 140.5,890.5 C 148.167,890.5 155.833,890.5 163.5,890.5C 163.5,898.5 163.5,906.5 163.5,914.5C 155.833,914.5 148.167,914.5 140.5,914.5C 140.5,906.5 140.5,898.5 140.5,890.5 Z"/></g>
<g><path style="opacity:0.284" fill="#272a80" d="M 329.5,890.5 C 336.833,890.5 344.167,890.5 351.5,890.5C 351.5,898.5 351.5,906.5 351.5,914.5C 344.167,914.5 336.833,914.5 329.5,914.5C 329.5,906.5 329.5,898.5 329.5,890.5 Z"/></g>
<g><path style="opacity:0.27" fill="#272a80" d="M 380.5,890.5 C 388.167,890.5 395.833,890.5 403.5,890.5C 403.5,898.5 403.5,906.5 403.5,914.5C 395.833,914.5 388.167,914.5 380.5,914.5C 380.5,906.5 380.5,898.5 380.5,890.5 Z"/></g>
<g><path style="opacity:0.272" fill="#272a80" d="M 463.5,890.5 C 471.167,890.5 478.833,890.5 486.5,890.5C 486.5,898.5 486.5,906.5 486.5,914.5C 478.833,914.5 471.167,914.5 463.5,914.5C 463.5,906.5 463.5,898.5 463.5,890.5 Z"/></g>
<g><path style="opacity:0.268" fill="#272a80" d="M 517.5,890.5 C 525.167,890.5 532.833,890.5 540.5,890.5C 540.5,898.5 540.5,906.5 540.5,914.5C 532.833,914.5 525.167,914.5 517.5,914.5C 517.5,906.5 517.5,898.5 517.5,890.5 Z"/></g>
<g><path style="opacity:0.27" fill="#272a80" d="M 673.5,890.5 C 681.167,890.5 688.833,890.5 696.5,890.5C 696.5,898.5 696.5,906.5 696.5,914.5C 688.833,914.5 681.167,914.5 673.5,914.5C 673.5,906.5 673.5,898.5 673.5,890.5 Z"/></g>
<g><path style="opacity:0.269" fill="#272a80" d="M 723.5,890.5 C 730.5,890.5 737.5,890.5 744.5,890.5C 744.356,898.51 744.023,906.51 743.5,914.5C 736.5,914.5 729.5,914.5 722.5,914.5C 722.23,906.445 722.563,898.445 723.5,890.5 Z"/></g>
<g><path style="opacity:0.263" fill="#272a80" d="M 774.5,890.5 C 782.167,890.5 789.833,890.5 797.5,890.5C 797.5,898.5 797.5,906.5 797.5,914.5C 789.833,914.5 782.167,914.5 774.5,914.5C 774.5,906.5 774.5,898.5 774.5,890.5 Z"/></g>
<g><path style="opacity:0.284" fill="#272a80" d="M 821.5,890.5 C 845.5,890.5 869.5,890.5 893.5,890.5C 893.5,896.833 893.5,903.167 893.5,909.5C 878.818,909.167 864.152,909.501 849.5,910.5C 850.18,911.86 850.847,913.193 851.5,914.5C 843.5,914.5 835.5,914.5 827.5,914.5C 822.548,907.255 820.548,899.255 821.5,890.5 Z"/></g>
<g><path style="opacity:0.268" fill="#272a80" d="M 1020.5,890.5 C 1028.17,890.5 1035.83,890.5 1043.5,890.5C 1043.5,898.5 1043.5,906.5 1043.5,914.5C 1035.83,914.5 1028.17,914.5 1020.5,914.5C 1020.5,906.5 1020.5,898.5 1020.5,890.5 Z"/></g>
<g><path style="opacity:0.274" fill="#272a80" d="M 1071.5,890.5 C 1079.17,890.5 1086.83,890.5 1094.5,890.5C 1094.5,898.5 1094.5,906.5 1094.5,914.5C 1086.83,914.5 1079.17,914.5 1071.5,914.5C 1071.5,906.5 1071.5,898.5 1071.5,890.5 Z"/></g>
<g><path style="opacity:0.183" fill="#22246d" d="M 35.5,914.5 C 43.1667,914.5 50.8333,914.5 58.5,914.5C 58.5,918.167 58.5,921.833 58.5,925.5C 50.8333,925.5 43.1667,925.5 35.5,925.5C 35.5,921.833 35.5,918.167 35.5,914.5 Z"/></g>
<g><path style="opacity:0.186" fill="#22246d" d="M 83.5,914.5 C 92.8333,914.5 102.167,914.5 111.5,914.5C 111.5,918.167 111.5,921.833 111.5,925.5C 103.833,925.5 96.1667,925.5 88.5,925.5C 88.6641,922.813 88.4974,920.146 88,917.5C 86.3484,916.601 84.8484,915.601 83.5,914.5 Z"/></g>
<g><path style="opacity:0.183" fill="#22246d" d="M 237.5,914.5 C 245.167,914.5 252.833,914.5 260.5,914.5C 260.5,918.167 260.5,921.833 260.5,925.5C 252.833,925.5 245.167,925.5 237.5,925.5C 237.5,921.833 237.5,918.167 237.5,914.5 Z"/></g>
<g><path style="opacity:0.194" fill="#22246d" d="M 329.5,914.5 C 336.833,914.5 344.167,914.5 351.5,914.5C 351.5,918.167 351.5,921.833 351.5,925.5C 344.167,925.5 336.833,925.5 329.5,925.5C 329.5,921.833 329.5,918.167 329.5,914.5 Z"/></g>
<g><path style="opacity:0.184" fill="#22246d" d="M 380.5,914.5 C 388.167,914.5 395.833,914.5 403.5,914.5C 403.5,918.167 403.5,921.833 403.5,925.5C 395.833,925.5 388.167,925.5 380.5,925.5C 380.5,921.833 380.5,918.167 380.5,914.5 Z"/></g>
<g><path style="opacity:0.186" fill="#22246d" d="M 463.5,914.5 C 471.167,914.5 478.833,914.5 486.5,914.5C 486.5,918.167 486.5,921.833 486.5,925.5C 478.833,925.5 471.167,925.5 463.5,925.5C 463.5,921.833 463.5,918.167 463.5,914.5 Z"/></g>
<g><path style="opacity:0.183" fill="#22246d" d="M 517.5,914.5 C 525.167,914.5 532.833,914.5 540.5,914.5C 540.5,918.167 540.5,921.833 540.5,925.5C 532.833,925.5 525.167,925.5 517.5,925.5C 517.5,921.833 517.5,918.167 517.5,914.5 Z"/></g>
<g><path style="opacity:0.184" fill="#22246d" d="M 569.5,914.5 C 577.167,914.5 584.833,914.5 592.5,914.5C 592.5,918.167 592.5,921.833 592.5,925.5C 584.833,925.5 577.167,925.5 569.5,925.5C 569.5,921.833 569.5,918.167 569.5,914.5 Z"/></g>
<g><path style="opacity:0.184" fill="#22246d" d="M 617.5,914.5 C 626.833,914.5 636.167,914.5 645.5,914.5C 645.5,918.167 645.5,921.833 645.5,925.5C 637.833,925.5 630.167,925.5 622.5,925.5C 622.664,922.813 622.497,920.146 622,917.5C 620.348,916.601 618.848,915.601 617.5,914.5 Z"/></g>
<g><path style="opacity:0.184" fill="#22246d" d="M 673.5,914.5 C 681.167,914.5 688.833,914.5 696.5,914.5C 696.5,918.167 696.5,921.833 696.5,925.5C 688.833,925.5 681.167,925.5 673.5,925.5C 673.5,921.833 673.5,918.167 673.5,914.5 Z"/></g>
<g><path style="opacity:0.184" fill="#22246d" d="M 722.5,914.5 C 729.5,914.5 736.5,914.5 743.5,914.5C 743.884,918.489 743.217,922.155 741.5,925.5C 732.167,925.5 722.833,925.5 713.5,925.5C 716.152,921.518 719.152,917.851 722.5,914.5 Z"/></g>
<g><path style="opacity:0.18" fill="#22246d" d="M 774.5,914.5 C 782.167,914.5 789.833,914.5 797.5,914.5C 797.5,918.167 797.5,921.833 797.5,925.5C 789.833,925.5 782.167,925.5 774.5,925.5C 774.5,921.833 774.5,918.167 774.5,914.5 Z"/></g>
<g><path style="opacity:0.181" fill="#22246d" d="M 827.5,914.5 C 835.5,914.5 843.5,914.5 851.5,914.5C 853.438,918.043 855.105,921.71 856.5,925.5C 848.833,925.5 841.167,925.5 833.5,925.5C 831.262,922.028 829.262,918.362 827.5,914.5 Z"/></g>
<g><path style="opacity:0.187" fill="#22246d" d="M 916.5,914.5 C 924.167,914.5 931.833,914.5 939.5,914.5C 939.5,918.167 939.5,921.833 939.5,925.5C 931.833,925.5 924.167,925.5 916.5,925.5C 916.5,921.833 916.5,918.167 916.5,914.5 Z"/></g>
<g><path style="opacity:0.184" fill="#22246d" d="M 963.5,914.5 C 973.167,914.5 982.833,914.5 992.5,914.5C 992.5,918.167 992.5,921.833 992.5,925.5C 984.833,925.5 977.167,925.5 969.5,925.5C 969.813,922.753 969.48,920.086 968.5,917.5C 966.604,916.725 964.937,915.725 963.5,914.5 Z"/></g>
<g><path style="opacity:0.183" fill="#22246d" d="M 1020.5,914.5 C 1028.17,914.5 1035.83,914.5 1043.5,914.5C 1043.5,918.167 1043.5,921.833 1043.5,925.5C 1035.83,925.5 1028.17,925.5 1020.5,925.5C 1020.5,921.833 1020.5,918.167 1020.5,914.5 Z"/></g>
<g><path style="opacity:0.187" fill="#22246d" d="M 1071.5,914.5 C 1079.17,914.5 1086.83,914.5 1094.5,914.5C 1094.5,918.167 1094.5,921.833 1094.5,925.5C 1086.83,925.5 1079.17,925.5 1071.5,925.5C 1071.5,921.833 1071.5,918.167 1071.5,914.5 Z"/></g>
<g><path style="opacity:0.163" fill="#1f2063" d="M 140.5,914.5 C 148.167,914.5 155.833,914.5 163.5,914.5C 163.5,916.167 163.5,917.833 163.5,919.5C 175.5,921.933 187.5,924.433 199.5,927C 202.599,927.387 205.266,928.554 207.5,930.5C 185.167,930.5 162.833,930.5 140.5,930.5C 140.5,925.167 140.5,919.833 140.5,914.5 Z"/></g>
<g><path style="opacity:0.152" fill="#1c1d5a" d="M 35.5,925.5 C 43.1667,925.5 50.8333,925.5 58.5,925.5C 58.5,929.167 58.5,932.833 58.5,936.5C 50.8333,936.5 43.1667,936.5 35.5,936.5C 35.5,932.833 35.5,929.167 35.5,925.5 Z"/></g>
<g><path style="opacity:0.154" fill="#1c1d5a" d="M 88.5,925.5 C 96.1667,925.5 103.833,925.5 111.5,925.5C 111.5,929.167 111.5,932.833 111.5,936.5C 103.833,936.5 96.1667,936.5 88.5,936.5C 88.5,932.833 88.5,929.167 88.5,925.5 Z"/></g>
<g><path style="opacity:0.152" fill="#1c1d5a" d="M 237.5,925.5 C 245.167,925.5 252.833,925.5 260.5,925.5C 260.5,929.167 260.5,932.833 260.5,936.5C 252.833,936.5 245.167,936.5 237.5,936.5C 237.5,932.833 237.5,929.167 237.5,925.5 Z"/></g>
<g><path style="opacity:0.152" fill="#1c1d5a" d="M 380.5,925.5 C 388.167,925.5 395.833,925.5 403.5,925.5C 403.5,929.167 403.5,932.833 403.5,936.5C 395.833,936.5 388.167,936.5 380.5,936.5C 380.5,932.833 380.5,929.167 380.5,925.5 Z"/></g>
<g><path style="opacity:0.154" fill="#1c1d5a" d="M 463.5,925.5 C 471.167,925.5 478.833,925.5 486.5,925.5C 486.5,929.167 486.5,932.833 486.5,936.5C 478.833,936.5 471.167,936.5 463.5,936.5C 463.5,932.833 463.5,929.167 463.5,925.5 Z"/></g>
<g><path style="opacity:0.152" fill="#1c1d5a" d="M 517.5,925.5 C 525.167,925.5 532.833,925.5 540.5,925.5C 540.5,929.167 540.5,932.833 540.5,936.5C 532.833,936.5 525.167,936.5 517.5,936.5C 517.5,932.833 517.5,929.167 517.5,925.5 Z"/></g>
<g><path style="opacity:0.152" fill="#1c1d5a" d="M 569.5,925.5 C 577.167,925.5 584.833,925.5 592.5,925.5C 592.5,929.167 592.5,932.833 592.5,936.5C 584.833,936.5 577.167,936.5 569.5,936.5C 569.5,932.833 569.5,929.167 569.5,925.5 Z"/></g>
<g><path style="opacity:0.152" fill="#1c1d5a" d="M 622.5,925.5 C 630.167,925.5 637.833,925.5 645.5,925.5C 645.5,929.167 645.5,932.833 645.5,936.5C 637.833,936.5 630.167,936.5 622.5,936.5C 622.5,932.833 622.5,929.167 622.5,925.5 Z"/></g>
<g><path style="opacity:0.149" fill="#1c1d5a" d="M 774.5,925.5 C 782.167,925.5 789.833,925.5 797.5,925.5C 797.5,929.167 797.5,932.833 797.5,936.5C 789.833,936.5 782.167,936.5 774.5,936.5C 774.5,932.833 774.5,929.167 774.5,925.5 Z"/></g>
<g><path style="opacity:0.15" fill="#1c1d5a" d="M 833.5,925.5 C 841.167,925.5 848.833,925.5 856.5,925.5C 858.957,928.751 860.624,932.418 861.5,936.5C 853.833,936.5 846.167,936.5 838.5,936.5C 836.562,932.957 834.895,929.29 833.5,925.5 Z"/></g>
<g><path style="opacity:0.155" fill="#1c1d5a" d="M 916.5,925.5 C 924.167,925.5 931.833,925.5 939.5,925.5C 939.5,929.167 939.5,932.833 939.5,936.5C 931.833,936.5 924.167,936.5 916.5,936.5C 916.5,932.833 916.5,929.167 916.5,925.5 Z"/></g>
<g><path style="opacity:0.152" fill="#1c1d5a" d="M 969.5,925.5 C 977.167,925.5 984.833,925.5 992.5,925.5C 992.5,929.167 992.5,932.833 992.5,936.5C 984.833,936.5 977.167,936.5 969.5,936.5C 969.5,932.833 969.5,929.167 969.5,925.5 Z"/></g>
<g><path style="opacity:0.152" fill="#1c1d5a" d="M 1020.5,925.5 C 1028.17,925.5 1035.83,925.5 1043.5,925.5C 1043.5,929.167 1043.5,932.833 1043.5,936.5C 1035.83,936.5 1028.17,936.5 1020.5,936.5C 1020.5,932.833 1020.5,929.167 1020.5,925.5 Z"/></g>
<g><path style="opacity:0.155" fill="#1c1d5a" d="M 1071.5,925.5 C 1079.17,925.5 1086.83,925.5 1094.5,925.5C 1094.5,929.167 1094.5,932.833 1094.5,936.5C 1086.83,936.5 1079.17,936.5 1071.5,936.5C 1071.5,932.833 1071.5,929.167 1071.5,925.5 Z"/></g>
<g><path style="opacity:0.141" fill="#1c1d59" d="M 673.5,925.5 C 681.167,925.5 688.833,925.5 696.5,925.5C 696.5,928.167 696.5,930.833 696.5,933.5C 699.493,934.135 702.493,934.301 705.5,934C 708.067,930.997 710.734,928.164 713.5,925.5C 722.833,925.5 732.167,925.5 741.5,925.5C 739.628,930.043 736.628,933.71 732.5,936.5C 712.833,936.5 693.167,936.5 673.5,936.5C 673.5,932.833 673.5,929.167 673.5,925.5 Z"/></g>
<g><path style="opacity:0.134" fill="#191a50" d="M 140.5,930.5 C 162.833,930.5 185.167,930.5 207.5,930.5C 210.758,933.369 212.091,937.036 211.5,941.5C 187.833,941.5 164.167,941.5 140.5,941.5C 140.5,937.833 140.5,934.167 140.5,930.5 Z"/></g>
<g><path style="opacity:0.12" fill="#13143f" d="M 140.5,941.5 C 164.167,941.5 187.833,941.5 211.5,941.5C 211.5,947.167 211.5,952.833 211.5,958.5C 203.833,958.5 196.167,958.5 188.5,958.5C 188.789,954.894 188.456,951.394 187.5,948C 179.558,945.847 171.558,944.014 163.5,942.5C 163.5,947.833 163.5,953.167 163.5,958.5C 155.833,958.5 148.167,958.5 140.5,958.5C 140.5,952.833 140.5,947.167 140.5,941.5 Z"/></g>
<g><path style="opacity:0.127" fill="#191a4f" d="M 329.5,925.5 C 336.833,925.5 344.167,925.5 351.5,925.5C 351.5,932.167 351.5,938.833 351.5,945.5C 344.167,945.5 336.833,945.5 329.5,945.5C 329.5,938.833 329.5,932.167 329.5,925.5 Z"/></g>
<g><path style="opacity:0.122" fill="#161747" d="M 673.5,936.5 C 693.167,936.5 712.833,936.5 732.5,936.5C 731.71,937.794 730.71,938.961 729.5,940C 732.786,941.328 736.119,942.661 739.5,944C 741.464,945.451 742.797,947.284 743.5,949.5C 720.167,949.5 696.833,949.5 673.5,949.5C 673.5,945.167 673.5,940.833 673.5,936.5 Z"/></g>
<g><path style="opacity:0.114" fill="#151543" d="M 237.5,936.5 C 245.167,936.5 252.833,936.5 260.5,936.5C 260.5,938.5 260.5,940.5 260.5,942.5C 273.5,942.5 286.5,942.5 299.5,942.5C 299.5,944.833 299.5,947.167 299.5,949.5C 278.833,949.5 258.167,949.5 237.5,949.5C 237.5,945.167 237.5,940.833 237.5,936.5 Z"/></g>
<g><path style="opacity:0.115" fill="#151643" d="M 463.5,936.5 C 471.167,936.5 478.833,936.5 486.5,936.5C 486.5,938.833 486.5,941.167 486.5,943.5C 496.833,943.5 507.167,943.5 517.5,943.5C 517.5,941.167 517.5,938.833 517.5,936.5C 525.167,936.5 532.833,936.5 540.5,936.5C 540.5,940.833 540.5,945.167 540.5,949.5C 514.833,949.5 489.167,949.5 463.5,949.5C 463.5,945.167 463.5,940.833 463.5,936.5 Z"/></g>
<g><path style="opacity:0.1" fill="#13143e" d="M 35.5,936.5 C 43.1667,936.5 50.8333,936.5 58.5,936.5C 58.5,943.833 58.5,951.167 58.5,958.5C 50.8333,958.5 43.1667,958.5 35.5,958.5C 35.5,951.167 35.5,943.833 35.5,936.5 Z"/></g>
<g><path style="opacity:0.101" fill="#13143e" d="M 88.5,936.5 C 96.1667,936.5 103.833,936.5 111.5,936.5C 111.5,943.833 111.5,951.167 111.5,958.5C 103.833,958.5 96.1667,958.5 88.5,958.5C 88.5,951.167 88.5,943.833 88.5,936.5 Z"/></g>
<g><path style="opacity:0.106" fill="#12133a" d="M 329.5,945.5 C 336.833,945.5 344.167,945.5 351.5,945.5C 351.5,949.833 351.5,954.167 351.5,958.5C 344.167,958.5 336.833,958.5 329.5,958.5C 329.5,954.167 329.5,949.833 329.5,945.5 Z"/></g>
<g><path style="opacity:0.1" fill="#13143e" d="M 380.5,936.5 C 388.167,936.5 395.833,936.5 403.5,936.5C 403.5,943.833 403.5,951.167 403.5,958.5C 395.833,958.5 388.167,958.5 380.5,958.5C 380.5,951.167 380.5,943.833 380.5,936.5 Z"/></g>
<g><path style="opacity:0.1" fill="#13143e" d="M 569.5,936.5 C 577.167,936.5 584.833,936.5 592.5,936.5C 592.5,943.833 592.5,951.167 592.5,958.5C 584.833,958.5 577.167,958.5 569.5,958.5C 569.5,951.167 569.5,943.833 569.5,936.5 Z"/></g>
<g><path style="opacity:0.1" fill="#13143e" d="M 622.5,936.5 C 630.167,936.5 637.833,936.5 645.5,936.5C 645.5,943.833 645.5,951.167 645.5,958.5C 637.833,958.5 630.167,958.5 622.5,958.5C 622.5,951.167 622.5,943.833 622.5,936.5 Z"/></g>
<g><path style="opacity:0.103" fill="#111238" d="M 673.5,949.5 C 696.833,949.5 720.167,949.5 743.5,949.5C 745.118,952.171 745.785,955.171 745.5,958.5C 737.833,958.5 730.167,958.5 722.5,958.5C 713.877,956.943 705.377,954.943 697,952.5C 696.505,954.473 696.338,956.473 696.5,958.5C 688.833,958.5 681.167,958.5 673.5,958.5C 673.5,955.5 673.5,952.5 673.5,949.5 Z"/></g>
<g><path style="opacity:0.098" fill="#13143e" d="M 774.5,936.5 C 782.167,936.5 789.833,936.5 797.5,936.5C 797.5,943.833 797.5,951.167 797.5,958.5C 789.833,958.5 782.167,958.5 774.5,958.5C 774.5,951.167 774.5,943.833 774.5,936.5 Z"/></g>
<g><path style="opacity:0.101" fill="#13143e" d="M 838.5,936.5 C 846.167,936.5 853.833,936.5 861.5,936.5C 865.675,943.516 869.341,950.849 872.5,958.5C 864.833,958.5 857.167,958.5 849.5,958.5C 845.833,951.167 842.167,943.833 838.5,936.5 Z"/></g>
<g><path style="opacity:0.102" fill="#13143e" d="M 916.5,936.5 C 924.167,936.5 931.833,936.5 939.5,936.5C 939.5,943.833 939.5,951.167 939.5,958.5C 931.833,958.5 924.167,958.5 916.5,958.5C 916.5,951.167 916.5,943.833 916.5,936.5 Z"/></g>
<g><path style="opacity:0.1" fill="#13143e" d="M 969.5,936.5 C 977.167,936.5 984.833,936.5 992.5,936.5C 992.5,943.833 992.5,951.167 992.5,958.5C 984.833,958.5 977.167,958.5 969.5,958.5C 969.5,951.167 969.5,943.833 969.5,936.5 Z"/></g>
<g><path style="opacity:0.1" fill="#13143e" d="M 1020.5,936.5 C 1028.17,936.5 1035.83,936.5 1043.5,936.5C 1043.5,943.833 1043.5,951.167 1043.5,958.5C 1035.83,958.5 1028.17,958.5 1020.5,958.5C 1020.5,951.167 1020.5,943.833 1020.5,936.5 Z"/></g>
<g><path style="opacity:0.102" fill="#13143e" d="M 1071.5,936.5 C 1079.17,936.5 1086.83,936.5 1094.5,936.5C 1094.5,943.833 1094.5,951.167 1094.5,958.5C 1086.83,958.5 1079.17,958.5 1071.5,958.5C 1071.5,951.167 1071.5,943.833 1071.5,936.5 Z"/></g>
<g><path style="opacity:0.091" fill="#111136" d="M 237.5,949.5 C 258.167,949.5 278.833,949.5 299.5,949.5C 299.5,952.5 299.5,955.5 299.5,958.5C 278.833,958.5 258.167,958.5 237.5,958.5C 237.5,955.5 237.5,952.5 237.5,949.5 Z"/></g>
<g><path style="opacity:0.092" fill="#111136" d="M 463.5,949.5 C 489.167,949.5 514.833,949.5 540.5,949.5C 540.5,952.5 540.5,955.5 540.5,958.5C 514.833,958.5 489.167,958.5 463.5,958.5C 463.5,955.5 463.5,952.5 463.5,949.5 Z"/></g>
<g><path style="opacity:0.081" fill="#0e0e2a" d="M 237.5,958.5 C 258.167,958.5 278.833,958.5 299.5,958.5C 299.5,960.5 299.5,962.5 299.5,964.5C 286.5,964.5 273.5,964.5 260.5,964.5C 260.5,967.167 260.5,969.833 260.5,972.5C 252.833,972.5 245.167,972.5 237.5,972.5C 237.5,967.833 237.5,963.167 237.5,958.5 Z"/></g>
<g><path style="opacity:0.071" fill="#0d0d28" d="M 463.5,958.5 C 489.167,958.5 514.833,958.5 540.5,958.5C 540.5,963.167 540.5,967.833 540.5,972.5C 532.833,972.5 525.167,972.5 517.5,972.5C 517.5,970.167 517.5,967.833 517.5,965.5C 507.167,965.5 496.833,965.5 486.5,965.5C 486.5,967.833 486.5,970.167 486.5,972.5C 478.833,972.5 471.167,972.5 463.5,972.5C 463.5,967.833 463.5,963.167 463.5,958.5 Z"/></g>
<g><path style="opacity:0.058" fill="#0c0c25" d="M 35.5,958.5 C 43.1667,958.5 50.8333,958.5 58.5,958.5C 58.5,963.167 58.5,967.833 58.5,972.5C 50.8333,972.5 43.1667,972.5 35.5,972.5C 35.5,967.833 35.5,963.167 35.5,958.5 Z"/></g>
<g><path style="opacity:0.058" fill="#0c0c25" d="M 88.5,958.5 C 96.1667,958.5 103.833,958.5 111.5,958.5C 111.5,963.167 111.5,967.833 111.5,972.5C 103.833,972.5 96.1667,972.5 88.5,972.5C 88.5,967.833 88.5,963.167 88.5,958.5 Z"/></g>
<g><path style="opacity:0.058" fill="#0c0c25" d="M 140.5,958.5 C 148.167,958.5 155.833,958.5 163.5,958.5C 163.5,963.167 163.5,967.833 163.5,972.5C 155.833,972.5 148.167,972.5 140.5,972.5C 140.5,967.833 140.5,963.167 140.5,958.5 Z"/></g>
<g><path style="opacity:0.057" fill="#0c0c25" d="M 188.5,958.5 C 196.167,958.5 203.833,958.5 211.5,958.5C 211.5,963.167 211.5,967.833 211.5,972.5C 203.833,972.5 196.167,972.5 188.5,972.5C 188.5,967.833 188.5,963.167 188.5,958.5 Z"/></g>
<g><path style="opacity:0.061" fill="#0c0c25" d="M 329.5,958.5 C 336.833,958.5 344.167,958.5 351.5,958.5C 351.5,963.167 351.5,967.833 351.5,972.5C 344.167,972.5 336.833,972.5 329.5,972.5C 329.5,967.833 329.5,963.167 329.5,958.5 Z"/></g>
<g><path style="opacity:0.058" fill="#0c0c25" d="M 380.5,958.5 C 388.167,958.5 395.833,958.5 403.5,958.5C 403.5,963.167 403.5,967.833 403.5,972.5C 395.833,972.5 388.167,972.5 380.5,972.5C 380.5,967.833 380.5,963.167 380.5,958.5 Z"/></g>
<g><path style="opacity:0.058" fill="#0c0c25" d="M 569.5,958.5 C 577.167,958.5 584.833,958.5 592.5,958.5C 592.5,963.167 592.5,967.833 592.5,972.5C 584.833,972.5 577.167,972.5 569.5,972.5C 569.5,967.833 569.5,963.167 569.5,958.5 Z"/></g>
<g><path style="opacity:0.058" fill="#0c0c25" d="M 622.5,958.5 C 630.167,958.5 637.833,958.5 645.5,958.5C 645.5,963.167 645.5,967.833 645.5,972.5C 637.833,972.5 630.167,972.5 622.5,972.5C 622.5,967.833 622.5,963.167 622.5,958.5 Z"/></g>
<g><path style="opacity:0.06" fill="#0c0c25" d="M 673.5,958.5 C 681.167,958.5 688.833,958.5 696.5,958.5C 696.5,963.167 696.5,967.833 696.5,972.5C 689.167,972.5 681.833,972.5 674.5,972.5C 673.873,967.859 673.54,963.193 673.5,958.5 Z"/></g>
<g><path style="opacity:0.058" fill="#0c0c25" d="M 722.5,958.5 C 730.167,958.5 737.833,958.5 745.5,958.5C 745.5,963.167 745.5,967.833 745.5,972.5C 737.833,972.5 730.167,972.5 722.5,972.5C 722.5,967.833 722.5,963.167 722.5,958.5 Z"/></g>
<g><path style="opacity:0.056" fill="#0c0c25" d="M 774.5,958.5 C 782.167,958.5 789.833,958.5 797.5,958.5C 797.5,963.167 797.5,967.833 797.5,972.5C 789.833,972.5 782.167,972.5 774.5,972.5C 774.5,967.833 774.5,963.167 774.5,958.5 Z"/></g>
<g><path style="opacity:0.057" fill="#0c0c25" d="M 849.5,958.5 C 857.167,958.5 864.833,958.5 872.5,958.5C 875.341,962.849 877.674,967.516 879.5,972.5C 871.833,972.5 864.167,972.5 856.5,972.5C 853.657,968.147 851.323,963.48 849.5,958.5 Z"/></g>
<g><path style="opacity:0.058" fill="#0c0c25" d="M 916.5,958.5 C 924.167,958.5 931.833,958.5 939.5,958.5C 939.5,963.167 939.5,967.833 939.5,972.5C 931.833,972.5 924.167,972.5 916.5,972.5C 916.5,967.833 916.5,963.167 916.5,958.5 Z"/></g>
<g><path style="opacity:0.058" fill="#0c0c25" d="M 969.5,958.5 C 977.167,958.5 984.833,958.5 992.5,958.5C 992.5,963.167 992.5,967.833 992.5,972.5C 984.833,972.5 977.167,972.5 969.5,972.5C 969.5,967.833 969.5,963.167 969.5,958.5 Z"/></g>
<g><path style="opacity:0.057" fill="#0c0c25" d="M 1020.5,958.5 C 1028.17,958.5 1035.83,958.5 1043.5,958.5C 1043.5,963.167 1043.5,967.833 1043.5,972.5C 1035.83,972.5 1028.17,972.5 1020.5,972.5C 1020.5,967.833 1020.5,963.167 1020.5,958.5 Z"/></g>
<g><path style="opacity:0.058" fill="#0c0c25" d="M 1071.5,958.5 C 1079.17,958.5 1086.83,958.5 1094.5,958.5C 1094.5,963.167 1094.5,967.833 1094.5,972.5C 1086.83,972.5 1079.17,972.5 1071.5,972.5C 1071.5,967.833 1071.5,963.167 1071.5,958.5 Z"/></g>
<g><path style="opacity:0.015" fill="#03030c" d="M 35.5,972.5 C 43.1667,972.5 50.8333,972.5 58.5,972.5C 58.5,978.5 58.5,984.5 58.5,990.5C 68.5,990.5 78.5,990.5 88.5,990.5C 88.5,984.5 88.5,978.5 88.5,972.5C 96.1667,972.5 103.833,972.5 111.5,972.5C 111.808,982.915 111.475,993.249 110.5,1003.5C 85.8333,1003.5 61.1667,1003.5 36.5,1003.5C 36.3514,993.159 36.0181,982.826 35.5,972.5 Z"/></g>
<g><path style="opacity:0.015" fill="#03030c" d="M 140.5,972.5 C 148.167,972.5 155.833,972.5 163.5,972.5C 163.5,978.5 163.5,984.5 163.5,990.5C 171.833,990.5 180.167,990.5 188.5,990.5C 188.5,984.5 188.5,978.5 188.5,972.5C 196.167,972.5 203.833,972.5 211.5,972.5C 211.733,982.865 211.4,993.198 210.5,1003.5C 187.167,1003.5 163.833,1003.5 140.5,1003.5C 140.5,993.167 140.5,982.833 140.5,972.5 Z"/></g>
<g><path style="opacity:0.016" fill="#03030c" d="M 329.5,972.5 C 336.833,972.5 344.167,972.5 351.5,972.5C 351.178,974.722 351.845,976.556 353.5,978C 360.167,982 366.833,986 373.5,990C 375.81,990.497 378.143,990.663 380.5,990.5C 380.5,984.5 380.5,978.5 380.5,972.5C 388.167,972.5 395.833,972.5 403.5,972.5C 403.208,982.835 402.875,993.168 402.5,1003.5C 388.167,1003.5 373.833,1003.5 359.5,1003.5C 357.41,1001.61 355.077,999.943 352.5,998.5C 351.548,1000.05 351.215,1001.71 351.5,1003.5C 344.167,1003.5 336.833,1003.5 329.5,1003.5C 329.5,993.167 329.5,982.833 329.5,972.5 Z"/></g>
<g><path style="opacity:0.015" fill="#03030c" d="M 569.5,972.5 C 577.167,972.5 584.833,972.5 592.5,972.5C 592.5,978.5 592.5,984.5 592.5,990.5C 602.5,990.5 612.5,990.5 622.5,990.5C 622.5,984.5 622.5,978.5 622.5,972.5C 630.167,972.5 637.833,972.5 645.5,972.5C 645.786,982.885 645.452,993.218 644.5,1003.5C 619.833,1003.5 595.167,1003.5 570.5,1003.5C 569.548,993.218 569.214,982.885 569.5,972.5 Z"/></g>
<g><path style="opacity:0.015" fill="#03030c" d="M 674.5,972.5 C 681.833,972.5 689.167,972.5 696.5,972.5C 696.5,978.5 696.5,984.5 696.5,990.5C 705.167,990.5 713.833,990.5 722.5,990.5C 722.5,984.5 722.5,978.5 722.5,972.5C 730.167,972.5 737.833,972.5 745.5,972.5C 744.695,982.812 744.362,993.146 744.5,1003.5C 721.167,1003.5 697.833,1003.5 674.5,1003.5C 674.5,993.167 674.5,982.833 674.5,972.5 Z"/></g>
<g><path style="opacity:0.015" fill="#03030c" d="M 916.5,972.5 C 924.167,972.5 931.833,972.5 939.5,972.5C 939.5,978.5 939.5,984.5 939.5,990.5C 949.5,990.5 959.5,990.5 969.5,990.5C 969.5,984.5 969.5,978.5 969.5,972.5C 977.167,972.5 984.833,972.5 992.5,972.5C 992.601,982.852 992.267,993.185 991.5,1003.5C 966.833,1003.5 942.167,1003.5 917.5,1003.5C 916.525,993.249 916.192,982.915 916.5,972.5 Z"/></g>
<g><path style="opacity:0.016" fill="#03030c" d="M 1020.5,972.5 C 1028.17,972.5 1035.83,972.5 1043.5,972.5C 1043.21,974.288 1043.55,975.955 1044.5,977.5C 1051.33,981.416 1058,985.583 1064.5,990C 1066.81,990.497 1069.14,990.663 1071.5,990.5C 1071.5,984.5 1071.5,978.5 1071.5,972.5C 1079.17,972.5 1086.83,972.5 1094.5,972.5C 1094.81,982.915 1094.47,993.249 1093.5,1003.5C 1079.5,1003.5 1065.5,1003.5 1051.5,1003.5C 1048.98,1001.98 1046.48,1000.31 1044,998.5C 1043.39,1000.15 1042.89,1001.82 1042.5,1003.5C 1035.5,1003.5 1028.5,1003.5 1021.5,1003.5C 1020.6,993.198 1020.27,982.865 1020.5,972.5 Z"/></g>
<g><path style="opacity:0.007" fill="#020206" d="M 237.5,972.5 C 245.167,972.5 252.833,972.5 260.5,972.5C 260.5,978.167 260.5,983.833 260.5,989.5C 274.5,989.5 288.5,989.5 302.5,989.5C 302.5,994.167 302.5,998.833 302.5,1003.5C 281.167,1003.5 259.833,1003.5 238.5,1003.5C 237.774,993.183 237.44,982.85 237.5,972.5 Z"/></g>
<g><path style="opacity:0.006" fill="#03030a" d="M 463.5,972.5 C 471.167,972.5 478.833,972.5 486.5,972.5C 486.733,982.865 486.4,993.198 485.5,1003.5C 478.167,1003.5 470.833,1003.5 463.5,1003.5C 463.5,993.167 463.5,982.833 463.5,972.5 Z"/></g>
<g><path style="opacity:0.006" fill="#03030a" d="M 517.5,972.5 C 525.167,972.5 532.833,972.5 540.5,972.5C 540.733,982.865 540.4,993.198 539.5,1003.5C 532.5,1003.5 525.5,1003.5 518.5,1003.5C 517.548,993.218 517.214,982.885 517.5,972.5 Z"/></g>
<g><path style="opacity:0.006" fill="#03030a" d="M 774.5,972.5 C 782.167,972.5 789.833,972.5 797.5,972.5C 797.733,982.865 797.4,993.198 796.5,1003.5C 789.5,1003.5 782.5,1003.5 775.5,1003.5C 774.6,993.198 774.267,982.865 774.5,972.5 Z"/></g>
<g><path style="opacity:0.007" fill="#020206" d="M 856.5,972.5 C 864.167,972.5 871.833,972.5 879.5,972.5C 883.287,980.075 887.121,987.741 891,995.5C 891.497,998.146 891.664,1000.81 891.5,1003.5C 868.833,1003.5 846.167,1003.5 823.5,1003.5C 823.5,998.833 823.5,994.167 823.5,989.5C 837.171,989.667 850.837,989.5 864.5,989C 861.422,983.677 858.755,978.177 856.5,972.5 Z"/></g>
</svg>
