<svg width="380" height="464" viewBox="0 0 380 464" fill="none" xmlns="http://www.w3.org/2000/svg">
<path d="M189.75 0L0 84.3333V210.833C0 327.846 80.96 437.268 189.75 463.833C298.54 437.268 379.5 327.846 379.5 210.833V84.3333L189.75 0ZM189.75 126.5C219.267 126.5 248.783 149.692 248.783 179.208V210.833C261.433 210.833 274.083 223.483 274.083 238.242V312.033C274.083 324.683 261.433 337.333 246.675 337.333H130.717C118.067 337.333 105.417 324.683 105.417 309.925V236.133C105.417 223.483 118.067 210.833 130.717 210.833V179.208C130.717 149.692 160.233 126.5 189.75 126.5ZM189.75 151.8C172.883 151.8 158.125 162.342 158.125 179.208V210.833H221.375V179.208C221.375 162.342 206.617 151.8 189.75 151.8Z" fill="white"/>
</svg>
