<svg width="499" height="484" viewBox="0 0 499 484" fill="none" xmlns="http://www.w3.org/2000/svg">
<path d="M296.223 277.856H290.665C286.315 280.515 284.381 285.59 286.315 289.94L307.098 340.931C327.156 328.123 342.381 309.031 350.356 286.556L296.465 277.856H296.223ZM212.848 284.865C212.227 282.892 211.011 281.16 209.367 279.905C207.723 278.651 205.731 277.935 203.665 277.856H201.731L148.081 286.798C156.056 309.031 171.281 327.881 191.34 340.69L211.881 290.665V289.94C212.848 288.731 212.848 286.556 212.848 284.865ZM257.073 304.44C255.909 302.334 253.963 300.773 251.655 300.094C249.348 299.416 246.866 299.675 244.748 300.815C243.056 302.023 241.848 302.748 241.123 304.44H240.881L214.54 352.048C233.39 358.331 253.69 359.54 273.265 354.948C276.648 354.223 280.273 353.256 283.656 352.048L257.315 304.44H257.073ZM340.448 193.998L299.848 229.523L300.09 230.248C299.169 231.014 298.411 231.958 297.862 233.023C297.313 234.088 296.984 235.253 296.894 236.447C296.804 237.642 296.954 238.843 297.337 239.978C297.72 241.113 298.328 242.16 299.123 243.056C300.331 244.506 301.781 245.473 303.473 245.956L303.715 246.198L356.156 261.181C357.848 237.74 352.773 214.056 340.448 193.998ZM265.29 197.865C265.531 202.94 269.64 206.806 274.715 206.565C276.648 206.565 278.34 206.081 279.79 205.356H280.031L324.256 173.698C307.404 157.162 285.579 146.632 262.148 143.731L265.29 197.865ZM218.406 205.356C222.515 208.015 228.073 207.29 230.973 203.181C232.181 201.731 232.665 200.04 232.906 198.106H233.148L236.048 143.731C232.423 144.215 228.798 144.94 224.931 145.665C205.598 150.015 187.715 159.681 173.698 173.698L218.165 205.356H218.406ZM194.481 246.198C199.315 244.99 202.215 239.915 200.765 235.081C200.765 233.148 199.556 231.698 198.106 230.49V230.248L157.506 193.273C144.94 214.056 139.623 237.74 142.281 261.423L194.481 246.44V246.198ZM234.115 262.148L249.098 269.398L264.081 262.148L267.706 245.956L257.315 233.148H240.64L230.248 245.956L234.115 262.148ZM497.29 294.048L454.515 108.69C452.34 98.5396 445.573 90.3229 436.631 85.9729L263.356 3.08125C254.415 -1.02708 243.781 -1.02708 234.598 3.08125L61.5646 85.9729C52.6229 90.3229 45.8562 98.5396 43.6812 108.69L0.90625 294.048C-0.302083 298.881 -0.302083 303.715 0.90625 308.306C1.14792 309.756 1.63125 311.206 2.11458 312.656C2.83958 314.831 4.04792 317.248 5.25625 319.181C5.98125 320.148 6.46458 321.115 7.43125 321.84L127.056 471.19C127.54 471.19 128.265 472.156 128.265 472.64C130.681 474.815 132.856 476.506 135.031 477.956C137.931 479.89 141.315 481.34 144.698 482.065C147.356 483.273 150.256 483.273 152.431 483.273H348.665C350.356 483.273 352.048 482.548 353.498 482.065C354.706 481.823 355.915 481.34 356.881 481.098C357.848 480.615 358.573 480.373 359.54 479.89C360.748 479.406 361.956 478.681 363.165 477.956C366.065 476.023 368.723 473.606 371.14 471.19L374.765 466.356L490.765 321.84C493.181 318.94 494.873 315.798 496.081 312.656C496.565 311.206 497.048 309.756 497.29 308.306C498.498 303.715 498.498 298.64 497.29 294.048ZM317.731 366.306C318.215 367.756 318.698 369.206 319.423 370.415C318.456 372.348 317.973 374.523 318.698 376.698C321.598 382.498 324.256 387.815 327.881 393.131C329.815 395.79 331.748 398.69 333.681 401.348C333.681 402.073 334.406 403.281 334.648 404.248C337.548 409.081 336.098 415.365 331.023 418.506C325.948 421.648 319.665 419.715 316.765 414.881C316.523 414.156 316.281 413.673 316.04 412.948C315.556 412.223 315.073 410.773 314.59 410.773C313.381 407.148 312.415 404.006 311.69 400.865C309.515 394.823 307.581 389.023 304.44 383.465C303.19 381.784 301.396 380.589 299.365 380.081L297.431 376.215C266.256 387.815 232.181 387.815 201.49 375.973L199.073 380.323C197.381 380.565 195.69 381.29 194.481 382.498C191.098 388.298 188.681 394.34 186.506 401.106C185.781 404.248 184.815 407.39 183.606 410.773C183.123 410.773 182.64 412.465 182.156 413.19C181.227 415.785 179.304 417.906 176.812 419.084C174.319 420.262 171.46 420.402 168.865 419.473C166.269 418.544 164.148 416.621 162.97 414.128C161.792 411.636 161.652 408.777 162.581 406.181C162.823 405.456 163.306 404.973 163.548 404.248C164.515 403.523 164.515 402.315 164.515 401.59C166.69 398.69 168.381 396.031 170.315 393.131C174.181 388.056 177.323 382.256 179.74 376.456C179.977 374.413 179.729 372.343 179.015 370.415L180.706 366.065C152.403 349.245 131.186 322.702 121.015 291.39L116.181 292.115C114.615 290.804 112.663 290.04 110.623 289.94C104.098 291.148 98.2979 293.081 92.0146 295.256C89.3562 296.706 86.2146 297.915 83.0729 298.881C82.3479 299.123 81.3812 299.365 79.9312 299.606C77.3343 300.4 74.5314 300.166 72.1024 298.951C69.6735 297.737 67.8042 295.635 66.8812 293.081C65.1896 287.523 67.8479 281.723 73.6479 279.79C74.1312 279.79 74.8562 279.548 75.5812 279.548V279.306H75.8229L78.4812 278.823C81.8646 277.856 85.2479 277.856 88.3896 277.856C94.6729 277.856 100.956 276.406 106.998 274.956C108.931 273.748 110.381 272.298 111.59 270.365L116.181 269.156C111.106 236.29 118.598 203.181 136.965 175.631L133.581 172.731C133.581 170.556 132.856 168.381 131.648 166.69C126.815 162.581 121.74 158.956 116.181 155.815C113.281 154.365 110.381 152.673 107.481 150.74C106.998 150.256 106.031 149.531 105.548 149.048L105.306 148.806C100.473 144.94 99.2646 138.656 102.648 133.581C104.823 131.165 107.723 129.956 111.106 129.956C113.765 130.198 116.181 131.165 118.356 132.856L120.531 134.548C122.948 136.723 125.123 139.381 127.298 141.798C131.648 146.39 136.24 150.74 141.315 154.365C143.248 155.331 145.423 155.573 147.598 155.09L151.223 157.748C169.348 138.415 193.031 124.881 218.89 119.081C224.931 117.631 231.456 116.665 237.74 116.181L237.981 111.831C239.65 110.367 240.831 108.428 241.365 106.273C241.606 99.9896 241.123 93.7063 240.156 87.6646C239.431 84.5229 238.948 81.1396 238.706 77.7562V74.8563C238.223 69.0563 242.331 63.9812 248.131 63.2562C253.931 62.5312 258.765 66.8813 259.49 72.4396V77.7562C259.248 81.1396 258.765 84.5229 258.04 87.6646C257.073 93.7063 256.59 99.9896 256.831 106.273C257.315 108.69 258.523 110.381 260.215 111.59L260.456 116.181C293.323 119.081 323.773 133.823 346.49 157.748L350.356 154.848C352.531 155.331 354.706 155.09 356.64 154.123C361.715 150.498 366.548 146.148 370.656 141.556C372.831 139.14 375.006 136.723 377.423 134.306C378.148 133.823 379.115 132.856 379.84 132.856C383.948 128.506 390.473 128.506 394.098 132.856C398.69 136.723 398.448 143.248 394.098 147.356C394.098 147.84 393.373 148.323 392.648 148.806C389.35 151.427 385.786 153.695 382.015 155.573C376.456 158.715 371.14 162.34 366.548 166.448C365.098 168.14 364.373 170.073 364.615 172.248L360.748 175.631C379.302 202.951 386.894 236.253 382.015 268.915L386.606 270.123C387.573 272.056 389.265 273.506 391.198 274.473C397.24 276.165 403.523 277.131 409.806 277.856H419.715C420.44 278.581 421.648 278.823 422.615 279.065C428.415 279.79 432.281 285.106 431.556 290.906C430.348 296.465 425.756 300.573 419.956 299.848C419.231 299.606 418.265 299.606 418.265 299.365V299.123C416.815 299.123 415.848 298.881 414.881 298.64C411.74 297.673 408.84 296.465 406.181 295.015C399.898 292.598 394.098 290.906 387.573 289.94C385.398 289.94 383.465 289.94 382.015 291.873C380.323 291.631 378.873 291.39 377.423 291.148C367.515 322.806 345.765 349.39 317.731 366.306Z" fill="white"/>
</svg>
