<svg width="52" height="50" viewBox="0 0 52 50" fill="none" xmlns="http://www.w3.org/2000/svg">
<path d="M49.2895 23.0389V3.14139C49.2895 0.80514 46.4545 -0.37611 44.8008 1.27764L1.27828 44.8001C-0.375467 46.4539 0.779533 49.2889 3.11578 49.2889H30.9145V33.5389C30.9145 27.7376 35.6133 23.0389 41.4145 23.0389H49.2895ZM49.2895 36.1639V33.5389C49.2895 30.6514 46.927 28.2889 44.0395 28.2889C41.152 28.2889 38.7895 30.6514 38.7895 33.5389V36.1639C37.3458 36.1639 36.1645 37.3451 36.1645 38.7889V46.6639C36.1645 48.1076 37.3458 49.2889 38.7895 49.2889H49.2895C50.7333 49.2889 51.9145 48.1076 51.9145 46.6639V38.7889C51.9145 37.3451 50.7333 36.1639 49.2895 36.1639ZM41.4145 33.5389C41.4145 32.0951 42.5958 30.9139 44.0395 30.9139C45.4833 30.9139 46.6645 32.0951 46.6645 33.5389V36.1639H41.4145V33.5389Z" fill="white"/>
</svg>
