<svg width="50" height="61" viewBox="0 0 50 61" fill="none" xmlns="http://www.w3.org/2000/svg">
<path d="M24.7653 0.730469L49.3391 11.6522V28.0347C49.3391 34.5331 47.4005 40.8404 44.0967 46.192L36.1784 38.2738C37.9073 35.647 38.6774 32.5044 38.3591 29.3758C38.0408 26.2473 36.6534 23.3242 34.431 21.0994C31.8698 18.5421 28.3983 17.1057 24.7789 17.1057C21.1595 17.1057 17.6881 18.5421 15.1269 21.0994C12.5695 23.6607 11.1331 27.1321 11.1331 30.7515C11.1331 34.3709 12.5695 37.8423 15.1269 40.4035C17.3485 42.6315 20.2722 44.0227 23.4023 44.3412C26.5325 44.6596 29.6764 43.8859 32.3012 42.151L40.8202 50.6699C36.588 55.612 31.0452 59.2708 24.7653 60.7998C10.6763 57.3595 0.191437 43.1886 0.191437 28.0347V11.6522L24.7653 0.730469Z" fill="white"/>
<path d="M32.9564 30.765C32.9564 35.2889 29.289 38.9563 24.7651 38.9563C20.2412 38.9563 16.5738 35.2889 16.5738 30.765C16.5738 26.2411 20.2412 22.5737 24.7651 22.5737C29.289 22.5737 32.9564 26.2411 32.9564 30.765Z" fill="white"/>
</svg>
