<svg width="55" height="55" viewBox="0 0 55 55" fill="none" xmlns="http://www.w3.org/2000/svg">
<path d="M27.2769 0C12.205 0 0 12.2323 0 27.3043C0 42.3762 12.205 54.6085 27.2769 54.6085C42.3762 54.6085 54.6085 42.3762 54.6085 27.3043C54.6085 12.2323 42.3762 0 27.2769 0ZM38.226 38.226C37.9734 38.4791 37.6733 38.6799 37.343 38.8169C37.0127 38.9539 36.6586 39.0245 36.301 39.0245C35.9434 39.0245 35.5893 38.9539 35.259 38.8169C34.9287 38.6799 34.6287 38.4791 34.3761 38.226L25.393 29.2429C25.135 28.99 24.9297 28.6884 24.7891 28.3556C24.6485 28.0229 24.5753 27.6655 24.5738 27.3043V16.3826C24.5738 14.8808 25.8025 13.6521 27.3043 13.6521C28.806 13.6521 30.0347 14.8808 30.0347 16.3826V26.1848L38.226 34.3761C39.2908 35.4409 39.2908 37.1611 38.226 38.226Z" fill="white"/>
</svg>
