<svg style="width:100%;" height="85" viewBox="0 0 688 85" fill="none" xmlns="http://www.w3.org/2000/svg">
<path d="M147.035 52.1732C147.035 53.5833 147.163 55.2498 147.676 56.6599C148.06 57.8136 148.701 59.0955 149.214 60.2492C149.471 60.5056 149.471 61.0184 149.471 61.403C149.471 62.0439 149.086 62.5567 148.445 62.813L145.368 64.8641C144.984 65.1205 144.471 65.2487 144.087 65.2487C143.446 65.2487 142.933 64.9923 142.676 64.4796C141.907 63.7104 141.395 63.0694 140.882 62.1721C140.497 61.2748 139.856 60.2492 139.343 59.0955C135.754 63.5822 130.37 66.146 124.601 66.146C121.012 66.2742 117.295 65.1205 114.603 62.5567C112.167 59.9929 110.757 56.4035 111.013 52.9424C110.885 48.9685 112.423 45.2509 115.372 42.6871C118.833 39.8669 123.191 38.585 127.55 38.7132C129.345 38.7132 131.011 38.8414 132.806 39.0977C134.729 39.3541 136.651 39.7387 138.446 40.1233V36.5339C138.702 33.5855 137.805 30.7654 136.139 28.5861C133.831 26.7914 130.883 26.0223 127.934 26.2786C126.14 26.2786 124.345 26.535 122.55 27.0478C120.628 27.4324 118.961 28.0733 117.166 28.8425C116.525 29.0988 116.013 29.227 115.372 29.6116H114.603C113.833 29.6116 113.577 28.9707 113.577 28.0734V25.7659C113.577 25.1249 113.705 24.6122 113.833 23.9712C114.218 23.5867 114.731 23.0739 115.244 22.9457C117.295 21.9202 119.346 21.151 121.525 20.6383C123.961 19.9973 126.653 19.6127 129.345 19.6127C133.959 19.2282 138.831 20.6383 142.42 23.7148C145.497 27.0478 146.907 31.5345 146.65 36.1494L147.035 52.1732ZM126.524 59.8647C128.319 59.8647 129.986 59.6083 131.78 58.9673C133.703 58.3264 135.241 57.1726 136.395 55.7625C137.164 54.8652 137.677 53.8397 138.19 52.686C138.446 51.2759 138.574 49.7376 138.574 48.3275V46.2764C137.164 46.02 135.498 45.6355 133.959 45.3791C132.421 45.2509 130.883 45.1227 129.345 45.1227C126.781 44.9945 124.089 45.7637 121.91 47.1738C120.371 48.5839 119.474 50.6349 119.602 52.686C119.474 54.6088 120.243 56.6599 121.525 57.9418C122.807 59.2237 124.73 59.8647 126.524 59.8647ZM166.776 65.2487C166.007 65.2487 165.494 65.1205 164.853 64.8641C164.212 64.2232 163.956 63.7104 163.828 62.9412L152.163 24.2276C151.906 23.5867 151.778 22.9457 151.778 22.1766C151.65 21.5356 152.034 21.0228 152.675 21.0228C152.803 21.0228 152.803 21.0228 152.932 21.0228H157.931C158.7 21.0228 159.213 21.151 159.854 21.4074C160.239 22.0484 160.751 22.5611 160.88 23.3303L169.34 56.4035L177.16 23.3303C177.288 22.5611 177.544 21.9202 178.185 21.4074C178.826 21.0228 179.467 20.7665 180.236 21.0228H184.338C185.108 21.0228 185.749 21.151 186.39 21.4074C187.03 22.0484 187.287 22.5611 187.415 23.3303L195.235 56.7881L203.952 23.3303C204.08 22.5611 204.593 21.9202 204.977 21.4074C205.618 21.0228 206.259 20.7665 206.9 21.0228H211.515C212.156 20.8946 212.669 21.2792 212.669 21.9202C212.669 22.0484 212.669 22.0484 212.669 22.1766C212.669 22.4329 212.669 22.8175 212.669 22.9457C212.54 23.3303 212.54 23.843 212.412 24.0994L200.362 62.813C200.234 63.5822 199.721 64.2231 199.337 64.7359C198.696 65.1205 198.055 65.3769 197.414 65.1205H193.055C192.286 65.2487 191.645 64.9923 191.004 64.4796C190.363 63.8386 190.107 63.1976 189.979 62.4285L182.159 30.2526L174.211 62.5567C174.083 63.3258 173.827 63.9668 173.186 64.6077C172.545 64.9923 171.904 65.2487 171.135 65.2487C171.007 65.2487 166.776 65.2487 166.776 65.2487ZM231.128 66.5306C228.564 66.5306 225.872 66.2742 223.437 65.6333C221.386 65.2487 219.463 64.6077 217.668 63.5822C216.514 63.1976 215.745 62.0439 215.745 60.762V58.1982C215.745 57.1727 216.13 56.6599 216.899 56.6599C217.155 56.6599 217.54 56.6599 217.796 56.7881L219.078 57.4291C220.873 58.1982 222.668 58.711 224.59 59.2237C226.641 59.6083 228.564 59.8647 230.615 59.8647C233.051 59.9929 235.743 59.4801 237.922 58.3264C239.461 57.3008 240.486 55.5062 240.486 53.7115C240.486 52.4296 240.101 51.1477 239.204 50.2504C237.794 48.9684 235.871 48.0711 233.948 47.6865L226.641 45.3791C223.565 44.4818 220.873 42.8153 218.822 40.2515C217.283 38.2004 216.386 35.6366 216.386 32.9446C216.386 31.0217 216.771 28.9707 217.668 27.4324C218.565 25.8941 219.847 24.3558 221.257 23.3303C222.796 22.1766 224.462 21.2792 226.385 20.7665C228.436 20.1255 230.615 19.8691 232.666 19.8691C233.82 19.8691 234.846 19.8691 235.999 19.9973C237.153 20.1255 238.179 20.2537 239.204 20.6383C240.23 20.8946 241.255 21.0228 242.153 21.4074C242.922 21.6638 243.563 22.0484 244.204 22.3048C244.845 22.5611 245.229 23.0739 245.614 23.4585C245.87 23.843 245.998 24.484 245.998 24.9967V27.3042C245.998 28.3297 245.614 28.8425 244.845 28.8425C244.075 28.7143 243.563 28.5861 242.922 28.2015C239.845 26.9196 236.64 26.1505 233.307 26.2786C231 26.1505 228.692 26.6632 226.641 27.6888C225.103 28.5861 224.206 30.2526 224.334 32.1754C224.334 33.4573 224.719 34.7393 225.744 35.6366C227.282 36.9185 229.205 37.8158 231.256 38.4568L238.435 40.636C241.512 41.4052 244.075 43.0717 246.126 45.3791C247.665 47.4302 248.562 49.994 248.434 52.686C248.434 54.737 248.049 56.7881 247.152 58.4546C246.255 60.2492 244.973 61.6593 243.563 62.813C242.024 64.095 240.101 64.9923 238.05 65.6333C235.999 66.2742 233.436 66.5306 231.128 66.5306Z" fill="#252F3E"/>
<path d="M147.035 52.1732C147.035 53.5833 147.163 55.2498 147.676 56.6599C148.06 57.8136 148.701 59.0955 149.214 60.2492C149.471 60.5056 149.471 61.0184 149.471 61.403C149.471 62.0439 149.086 62.5567 148.445 62.813L145.368 64.8641C144.984 65.1205 144.471 65.2487 144.087 65.2487C143.446 65.2487 142.933 64.9923 142.676 64.4796C141.907 63.7104 141.395 63.0694 140.882 62.1721C140.497 61.2748 139.856 60.2492 139.343 59.0955C135.754 63.5822 130.37 66.146 124.601 66.146C121.012 66.2742 117.295 65.1205 114.603 62.5567C112.167 59.9929 110.757 56.4035 111.013 52.9424C110.885 48.9685 112.423 45.2509 115.372 42.6871C118.833 39.8669 123.191 38.585 127.55 38.7132C129.345 38.7132 131.011 38.8414 132.806 39.0977C134.729 39.3541 136.651 39.7387 138.446 40.1233V36.5339C138.702 33.5855 137.805 30.7654 136.139 28.5861C133.831 26.7914 130.883 26.0223 127.934 26.2786C126.14 26.2786 124.345 26.535 122.55 27.0478C120.628 27.4324 118.961 28.0733 117.166 28.8425C116.525 29.0988 116.013 29.227 115.372 29.6116H114.603C113.833 29.6116 113.577 28.9707 113.577 28.0734V25.7659C113.577 25.1249 113.705 24.6122 113.833 23.9712C114.218 23.5867 114.731 23.0739 115.244 22.9457C117.295 21.9202 119.346 21.151 121.525 20.6383C123.961 19.9973 126.653 19.6127 129.345 19.6127C133.959 19.2282 138.831 20.6383 142.42 23.7148C145.497 27.0478 146.907 31.5345 146.65 36.1494L147.035 52.1732ZM126.524 59.8647C128.319 59.8647 129.986 59.6083 131.78 58.9673C133.703 58.3264 135.241 57.1726 136.395 55.7625C137.164 54.8652 137.677 53.8397 138.19 52.686C138.446 51.2759 138.574 49.7376 138.574 48.3275V46.2764C137.164 46.02 135.498 45.6355 133.959 45.3791C132.421 45.2509 130.883 45.1227 129.345 45.1227C126.781 44.9945 124.089 45.7637 121.91 47.1738C120.371 48.5839 119.474 50.6349 119.602 52.686C119.474 54.6088 120.243 56.6599 121.525 57.9418C122.807 59.2237 124.73 59.8647 126.524 59.8647ZM166.776 65.2487C166.007 65.2487 165.494 65.1205 164.853 64.8641C164.212 64.2232 163.956 63.7104 163.828 62.9412L152.163 24.2276C151.906 23.5867 151.778 22.9457 151.778 22.1766C151.65 21.5356 152.034 21.0228 152.675 21.0228C152.803 21.0228 152.803 21.0228 152.932 21.0228H157.931C158.7 21.0228 159.213 21.151 159.854 21.4074C160.239 22.0484 160.751 22.5611 160.88 23.3303L169.34 56.4035L177.16 23.3303C177.288 22.5611 177.544 21.9202 178.185 21.4074C178.826 21.0228 179.467 20.7665 180.236 21.0228H184.338C185.108 21.0228 185.749 21.151 186.39 21.4074C187.03 22.0484 187.287 22.5611 187.415 23.3303L195.235 56.7881L203.952 23.3303C204.08 22.5611 204.593 21.9202 204.977 21.4074C205.618 21.0228 206.259 20.7665 206.9 21.0228H211.515C212.156 20.8946 212.669 21.2792 212.669 21.9202C212.669 22.0484 212.669 22.0484 212.669 22.1766C212.669 22.4329 212.669 22.8175 212.669 22.9457C212.54 23.3303 212.54 23.843 212.412 24.0994L200.362 62.813C200.234 63.5822 199.721 64.2231 199.337 64.7359C198.696 65.1205 198.055 65.3769 197.414 65.1205H193.055C192.286 65.2487 191.645 64.9923 191.004 64.4796C190.363 63.8386 190.107 63.1976 189.979 62.4285L182.159 30.2526L174.211 62.5567C174.083 63.3258 173.827 63.9668 173.186 64.6077C172.545 64.9923 171.904 65.2487 171.135 65.2487C171.007 65.2487 166.776 65.2487 166.776 65.2487ZM231.128 66.5306C228.564 66.5306 225.872 66.2742 223.437 65.6333C221.386 65.2487 219.463 64.6077 217.668 63.5822C216.514 63.1976 215.745 62.0439 215.745 60.762V58.1982C215.745 57.1727 216.13 56.6599 216.899 56.6599C217.155 56.6599 217.54 56.6599 217.796 56.7881L219.078 57.4291C220.873 58.1982 222.668 58.711 224.59 59.2237C226.641 59.6083 228.564 59.8647 230.615 59.8647C233.051 59.9929 235.743 59.4801 237.922 58.3264C239.461 57.3008 240.486 55.5062 240.486 53.7115C240.486 52.4296 240.101 51.1477 239.204 50.2504C237.794 48.9684 235.871 48.0711 233.948 47.6865L226.641 45.3791C223.565 44.4818 220.873 42.8153 218.822 40.2515C217.283 38.2004 216.386 35.6366 216.386 32.9446C216.386 31.0217 216.771 28.9707 217.668 27.4324C218.565 25.8941 219.847 24.3558 221.257 23.3303C222.796 22.1766 224.462 21.2792 226.385 20.7665C228.436 20.1255 230.615 19.8691 232.666 19.8691C233.82 19.8691 234.846 19.8691 235.999 19.9973C237.153 20.1255 238.179 20.2537 239.204 20.6383C240.23 20.8946 241.255 21.0228 242.153 21.4074C242.922 21.6638 243.563 22.0484 244.204 22.3048C244.845 22.5611 245.229 23.0739 245.614 23.4585C245.87 23.843 245.998 24.484 245.998 24.9967V27.3042C245.998 28.3297 245.614 28.8425 244.845 28.8425C244.075 28.7143 243.563 28.5861 242.922 28.2015C239.845 26.9196 236.64 26.1505 233.307 26.2786C231 26.1505 228.692 26.6632 226.641 27.6888C225.103 28.5861 224.206 30.2526 224.334 32.1754C224.334 33.4573 224.719 34.7393 225.744 35.6366C227.282 36.9185 229.205 37.8158 231.256 38.4568L238.435 40.636C241.512 41.4052 244.075 43.0717 246.126 45.3791C247.665 47.4302 248.562 49.994 248.434 52.686C248.434 54.737 248.049 56.7881 247.152 58.4546C246.255 60.2492 244.973 61.6593 243.563 62.813C242.024 64.095 240.101 64.9923 238.05 65.6333C235.999 66.2742 233.436 66.5306 231.128 66.5306Z" fill="#252F3E"/>
<path d="M270.995 65.6333C270.098 65.6333 269.713 65.2487 269.713 64.3514V22.433C269.713 21.5356 270.098 21.1511 270.995 21.1511H272.534C273.431 21.1511 273.815 21.5356 273.944 22.433L274.2 25.8941C276.636 23.8431 279.328 22.433 282.02 21.2793C284.84 20.2537 287.404 19.741 289.968 19.741C295.223 19.741 298.556 22.0484 300.351 26.5351C302.915 24.3558 305.735 22.5612 308.683 21.4075C311.632 20.2537 314.452 19.6128 317.4 19.6128C321.246 19.6128 324.066 20.7665 326.117 23.0739C328.168 25.3814 329.066 28.7143 329.066 33.0728V64.3514C329.066 65.2487 328.681 65.6333 327.784 65.6333H325.605C324.707 65.6333 324.323 65.2487 324.323 64.3514V35.3803C324.323 31.5345 323.682 28.7143 322.4 26.9196C321.118 25.125 319.195 24.3558 316.375 24.3558C311.119 24.3558 306.12 26.2787 301.376 29.8681C301.505 31.2782 301.633 32.6882 301.633 34.0983V64.3514C301.633 65.2487 301.248 65.6333 300.351 65.6333H298.172C297.274 65.6333 296.89 65.2487 296.89 64.3514V35.3803C296.89 31.5345 296.249 28.7143 294.967 26.9196C293.685 25.125 291.762 24.3558 288.942 24.3558C283.814 24.3558 278.943 26.1505 274.2 29.7399V64.3514C274.2 65.2487 273.815 65.6333 272.918 65.6333C273.175 65.6333 270.995 65.6333 270.995 65.6333Z" fill="#252F3E"/>
<path d="M349.704 66.6596C345.859 66.6596 342.91 65.5059 340.731 63.1984C338.552 60.891 337.398 57.6862 337.398 53.8405C337.398 49.482 338.68 46.149 341.5 43.5852C344.32 41.1496 348.038 39.7395 352.653 39.7395C356.242 39.7395 360.216 40.5086 364.446 41.7906V34.3555C364.446 30.7662 363.677 28.0741 362.139 26.664C360.601 25.1258 357.909 24.3566 354.319 24.3566C350.473 24.3566 346.628 25.1258 342.269 26.5358C341.885 26.664 341.372 26.7922 340.987 26.7922C340.346 26.7922 340.09 26.4076 340.09 25.6385V24.2284C340.09 23.8439 340.218 23.3311 340.346 23.0747C340.475 22.8183 340.731 22.6901 341.244 22.3056C345.602 20.3827 350.089 19.4854 355.088 19.4854C360.088 19.4854 363.549 20.6391 365.856 22.8183C368.164 24.9976 369.317 28.3305 369.317 32.689V64.3522C369.317 65.2495 368.933 65.6341 368.036 65.6341H366.241C365.344 65.6341 364.959 65.2495 364.959 64.3522L364.703 60.5064C359.96 64.6085 354.96 66.6596 349.704 66.6596ZM350.473 62.0447C352.524 62.0447 354.832 61.6602 357.139 60.7628C359.575 59.8655 361.882 58.5836 364.446 56.7889V45.7645C360.857 44.739 357.139 44.2262 353.678 44.2262C345.987 44.2262 342.141 47.4309 342.141 53.8405C342.141 56.6607 342.91 58.5836 344.192 60.1219C345.602 61.2756 347.653 62.0447 350.473 62.0447Z" fill="#252F3E"/>
<path d="M381.624 65.6339C380.726 65.6339 380.342 65.2493 380.342 64.352V22.4336C380.342 21.5362 380.726 21.1517 381.624 21.1517H383.162C384.059 21.1517 384.444 21.5362 384.572 22.4336L384.957 27.5612C387.008 25.1256 389.059 23.3309 391.11 22.3054C393.161 21.2799 395.34 20.7671 397.904 20.7671C398.801 20.7671 399.442 20.7671 400.083 20.8953C400.981 20.8953 401.365 21.5363 401.365 22.3054V24.4846C401.365 24.741 401.237 24.8692 401.109 25.2538C400.981 25.382 400.724 25.5102 400.34 25.5102C399.955 25.5102 399.442 25.5102 399.058 25.5102C398.673 25.5102 398.032 25.5102 397.263 25.5102C394.827 25.5102 392.52 25.8947 390.597 26.9202C388.674 27.9458 386.751 29.4841 384.957 31.9197V64.6084C384.957 65.5057 384.572 65.8903 383.675 65.8903H381.496V65.6339H381.624Z" fill="#252F3E"/>
<path d="M409.313 65.6337C408.416 65.6337 408.031 65.2491 408.031 64.3518V1.28191C408.031 0.384573 408.416 0 409.313 0H411.492C412.39 0 412.774 0.384573 412.774 1.28191V40.8929L432.644 21.9206C433.285 21.2797 433.926 21.0233 434.695 21.0233H437.643C438.412 21.0233 438.669 21.2797 438.669 21.7924C438.669 22.0488 438.413 22.5616 437.772 23.0743L417.774 42.0466L439.438 63.5827C439.823 63.9672 440.207 64.48 440.207 64.7364C440.207 65.3773 439.951 65.6337 439.182 65.6337H435.72C434.951 65.6337 434.439 65.3773 433.926 64.8646L412.902 43.8413V64.3518C412.902 65.2491 412.518 65.6337 411.621 65.6337H409.313Z" fill="#252F3E"/>
<path d="M462.384 67.0437C455.846 67.0437 450.847 64.9926 447.514 61.0187C444.181 57.0447 442.515 51.148 442.515 43.2001C442.515 35.7651 444.053 29.9965 447.514 25.8944C450.847 21.7923 455.462 19.7412 461.487 19.7412C466.486 19.7412 470.332 21.2795 473.024 24.3561C475.588 27.4327 477.126 31.7912 477.126 37.5598C477.126 39.8672 476.998 41.6618 476.87 42.9437C476.742 43.8411 476.229 44.2257 475.46 44.2257H447.514C447.514 50.507 448.796 54.9937 451.36 58.0703C453.795 61.0187 457.641 62.4288 462.897 62.4288C466.871 62.4288 470.588 61.6596 474.306 60.2495C475.075 59.9931 475.46 59.865 475.716 59.865C475.972 59.865 476.101 59.9932 476.357 60.1214C476.613 60.2495 476.613 60.5059 476.613 60.8905V62.1724C476.613 63.1979 476.357 63.7107 475.716 64.0952C471.486 66.0181 467.127 67.0437 462.384 67.0437ZM472.511 39.9954C472.511 39.098 472.64 38.2007 472.64 37.047C472.64 32.8167 471.614 29.6119 469.691 27.4327C467.768 25.2534 464.948 24.0997 461.231 24.0997C452.514 24.0997 448.027 29.3555 447.386 39.9954H472.511Z" fill="#252F3E"/>
<path d="M499.432 66.2748C496.227 66.2748 493.791 65.3774 491.996 63.4546C490.202 61.5317 489.433 58.9679 489.433 55.2504V25.3819H483.023C482.126 25.3819 481.741 24.9973 481.741 24.1V23.3308C481.741 22.9463 481.869 22.4335 481.998 22.3053C482.126 22.049 482.382 21.9207 483.023 21.9207L489.689 21.2798L490.33 9.61443C490.33 9.22986 490.458 8.71709 490.715 8.5889C490.843 8.46071 491.099 8.33252 491.612 8.33252H493.022C493.919 8.33252 494.304 8.71709 494.304 9.61443V21.2798H506.226C507.123 21.2798 507.508 21.6644 507.508 22.5617V24.3564C507.508 25.2537 507.123 25.6383 506.226 25.6383H494.304V55.2504C494.304 57.686 494.688 59.3525 495.714 60.378C496.74 61.4035 498.278 61.7881 500.457 61.7881C501.995 61.7881 503.534 61.6599 504.687 61.4035C505.328 61.2754 505.713 61.1472 506.097 61.1472C506.482 61.1472 506.738 61.019 506.867 61.019C507.508 61.019 507.764 61.2754 507.764 62.0445V63.3264C507.764 64.3519 507.508 64.8647 506.867 65.2493C504.687 65.8902 502.252 66.2748 499.432 66.2748Z" fill="#252F3E"/>
<path d="M516.481 84.0935C515.583 84.0935 515.199 83.7089 515.199 82.8116V22.5619C515.199 21.6645 515.583 21.28 516.481 21.28H518.019C518.916 21.28 519.301 21.6645 519.429 22.5619L519.685 26.1512C522.121 23.972 524.685 22.3055 527.12 21.4082C529.428 20.3826 531.864 19.998 534.556 19.998C539.94 19.998 544.17 22.0491 547.246 26.1512C550.323 30.2533 551.861 35.8937 551.861 43.0724C551.861 50.3793 550.323 56.1479 547.118 60.5064C543.913 64.8649 539.555 67.0441 534.043 67.0441C528.915 67.0441 524.3 64.993 520.198 61.0191V83.068C520.198 83.9653 519.814 84.3499 518.916 84.3499H516.481V84.0935ZM533.274 62.0447C537.76 62.0447 541.093 60.5064 543.529 57.3016C545.836 54.0968 546.99 49.482 546.99 43.2006C546.99 30.6379 542.632 24.3565 533.786 24.3565C529.3 24.3565 524.557 26.2794 520.07 29.997V56.0197C522.249 58.0707 524.557 59.609 526.608 60.5064C528.659 61.4037 530.966 62.0447 533.274 62.0447Z" fill="#252F3E"/>
<path d="M568.014 66.0185C565.835 66.0185 564.04 65.2494 562.886 63.9675C561.604 62.5574 560.963 60.6345 560.963 58.1989V1.41033C560.963 0.512991 561.348 0.128418 562.245 0.128418H564.425C565.322 0.128418 565.706 0.512991 565.706 1.41033V57.9425C565.706 59.2244 565.963 60.1218 566.476 60.7627C566.988 61.4037 567.758 61.5318 568.911 61.5318C569.168 61.5318 569.68 61.5319 570.065 61.4037C570.45 61.4037 570.834 61.2755 571.09 61.2755C571.86 61.2755 572.244 61.66 572.244 62.5574V64.352C572.244 65.1212 571.988 65.5058 571.219 65.634C570.193 65.8903 569.296 66.0185 568.014 66.0185Z" fill="#252F3E"/>
<path d="M590.319 66.6596C586.473 66.6596 583.524 65.5059 581.345 63.1984C579.166 60.891 578.012 57.6862 578.012 53.8405C578.012 49.482 579.294 46.149 582.114 43.5852C584.935 41.1496 588.652 39.7395 593.267 39.7395C596.856 39.7395 600.83 40.5086 605.061 41.7906V34.3555C605.061 30.7662 604.291 28.0741 602.753 26.664C601.215 25.1258 598.523 24.3566 594.933 24.3566C591.088 24.3566 587.242 25.1258 582.884 26.5358C582.499 26.664 581.986 26.7922 581.602 26.7922C580.961 26.7922 580.704 26.4076 580.704 25.6385V24.2284C580.704 23.8439 580.832 23.3311 580.961 23.0747C581.089 22.8183 581.345 22.6901 581.858 22.3056C586.216 20.3827 590.703 19.4854 595.703 19.4854C600.702 19.4854 604.163 20.6391 606.471 22.8183C608.778 24.9976 609.932 28.3305 609.932 32.689V64.3522C609.932 65.2495 609.547 65.6341 608.65 65.6341H606.855C605.958 65.6341 605.573 65.2495 605.573 64.3522L605.317 60.5064C600.574 64.6085 595.574 66.6596 590.319 66.6596ZM591.088 62.0447C593.139 62.0447 595.446 61.6602 597.754 60.7628C600.189 59.8655 602.497 58.5836 605.061 56.7889V45.7645C601.471 44.739 597.754 44.2262 594.292 44.2262C586.601 44.2262 582.755 47.4309 582.755 53.8405C582.755 56.6607 583.524 58.5836 584.806 60.1219C586.216 61.2756 588.267 62.0447 591.088 62.0447Z" fill="#252F3E"/>
<path d="M638.518 66.6595C632.109 66.6595 627.366 64.6085 623.905 60.6346C620.444 56.6606 618.905 50.8921 618.905 43.3288C618.905 35.7655 620.7 29.8688 624.033 26.023C627.366 22.0491 632.365 19.998 638.647 19.998C641.723 19.998 644.672 20.639 647.364 21.7927C648.133 22.0491 648.389 22.69 648.389 23.7156V24.9975C648.389 25.7666 648.133 26.1512 647.364 26.1512C647.235 26.1512 646.979 26.1512 646.723 26.023C646.466 26.023 646.082 25.8948 645.569 25.7666C643.39 25.1257 641.21 24.8693 639.031 24.8693C633.775 24.8693 630.058 26.2794 627.622 29.2278C625.315 32.1762 624.161 36.6629 624.161 43.0724V44.098C624.161 50.2511 625.315 54.7378 627.622 57.8144C629.93 60.7627 633.775 62.1728 638.775 62.1728C640.954 62.1728 643.262 61.7883 645.954 61.0191C646.594 60.8909 646.979 60.7628 647.235 60.7628C647.492 60.7628 647.62 60.6346 647.876 60.6346C648.646 60.6346 648.902 61.0191 648.902 61.7883V63.0702C648.902 64.0957 648.646 64.6085 648.005 64.993C644.8 66.0186 641.723 66.6595 638.518 66.6595Z" fill="#252F3E"/>
<path d="M673.258 67.0437C666.72 67.0437 661.721 64.9926 658.388 61.0187C655.055 57.0447 653.388 51.148 653.388 43.2001C653.388 35.7651 654.926 29.9965 658.388 25.8944C661.721 21.7923 666.335 19.7412 672.36 19.7412C677.36 19.7412 681.206 21.2795 683.898 24.3561C686.461 27.4327 688 31.7912 688 37.5598C688 39.8672 687.872 41.6618 687.743 42.9437C687.615 43.8411 687.102 44.2257 686.333 44.2257H658.388C658.388 50.507 659.669 54.9937 662.233 58.0703C664.669 61.0187 668.515 62.4288 673.77 62.4288C677.744 62.4288 681.462 61.6596 685.18 60.2495C685.949 59.9931 686.333 59.865 686.59 59.865C686.846 59.865 686.974 59.9932 687.231 60.1214C687.359 60.2495 687.487 60.5059 687.487 60.8905V62.1724C687.487 63.1979 687.231 63.7107 686.59 64.0952C682.359 66.0181 678.001 67.0437 673.258 67.0437ZM683.385 39.9954C683.385 39.098 683.513 38.2007 683.513 37.047C683.513 32.8167 682.487 29.6119 680.565 27.4327C678.642 25.2534 675.822 24.0997 672.104 24.0997C663.387 24.0997 658.9 29.3555 658.259 39.9954H683.385Z" fill="#252F3E"/>
<path d="M19.3565 80.8883C22.684 80.8883 25.3815 78.1909 25.3815 74.8634C25.3815 71.5359 22.684 68.8384 19.3565 68.8384C16.029 68.8384 13.3315 71.5359 13.3315 74.8634C13.3315 78.1909 16.029 80.8883 19.3565 80.8883Z" fill="#252F3E"/>
<path d="M53.8399 80.8883C57.1674 80.8883 59.8649 78.1909 59.8649 74.8634C59.8649 71.5359 57.1674 68.8384 53.8399 68.8384C50.5124 68.8384 47.8149 71.5359 47.8149 74.8634C47.8149 78.1909 50.5124 80.8883 53.8399 80.8883Z" fill="#252F3E"/>
<path d="M92.9384 19.2285H66.2747L55.6348 55.6347H16.793L10.2553 34.2268H0L10.5117 66.1464H61.9162L73.8379 27.4327H92.9384V19.2285Z" fill="#252F3E"/>
<path d="M37.5596 25.7664L49.0967 31.1504L60.6339 12.6909H37.5596V25.7664Z" fill="#00A4CA"/>
<path d="M60.6339 25.7664L49.0967 31.1504V12.8191L60.6339 12.6909V25.7664Z" fill="#038DB9"/>
<path d="M49.0967 6.79395L37.5596 12.6907L49.0967 17.9465L60.6339 12.6907L49.0967 6.79395Z" fill="#34C1DA"/>
<path d="M11.4087 25.7664L22.8177 31.1504L34.483 12.6909H11.4087V25.7664Z" fill="#EF7C22"/>
<path d="M34.4832 25.7664L22.8179 31.1504V12.6909H34.4832V25.7664Z" fill="#E46025"/>
<path d="M22.8177 6.79395L11.4087 12.6907L22.8177 17.9465L34.483 12.6907L22.8177 6.79395Z" fill="#F7972C"/>
<path d="M24.4849 47.3023L36.022 52.6863L47.5592 33.8423H24.4849V47.3023Z" fill="#1F66AF"/>
<path d="M47.5592 47.3023L36.022 52.6863V33.8423H47.5592V47.3023Z" fill="#13519D"/>
<path d="M36.022 28.458L47.5592 33.842L36.022 39.4824L24.4849 33.842L36.022 28.458Z" fill="#187EBB"/>
</svg>
