<svg width="1270" height="489" viewBox="0 0 1270 489" fill="none" xmlns="http://www.w3.org/2000/svg">
<mask id="mask0_755_44681" style="mask-type:alpha" maskUnits="userSpaceOnUse" x="5" y="4" width="1260" height="480">
<rect x="5" y="4" width="1260" height="480" fill="#082C74"/>
</mask>
<g mask="url(#mask0_755_44681)">
<g filter="url(#filter0_d_755_44681)">
<path d="M676.769 350.538C676.769 352.832 678.285 355.126 681.317 356.876L750.847 397.02C756.911 400.521 766.741 400.521 772.804 397.02L842.335 356.876C846.252 354.615 847.639 351.445 846.494 348.541V325.184H809.399L772.804 304.056C766.741 300.556 756.911 300.556 750.847 304.056L714.252 325.184H676.677V350.538H676.769Z" fill="#E6EFFC"/>
<rect width="105.641" height="105.641" rx="12.6769" transform="matrix(0.866025 -0.5 0.866025 0.5 670.338 325.185)" fill="white"/>
<path d="M784.519 305.413L751.577 300.28C749.027 299.869 746.294 300.267 744.376 301.335L720.324 315.221C718.487 316.322 717.786 317.907 718.498 319.379L727.331 338.364C728.02 339.836 730.007 340.984 732.557 341.382L765.625 346.587C768.186 347.018 770.954 346.64 772.918 345.586L796.981 331.693C798.796 330.566 799.473 328.968 798.727 327.489L789.837 308.47C789.125 306.985 787.103 305.818 784.519 305.413Z" fill="#517BBD"/>
<path opacity="0.07" d="M763.258 312.581L746.316 316.328L741.205 326.308L754.161 334.319L792.444 334.325L797.015 331.686C798.83 330.559 799.507 328.961 798.761 327.482L791.754 312.574L763.258 312.581Z" fill="#010202"/>
<path d="M762.753 312.635L745.673 315.268C745.076 315.36 744.605 315.632 744.433 315.984L739.873 325.845C739.712 326.189 739.884 326.567 740.321 326.819L752.829 334.041C753.265 334.293 753.92 334.392 754.517 334.3L771.597 331.667C772.194 331.574 772.665 331.302 772.837 330.951L777.397 321.09C777.558 320.745 777.386 320.367 776.949 320.115L764.441 312.894C764.005 312.642 763.361 312.535 762.753 312.635ZM773.653 320.626L767.692 321.548L761.949 318.232L759.571 323.305L766.038 327.038L768.139 322.509L774.101 321.587L770.138 330.109L755.379 332.396L756.975 328.955L764.82 327.741L758.377 324.021L749.613 325.38L755.333 328.683L753.736 332.125L742.94 325.891L746.902 317.37L751.255 319.883L749.153 324.412L757.94 323.04L760.318 317.967L752.473 319.18L748.12 316.667L762.879 314.379L773.676 320.612L773.653 320.626Z" fill="white"/>
<path d="M1117.29 72.1738C1117.29 74.4679 1118.81 76.7619 1121.84 78.5122L1191.37 118.656C1197.43 122.156 1207.26 122.156 1213.33 118.656L1282.86 78.5122C1286.77 76.2506 1288.16 73.081 1287.02 70.1767V46.82H1249.92L1213.33 25.6919C1207.26 22.1912 1197.43 22.1913 1191.37 25.6919L1154.77 46.82H1117.2V72.1738H1117.29Z" fill="#E6EFFC"/>
<rect width="105.641" height="105.641" rx="12.6769" transform="matrix(0.866025 -0.5 0.866025 0.5 1110.86 46.8203)" fill="white"/>
<path d="M1163.71 54.541C1164.54 55.0183 1165.82 55.2332 1167.35 55.0706L1203.49 51.2444C1206.57 50.9191 1209.54 49.201 1210.11 47.4263L1216.74 26.562C1217.02 25.6747 1216.65 24.9346 1215.82 24.4571L1241.31 39.1732C1242.14 39.6507 1242.51 40.3907 1242.23 41.2781L1235.59 62.1424C1235.03 63.917 1232.05 65.635 1228.98 65.9606L1192.84 69.7865C1191.31 69.9493 1190.02 69.7343 1189.2 69.2566L1163.71 54.541Z" fill="black"/>
<path d="M1163.71 54.5416C1164.54 55.019 1165.82 55.2338 1167.35 55.0712L1192.98 52.3571L1194.91 46.288C1195.48 44.5135 1198.45 42.7955 1201.52 42.4699L1212.04 41.3577L1216.74 26.5626C1217.02 25.6752 1216.65 24.9352 1215.82 24.4577L1215.81 24.451C1214.98 23.9733 1213.7 23.7583 1212.16 23.9211L1176.03 27.7465C1172.95 28.0729 1169.98 29.791 1169.41 31.565L1162.78 52.4293C1162.5 53.3166 1162.87 54.0571 1163.7 54.5344L1188.88 69.074L1163.71 54.5416Z" fill="#0F6FFF"/>
<path d="M670.431 164.609C670.431 166.903 671.946 169.197 674.978 170.948L744.508 211.091C750.572 214.592 760.402 214.592 766.466 211.091L835.996 170.948C839.913 168.686 841.3 165.517 840.155 162.612V139.256H803.061L766.466 118.127C760.402 114.627 750.572 114.627 744.508 118.127L707.913 139.256H670.338V164.609H670.431Z" fill="#E6EFFC"/>
<rect width="105.641" height="105.641" rx="12.6769" transform="matrix(0.866025 -0.5 0.866025 0.5 664 139.256)" fill="white"/>
<g clip-path="url(#clip0_755_44681)">
<path d="M720.801 130.931L713.469 137.089L725.745 144.177L736.663 140.089L742.077 132.786L732.916 127.497L720.801 130.931Z" fill="url(#paint0_linear_755_44681)"/>
<path d="M713.469 137.09L725.746 144.178L736.756 140.036L721.02 130.951L713.469 137.09ZM728.639 141.415L725.588 142.597L716.144 137.144L718.289 135.439L728.639 141.415ZM733.333 139.546L729.926 140.961L719.134 134.731L721.558 132.747L733.333 139.546Z" fill="#341A6E"/>
<path d="M740.439 119.776L733.107 125.935L745.379 133.02L756.3 128.934L761.654 121.629L752.521 116.356L740.439 119.776Z" fill="url(#paint1_linear_755_44681)"/>
<path d="M733.106 125.934L745.379 133.02L756.332 128.915L740.596 119.83L733.106 125.934ZM748.244 130.277L745.193 131.459L735.748 126.006L737.893 124.301L748.244 130.277ZM752.933 128.406L749.538 129.819L738.747 123.589L741.134 121.589L752.933 128.406Z" fill="#341A6E"/>
<path d="M728.509 146.03L721.181 152.19L733.453 159.276L744.371 155.188L749.785 147.885L740.628 142.598L728.509 146.03Z" fill="url(#paint2_linear_755_44681)"/>
<path d="M721.149 152.209L733.328 159.241L744.342 155.096L728.606 146.011L721.149 152.209ZM736.314 156.568L733.231 157.732L723.795 152.284L725.903 150.557L736.314 156.568ZM741.133 154.734L737.735 156.15L726.813 149.845L729.237 147.866L741.133 154.734Z" fill="#341A6E"/>
<path d="M747.803 134.746L740.475 140.906L752.747 147.992L763.697 143.922L769.046 136.619L759.889 131.333L747.803 134.746Z" fill="url(#paint3_linear_755_44681)"/>
<path d="M740.475 140.905L752.776 148.007L763.762 143.884L748.026 134.798L740.475 140.905ZM755.637 145.267L752.554 146.43L743.113 140.98L745.218 139.251L755.637 145.267ZM760.294 143.377L756.899 144.795L746.104 138.562L748.532 136.581L760.294 143.377Z" fill="#341A6E"/>
<path d="M767.378 123.625L760.042 129.786L772.319 136.874L783.24 132.783L788.654 125.48L779.493 120.191L767.378 123.625Z" fill="url(#paint4_linear_755_44681)"/>
<path d="M760.042 129.786L772.193 136.801L783.207 132.657L767.471 123.572L760.042 129.786ZM775.248 134.126L772.165 135.29L762.725 129.839L764.829 128.111L775.248 134.126ZM779.906 132.236L776.507 133.657L765.711 127.424L768.131 125.443L779.906 132.241L779.906 132.236Z" fill="#341A6E"/>
<path d="M754.633 150.715L747.269 156.859L759.541 163.945L770.495 159.873L775.876 152.551L766.752 147.283L754.633 150.715Z" fill="url(#paint5_linear_755_44681)"/>
<path d="M747.268 156.859L759.541 163.945L770.591 159.822L754.6 150.589L747.268 156.859ZM762.474 161.2L759.391 162.363L749.947 156.911L752.055 155.184L762.474 161.2ZM767.164 159.329L763.761 160.747L752.937 154.498L755.357 152.516L767.16 159.331L767.164 159.329Z" fill="#341A6E"/>
<path d="M774.209 139.563L766.877 145.721L779.15 152.807L790.071 148.721L795.481 141.416L786.328 136.131L774.213 139.566L774.209 139.563Z" fill="url(#paint6_linear_755_44681)"/>
<path d="M766.878 145.722L779.15 152.808L790.169 148.666L774.428 139.578L766.878 145.722ZM782.08 150.065L778.993 151.226L769.552 145.776L771.661 144.05L782.08 150.065ZM786.733 148.173L783.334 149.594L772.539 143.361L774.966 141.38L786.737 148.175L786.733 148.173Z" fill="#341A6E"/>
</g>
<path d="M1017.46 353.18C1017.46 355.474 1018.98 357.768 1022.01 359.518L1091.54 399.662C1097.6 403.162 1107.43 403.162 1113.5 399.662L1183.03 359.518C1186.94 357.256 1188.33 354.087 1187.19 351.183V327.826H1150.09L1113.5 306.698C1107.43 303.197 1097.6 303.197 1091.54 306.698L1054.94 327.826H1017.37V353.18H1017.46Z" fill="#E6EFFC"/>
<rect width="105.641" height="105.641" rx="12.6769" transform="matrix(0.866025 -0.5 0.866025 0.5 1011.03 327.827)" fill="white"/>
<path d="M1116.13 319.318C1120.19 316.975 1125.23 313.101 1120.4 310.314C1120.04 310.092 1119.63 309.897 1119.19 309.732L1106.28 305.066C1103.41 304.055 1101.87 303.732 1095.79 304.903C1091.02 305.795 1081.51 308.218 1079.47 309.391C1077.59 310.481 1079.47 312.217 1077.23 313.51C1075.07 314.761 1071.64 314.641 1069.61 315.812C1067.67 316.936 1067.72 318.434 1069.47 320.575C1069.47 320.575 1074.44 326.593 1075.21 327.44C1075.35 327.591 1075.54 327.729 1075.76 327.848C1078.75 329.575 1100.35 328.434 1116.13 319.318ZM1122.99 311.082C1126.21 312.292 1126.49 312.453 1126.84 312.656C1131.38 315.278 1128.79 319.681 1122.08 323.557C1106.88 332.33 1084.72 334.868 1078.85 331.478C1078.03 331.006 1077.39 330.443 1076.96 329.822C1071.78 333.132 1065.7 337.775 1071.92 341.368C1082.14 347.264 1118.92 340.56 1138.08 329.498C1152.77 321.017 1149.83 315.042 1144.59 312.013C1140.46 309.631 1132.21 308.986 1122.98 311.086" fill="#EE0000"/>
<path d="M1122.98 311.085C1126.19 312.295 1126.47 312.456 1126.82 312.659C1131.37 315.281 1128.78 319.684 1122.07 323.56C1106.88 332.329 1084.72 334.867 1078.85 331.477C1078.03 331.006 1077.39 330.442 1076.96 329.821L1075.21 327.439C1075.36 327.59 1075.54 327.728 1075.76 327.847C1078.75 329.574 1100.34 328.433 1116.13 319.317C1120.19 316.974 1125.23 313.101 1120.4 310.313C1120.04 310.091 1119.63 309.896 1119.19 309.731L1122.98 311.085Z" fill="black"/>
<path d="M853.19 252.292C853.19 254.586 854.706 256.88 857.738 258.63L927.268 298.774C933.332 302.274 943.162 302.274 949.225 298.774L1018.76 258.63C1022.67 256.369 1024.06 253.199 1022.92 250.295V226.938H985.82L949.225 205.81C943.162 202.309 933.332 202.309 927.268 205.81L890.673 226.938H853.098V252.292H853.19Z" fill="#E6EFFC"/>
<rect width="105.641" height="105.641" rx="12.6769" transform="matrix(0.866025 -0.5 0.866025 0.5 846.759 226.939)" fill="white"/>
<path d="M962.651 202.439L957.545 200.329C955.901 199.651 954.206 199.309 953.777 199.556C953.338 199.81 954.155 200.682 955.585 201.508L956.729 202.168C958.148 202.988 958.158 204.338 956.729 205.163L955.585 205.823C955.503 205.87 955.422 205.918 955.35 205.971L958.495 207.787C958.577 207.739 958.669 207.698 958.75 207.651L963.06 205.163C964.469 204.338 964.295 203.117 962.651 202.439Z" fill="#2453FF"/>
<path d="M948.621 206.259L941.636 210.291C941.575 210.327 941.524 210.356 941.473 210.397L934.304 214.536C934.223 214.583 934.151 214.636 934.08 214.689L933.416 214.306C931.997 213.487 930.465 213.015 930.036 213.263C929.597 213.516 930.21 214.495 931.374 215.438L935.029 218.386C936.204 219.335 938.317 219.435 939.747 218.61L944.056 216.122C944.495 215.868 944.842 215.586 945.087 215.303C945.69 215.804 945.598 216.493 944.822 216.941L938.787 220.426C937.807 220.992 936.193 220.909 935.387 220.267L932.334 217.796C931.537 217.148 929.913 217.071 928.933 217.637L898.881 234.988C898.238 235.359 898.064 235.896 898.371 236.355L901.322 244.591C901.373 244.727 901.577 244.833 901.822 244.845L904.222 244.957C904.518 244.975 904.783 244.845 904.814 244.674L905.631 240.7L924.052 251.336C924.93 251.843 926.339 251.843 927.218 251.336L935.744 246.413C936.622 245.906 936.622 245.093 935.744 244.586L929.342 240.889C928.474 240.388 928.463 239.568 929.342 239.061L950.632 226.769C951.51 226.262 952.92 226.262 953.798 226.769L960.2 230.466C961.078 230.973 962.488 230.973 963.366 230.466L971.892 225.543C972.76 225.042 972.77 224.222 971.892 223.715L965 219.736L960.466 222.354C959.046 223.173 956.708 223.179 955.278 222.354L950.847 219.795C949.999 219.306 949.662 218.639 949.826 218.003L955.115 221.057C956.534 221.876 958.873 221.882 960.302 221.057L967.287 217.024C968.706 216.205 968.717 214.854 967.287 214.029L953.818 206.253C952.389 205.439 950.05 205.433 948.621 206.259Z" fill="#2453FF"/>
<path d="M889.638 106.508C889.638 108.802 891.153 111.096 894.185 112.846L963.716 152.99C969.779 156.49 979.609 156.49 985.673 152.99L1055.2 112.846C1059.12 110.585 1060.51 107.415 1059.36 104.511V81.154H1022.27L985.673 60.0259C979.609 56.5252 969.779 56.5252 963.716 60.0259L927.121 81.154H889.545V106.508H889.638Z" fill="#E6EFFC"/>
<rect width="105.641" height="105.641" rx="12.6769" transform="matrix(0.866025 -0.5 0.866025 0.5 883.206 81.1553)" fill="white"/>
<mask id="mask1_755_44681" style="mask-type:luminance" maskUnits="userSpaceOnUse" x="961" y="72" width="35" height="21">
<path d="M961.611 81.1728L964.379 79.5744L972.545 84.2887L972.351 74.9718L976.006 72.8618L976.255 83.1061L995.936 83.73L992.393 85.7755L974.068 85.1684L983.757 90.762L980.988 92.3604L961.611 81.1728Z" fill="white"/>
</mask>
<g mask="url(#mask1_755_44681)">
<path d="M961.611 81.1728L964.379 79.5744L972.545 84.2887L972.351 74.9718L976.006 72.8618L976.255 83.1061L995.936 83.73L992.393 85.7755L974.068 85.1684L983.757 90.762L980.988 92.3604L961.611 81.1728Z" fill="url(#paint7_linear_755_44681)"/>
</g>
<mask id="mask2_755_44681" style="mask-type:luminance" maskUnits="userSpaceOnUse" x="947" y="55" width="75" height="23">
<path d="M962.592 71.726L984.098 68.399C984.465 68.3426 984.856 68.4032 985.125 68.5581L1000.87 77.6476C1001.14 77.8026 1001.53 77.8627 1001.9 77.806L1021.09 74.8373C1021.88 74.7151 1022.14 74.1441 1021.56 73.8101L990.902 56.1071C990.634 55.9522 990.243 55.8917 989.876 55.9482L947.991 62.4275C947.201 62.55 946.935 63.1213 947.514 63.4554L961.564 71.5676C961.832 71.7223 962.224 71.7828 962.592 71.726Z" fill="white"/>
</mask>
<g mask="url(#mask2_755_44681)">
<path d="M962.592 71.726L984.098 68.399C984.465 68.3426 984.856 68.4032 985.125 68.5581L1000.87 77.6476C1001.14 77.8026 1001.53 77.8627 1001.9 77.806L1021.09 74.8373C1021.88 74.7151 1022.14 74.1441 1021.56 73.8101L990.902 56.1071C990.634 55.9522 990.243 55.8917 989.876 55.9482L947.991 62.4275C947.201 62.55 946.935 63.1213 947.514 63.4554L961.564 71.5676C961.832 71.7223 962.224 71.7828 962.592 71.726Z" fill="url(#paint8_linear_755_44681)"/>
</g>
<mask id="mask3_755_44681" style="mask-type:luminance" maskUnits="userSpaceOnUse" x="930" y="65" width="94" height="46">
<path d="M1002.54 81.2392L996.775 93.6556C996.677 93.8675 996.39 94.0333 996.023 94.0897L971.516 97.8809C971.149 97.9373 970.756 97.8772 970.488 97.7224L952.548 87.3645C952.279 87.2095 952.175 86.983 952.273 86.771L958.035 74.3545C958.134 74.1424 958.029 73.9163 957.761 73.7615L943.711 65.6497C943.132 65.3156 942.143 65.4688 941.931 65.9254L930.708 90.1072C930.61 90.3192 930.715 90.5451 930.984 90.7001L964.711 110.172C964.979 110.327 965.37 110.388 965.738 110.331L1011.81 103.204C1012.18 103.148 1012.46 102.982 1012.56 102.77L1023.78 78.5883C1024 78.1315 1023.27 77.7137 1022.48 77.8361L1003.29 80.8048C1002.92 80.8618 1002.64 81.0272 1002.54 81.2392Z" fill="white"/>
</mask>
<g mask="url(#mask3_755_44681)">
<path d="M1002.54 81.2392L996.775 93.6556C996.677 93.8675 996.39 94.0333 996.023 94.0897L971.516 97.8809C971.149 97.9373 970.756 97.8772 970.488 97.7224L952.548 87.3645C952.279 87.2095 952.175 86.983 952.273 86.771L958.035 74.3545C958.134 74.1424 958.029 73.9163 957.761 73.7615L943.711 65.6497C943.132 65.3156 942.143 65.4688 941.931 65.9254L930.708 90.1072C930.61 90.3192 930.715 90.5451 930.984 90.7001L964.711 110.172C964.979 110.327 965.37 110.388 965.738 110.331L1011.81 103.204C1012.18 103.148 1012.46 102.982 1012.56 102.77L1023.78 78.5883C1024 78.1315 1023.27 77.7137 1022.48 77.8361L1003.29 80.8048C1002.92 80.8618 1002.64 81.0272 1002.54 81.2392Z" fill="url(#paint9_linear_755_44681)"/>
</g>
<path d="M1089.3 212.148C1089.3 214.442 1090.81 216.737 1093.85 218.487L1163.38 258.63C1169.44 262.131 1179.27 262.131 1185.33 258.63L1254.86 218.487C1258.78 216.225 1260.17 213.056 1259.02 210.151V186.795H1221.93L1185.33 165.666C1179.27 162.166 1169.44 162.166 1163.38 165.666L1126.78 186.795H1089.21V212.148H1089.3Z" fill="#E6EFFC"/>
<rect width="105.641" height="105.641" rx="12.6769" transform="matrix(0.866025 -0.5 0.866025 0.5 1082.87 186.796)" fill="white"/>
<path d="M1146.07 184.285C1141.78 186.764 1139.36 190.127 1139.36 193.634C1139.36 197.14 1141.78 200.503 1146.07 202.983C1150.36 205.462 1156.19 206.855 1162.26 206.855C1168.34 206.855 1174.16 205.462 1178.45 202.983L1202.74 188.959C1207.04 186.48 1209.45 183.117 1209.45 179.611C1209.45 176.104 1207.04 172.741 1202.74 170.262C1198.45 167.782 1192.62 166.389 1186.55 166.389C1180.48 166.389 1174.65 167.782 1170.36 170.262L1146.07 184.285Z" stroke="#C74634" stroke-width="9.34882"/>
</g>
<g filter="url(#filter1_dd_755_44681)">
<rect x="5" y="4" width="1260" height="480" fill="url(#paint10_linear_755_44681)" shape-rendering="crispEdges"/>
</g>
</g>
<defs>
<filter id="filter0_d_755_44681" x="651.566" y="-16.366" width="654.61" height="442.118" filterUnits="userSpaceOnUse" color-interpolation-filters="sRGB">
<feFlood flood-opacity="0" result="BackgroundImageFix"/>
<feColorMatrix in="SourceAlpha" type="matrix" values="0 0 0 0 0 0 0 0 0 0 0 0 0 0 0 0 0 0 127 0" result="hardAlpha"/>
<feOffset dy="4.69295"/>
<feGaussianBlur stdDeviation="9.3859"/>
<feComposite in2="hardAlpha" operator="out"/>
<feColorMatrix type="matrix" values="0 0 0 0 0 0 0 0 0 0 0 0 0 0 0 0 0 0 0.25 0"/>
<feBlend mode="normal" in2="BackgroundImageFix" result="effect1_dropShadow_755_44681"/>
<feBlend mode="normal" in="SourceGraphic" in2="effect1_dropShadow_755_44681" result="shape"/>
</filter>
<filter id="filter1_dd_755_44681" x="0" y="0" width="1270" height="489" filterUnits="userSpaceOnUse" color-interpolation-filters="sRGB">
<feFlood flood-opacity="0" result="BackgroundImageFix"/>
<feColorMatrix in="SourceAlpha" type="matrix" values="0 0 0 0 0 0 0 0 0 0 0 0 0 0 0 0 0 0 127 0" result="hardAlpha"/>
<feOffset dx="1" dy="1"/>
<feGaussianBlur stdDeviation="2"/>
<feComposite in2="hardAlpha" operator="out"/>
<feColorMatrix type="matrix" values="0 0 0 0 0 0 0 0 0 0 0 0 0 0 0 0 0 0 0.1 0"/>
<feBlend mode="normal" in2="BackgroundImageFix" result="effect1_dropShadow_755_44681"/>
<feColorMatrix in="SourceAlpha" type="matrix" values="0 0 0 0 0 0 0 0 0 0 0 0 0 0 0 0 0 0 127 0" result="hardAlpha"/>
<feOffset dx="-1"/>
<feGaussianBlur stdDeviation="2"/>
<feComposite in2="hardAlpha" operator="out"/>
<feColorMatrix type="matrix" values="0 0 0 0 0 0 0 0 0 0 0 0 0 0 0 0 0 0 0.1 0"/>
<feBlend mode="normal" in2="effect1_dropShadow_755_44681" result="effect2_dropShadow_755_44681"/>
<feBlend mode="normal" in="SourceGraphic" in2="effect2_dropShadow_755_44681" result="shape"/>
</filter>
<linearGradient id="paint0_linear_755_44681" x1="719.733" y1="140.706" x2="728.748" y2="125.091" gradientUnits="userSpaceOnUse">
<stop stop-color="#B77AF4"/>
<stop offset="1" stop-color="#773ADC"/>
</linearGradient>
<linearGradient id="paint1_linear_755_44681" x1="739.37" y1="129.551" x2="748.372" y2="113.961" gradientUnits="userSpaceOnUse">
<stop stop-color="#B77AF4"/>
<stop offset="1" stop-color="#773ADC"/>
</linearGradient>
<linearGradient id="paint2_linear_755_44681" x1="727.441" y1="155.804" x2="736.442" y2="140.214" gradientUnits="userSpaceOnUse">
<stop stop-color="#B77AF4"/>
<stop offset="1" stop-color="#773ADC"/>
</linearGradient>
<linearGradient id="paint3_linear_755_44681" x1="746.735" y1="144.52" x2="755.734" y2="128.933" gradientUnits="userSpaceOnUse">
<stop stop-color="#B77AF4"/>
<stop offset="1" stop-color="#773ADC"/>
</linearGradient>
<linearGradient id="paint4_linear_755_44681" x1="766.306" y1="133.402" x2="775.323" y2="117.784" gradientUnits="userSpaceOnUse">
<stop stop-color="#B77AF4"/>
<stop offset="1" stop-color="#773ADC"/>
</linearGradient>
<linearGradient id="paint5_linear_755_44681" x1="753.565" y1="160.494" x2="762.582" y2="144.876" gradientUnits="userSpaceOnUse">
<stop stop-color="#B77AF4"/>
<stop offset="1" stop-color="#773ADC"/>
</linearGradient>
<linearGradient id="paint6_linear_755_44681" x1="773.141" y1="149.338" x2="782.156" y2="133.723" gradientUnits="userSpaceOnUse">
<stop stop-color="#B77AF4"/>
<stop offset="1" stop-color="#773ADC"/>
</linearGradient>
<linearGradient id="paint7_linear_755_44681" x1="993.266" y1="84.6968" x2="964.971" y2="72.708" gradientUnits="userSpaceOnUse">
<stop stop-color="#4F66B9"/>
<stop offset="1" stop-color="#484FAB"/>
</linearGradient>
<linearGradient id="paint8_linear_755_44681" x1="1022.57" y1="70.9629" x2="957.713" y2="41.1732" gradientUnits="userSpaceOnUse">
<stop stop-color="#4F66B9"/>
<stop offset="1" stop-color="#484FAB"/>
</linearGradient>
<linearGradient id="paint9_linear_755_44681" x1="1014.74" y1="97.3797" x2="943.574" y2="63.2612" gradientUnits="userSpaceOnUse">
<stop stop-color="#4C68BB"/>
<stop offset="1" stop-color="#5180C9"/>
</linearGradient>
<linearGradient id="paint10_linear_755_44681" x1="1302" y1="-95" x2="689" y2="319" gradientUnits="userSpaceOnUse">
<stop stop-color="#082C74"/>
<stop offset="1" stop-color="#082C74" stop-opacity="0"/>
</linearGradient>
<clipPath id="clip0_755_44681">
<rect width="74.7571" height="74.7571" fill="white" transform="matrix(0.866025 -0.5 0.866025 0.5 690.41 139.133)"/>
</clipPath>
</defs>
</svg>
