<svg width="32" height="32" viewBox="0 0 32 32" fill="none" xmlns="http://www.w3.org/2000/svg">
    <path
        d="M11 1.5C11 0.66875 10.3313 0 9.5 0C8.66875 0 8 0.66875 8 1.5V4C5.79375 4 4 5.79375 4 8H1.5C0.66875 8 0 8.66875 0 9.5C0 10.3313 0.66875 11 1.5 11H4V14.5H1.5C0.66875 14.5 0 15.1687 0 16C0 16.8313 0.66875 17.5 1.5 17.5H4V21H1.5C0.66875 21 0 21.6687 0 22.5C0 23.3313 0.66875 24 1.5 24H4C4 26.2062 5.79375 28 8 28V30.5C8 31.3313 8.66875 32 9.5 32C10.3313 32 11 31.3313 11 30.5V28H14.5V30.5C14.5 31.3313 15.1687 32 16 32C16.8313 32 17.5 31.3313 17.5 30.5V28H21V30.5C21 31.3313 21.6687 32 22.5 32C23.3313 32 24 31.3313 24 30.5V28C26.2062 28 28 26.2062 28 24H30.5C31.3313 24 32 23.3313 32 22.5C32 21.6687 31.3313 21 30.5 21H28V17.5H30.5C31.3313 17.5 32 16.8313 32 16C32 15.1687 31.3313 14.5 30.5 14.5H28V11H30.5C31.3313 11 32 10.3313 32 9.5C32 8.66875 31.3313 8 30.5 8H28C28 5.79375 26.2062 4 24 4V1.5C24 0.66875 23.3313 0 22.5 0C21.6687 0 21 0.66875 21 1.5V4H17.5V1.5C17.5 0.66875 16.8313 0 16 0C15.1687 0 14.5 0.66875 14.5 1.5V4H11V1.5ZM10 8H22C23.1063 8 24 8.89375 24 10V22C24 23.1063 23.1063 24 22 24H10C8.89375 24 8 23.1063 8 22V10C8 8.89375 8.89375 8 10 8ZM22 10H10V22H22V10Z"
        fill="url(#paint0_linear_907_36589)" />
    <style type="text/css">
        fill: linear-gradient(180deg, #0A4195 0%, #5297FE 100%);
    </style>
    <defs>
        <linearGradient id="paint0_linear_907_36589" x1="16" y1="0" x2="16" y2="32"
            gradientUnits="userSpaceOnUse">
            <stop stop-color="#0A4195" />
            <stop offset="1" stop-color="#5297FE" />
        </linearGradient>
    </defs>
</svg>