<svg width="32" height="23" viewBox="0 0 32 23" fill="none" xmlns="http://www.w3.org/2000/svg">
    <path
        d="M0.639341 8.5195C1.41488 9.29504 2.64661 9.37107 3.48298 8.67157C10.5845 2.83223 20.8945 2.83223 28.0112 8.65636C28.8628 9.35587 30.1098 9.29504 30.8853 8.5195C31.7825 7.62231 31.7217 6.13207 30.7332 5.32612C22.0502 -1.77537 9.48959 -1.77537 0.791407 5.32612C-0.197023 6.11686 -0.273056 7.60711 0.639341 8.5195ZM12.4397 20.3198L14.675 22.5552C15.2681 23.1483 16.2261 23.1483 16.8192 22.5552L19.0545 20.3198C19.7693 19.6051 19.6172 18.3734 18.7048 17.902C17.785 17.4297 16.7659 17.1833 15.7319 17.1833C14.6979 17.1833 13.6788 17.4297 12.759 17.902C11.8922 18.3734 11.725 19.6051 12.4397 20.3198ZM6.76761 14.6478C7.51273 15.3929 8.68364 15.4689 9.55041 14.8455C11.3646 13.5619 13.5323 12.8726 15.7547 12.8726C17.9771 12.8726 20.1448 13.5619 21.959 14.8455C22.8258 15.4537 23.9967 15.3929 24.7418 14.6478L24.757 14.6326C25.6694 13.7202 25.6086 12.1691 24.5593 11.424C19.3283 7.63752 12.1964 7.63752 6.95008 11.424C5.90083 12.1843 5.84 13.7202 6.76761 14.6478Z"
        fill="url(#paint0_linear_907_36590)" />
    <style type="text/css">
        fill: linear-gradient(180deg, #0A4195 0%, #5297FE 100%);
    </style>
    <defs>
        <linearGradient id="paint0_linear_907_36590" x1="15.7593" y1="0" x2="15.7593" y2="23"
            gradientUnits="userSpaceOnUse">
            <stop stop-color="#0A4195" />
            <stop offset="1" stop-color="#5297FE" />
        </linearGradient>
    </defs>
</svg>