<svg xmlns="http://www.w3.org/2000/svg" version="1.1" width="2480px" height="2142px" style="shape-rendering:geometricPrecision; text-rendering:geometricPrecision; image-rendering:optimizeQuality; fill-rule:evenodd; clip-rule:evenodd" xmlns:xlink="http://www.w3.org/1999/xlink">
<g><path style="opacity:0.926" fill="#040505" d="M 1738.5,1169.5 C 1734.15,1168.7 1730.48,1170.2 1727.5,1174C 1726.56,1174.69 1725.9,1174.53 1725.5,1173.5C 1730.76,1145.25 1735.6,1116.91 1740,1088.5C 1741.39,1075.37 1742.23,1062.2 1742.5,1049C 1741.51,1037.2 1740.85,1025.37 1740.5,1013.5C 1697.06,1022.74 1661.23,1010.41 1633,976.5C 1612.88,949.596 1598.05,919.929 1588.5,887.5C 1588.5,886.833 1588.17,886.5 1587.5,886.5C 1582.67,865.86 1577.84,845.194 1573,824.5C 1568.89,804.633 1565.56,784.633 1563,764.5C 1561.64,748.52 1561.3,732.52 1562,716.5C 1563.93,708.604 1565.09,700.604 1565.5,692.5C 1569.15,683.237 1572.81,673.904 1576.5,664.5C 1576.86,662.629 1577.86,661.129 1579.5,660C 1585.66,655.42 1591.99,651.086 1598.5,647C 1599.57,646.261 1600.24,645.261 1600.5,644C 1592.43,633.933 1583.1,625.266 1572.5,618C 1527.17,588.67 1478.5,566.337 1426.5,551C 1368.83,537.61 1310.49,528.776 1251.5,524.5C 1216.21,518.595 1180.54,516.429 1144.5,518C 1121.01,521.447 1098.34,527.614 1076.5,536.5C 1061.28,540.638 1045.95,544.472 1030.5,548C 1023.45,550.176 1016.78,553.01 1010.5,556.5C 1000.97,561.092 991.969,566.426 983.5,572.5C 976.305,575.93 968.971,579.096 961.5,582C 957.319,584.37 953.652,587.203 950.5,590.5C 949.883,590.389 949.383,590.056 949,589.5C 946.688,591.16 944.188,591.993 941.5,592C 926.188,558.853 901.854,535.02 868.5,520.5C 867.766,518.185 866.432,516.352 864.5,515C 865.056,514.617 865.389,514.117 865.5,513.5C 882.444,519.137 897.777,527.637 911.5,539C 927.234,551.233 939.901,566.066 949.5,583.5C 956.087,578.081 963.087,573.248 970.5,569C 1011,549.721 1053,534.387 1096.5,523C 1167.68,507.286 1239.35,504.619 1311.5,515C 1336.31,518.413 1360.98,522.579 1385.5,527.5C 1389.8,512.563 1396.97,499.23 1407,487.5C 1438.06,453.495 1475.89,439.661 1520.5,446C 1545.14,454.77 1556.64,472.27 1555,498.5C 1554.27,504.765 1552.6,510.765 1550,516.5C 1540.81,528.707 1532.81,541.707 1526,555.5C 1524.67,559.5 1523.33,563.5 1522,567.5C 1521.2,569.259 1521.37,570.926 1522.5,572.5C 1550.13,585.329 1575.8,601.162 1599.5,620C 1604.7,624.865 1609.53,630.032 1614,635.5C 1690.89,618.822 1755.89,639.822 1809,698.5C 1858.35,762.246 1872.68,832.912 1852,910.5C 1834.11,959.054 1800.95,992.221 1752.5,1010C 1756.34,1038.51 1755.84,1068.34 1751,1099.5C 1746.64,1122.8 1742.47,1146.14 1738.5,1169.5 Z"/></g>
<g><path style="opacity:0.995" fill="#19242b" d="M 1514.5,457.5 C 1487.66,455.399 1462.66,461.066 1439.5,474.5C 1437.81,472.182 1435.48,471.182 1432.5,471.5C 1436,470.831 1439.67,470.664 1443.5,471C 1447.67,467.501 1452.34,464.834 1457.5,463C 1467.35,460.037 1477.35,457.703 1487.5,456C 1494.63,451.32 1502.3,450.32 1510.5,453C 1512.04,454.371 1513.37,455.871 1514.5,457.5 Z"/></g>
<g><path style="opacity:1" fill="#96d4fd" d="M 1514.5,457.5 C 1527.69,461.356 1536.69,469.69 1541.5,482.5C 1543.78,494.705 1541.61,506.039 1535,516.5C 1523.43,529.961 1515.27,545.295 1510.5,562.5C 1510.03,563.901 1509.36,565.234 1508.5,566.5C 1471.08,548.748 1432.08,535.914 1391.5,528C 1394.81,521.877 1397.81,515.711 1400.5,509.5C 1411.93,496.067 1424.93,484.4 1439.5,474.5C 1462.66,461.066 1487.66,455.399 1514.5,457.5 Z"/></g>
<g><path style="opacity:1" fill="#2a3b47" d="M 1432.5,471.5 C 1435.48,471.182 1437.81,472.182 1439.5,474.5C 1424.93,484.4 1411.93,496.067 1400.5,509.5C 1404.02,497.146 1411.18,487.479 1422,480.5C 1423.97,475.759 1427.47,472.759 1432.5,471.5 Z"/></g>
<g><path style="opacity:0.787" fill="#020304" d="M 848.5,508.5 C 848.5,509.167 848.833,509.5 849.5,509.5C 842.09,513.544 834.424,517.211 826.5,520.5C 825.5,520.5 824.5,520.5 823.5,520.5C 805.968,513.706 789.968,516.539 775.5,529C 771.667,532.833 767.833,536.667 764,540.5C 762.441,542.217 761.608,544.217 761.5,546.5C 760.833,547.833 759.833,548.833 758.5,549.5C 751.563,551.243 745.73,554.91 741,560.5C 731.64,574.582 729.974,589.582 736,605.5C 737.699,608.921 739.865,611.921 742.5,614.5C 745.715,621.045 750.048,626.711 755.5,631.5C 761.554,640.549 769.887,646.715 780.5,650C 784.833,653.667 789.167,657.333 793.5,661C 800.445,663.139 806.778,666.306 812.5,670.5C 824.651,677.746 836.317,685.746 847.5,694.5C 843.451,708.485 839.284,722.485 835,736.5C 834.74,738.618 833.74,740.284 832,741.5C 827.537,762.94 825.037,784.607 824.5,806.5C 823.883,806.611 823.383,806.944 823,807.5C 821.073,821.319 819.24,835.153 817.5,849C 818.677,870.147 819.51,891.314 820,912.5C 821.333,913.833 822.667,915.167 824,916.5C 827.17,929.637 829.503,942.97 831,956.5C 833.862,962.752 836.528,969.085 839,975.5C 840.333,976.833 841.667,978.167 843,979.5C 845.713,997.361 851.046,1014.36 859,1030.5C 862.232,1038.3 864.899,1046.3 867,1054.5C 867.383,1053.94 867.883,1053.61 868.5,1053.5C 873.978,1072.89 878.312,1092.56 881.5,1112.5C 882.272,1116.45 882.605,1120.45 882.5,1124.5C 876.469,1127.17 870.469,1129.84 864.5,1132.5C 859.365,1122.08 861.031,1112.75 869.5,1104.5C 865.486,1083.06 860.32,1061.06 854,1038.5C 842.728,1005.02 832.061,971.351 822,937.5C 814.03,902.258 811.03,866.592 813,830.5C 812.268,782.159 821.768,735.993 841.5,692C 808.837,678.316 777.837,661.649 748.5,642C 728.109,623.287 721.609,600.453 729,573.5C 733.417,558.826 741.251,546.326 752.5,536C 779.345,509.12 811.345,499.953 848.5,508.5 Z"/></g>
<g><path style="opacity:0.341" fill="#85bde1" d="M 848.5,508.5 C 854.349,508.01 859.682,509.343 864.5,512.5C 864.265,513.097 863.765,513.43 863,513.5C 858.551,511.849 854.051,510.516 849.5,509.5C 848.833,509.5 848.5,509.167 848.5,508.5 Z"/></g>
<g><path style="opacity:1" fill="#131b20" d="M 849.5,509.5 C 854.051,510.516 858.551,511.849 863,513.5C 863.765,513.43 864.265,513.097 864.5,512.5C 865.167,512.5 865.5,512.833 865.5,513.5C 865.389,514.117 865.056,514.617 864.5,515C 866.432,516.352 867.766,518.185 868.5,520.5C 901.854,535.02 926.188,558.853 941.5,592C 944.188,591.993 946.688,591.16 949,589.5C 949.383,590.056 949.883,590.389 950.5,590.5C 954.251,594.669 954.251,598.835 950.5,603C 948.432,603.687 946.432,603.52 944.5,602.5C 938,592.167 931.5,581.833 925,571.5C 905.835,549.998 882.668,534.498 855.5,525C 846.051,522.111 836.385,520.611 826.5,520.5C 834.424,517.211 842.09,513.544 849.5,509.5 Z"/></g>
<g><path style="opacity:1" fill="#151e23" d="M 823.5,520.5 C 806.731,519.691 791.398,523.857 777.5,533C 771.708,536.959 766.374,541.459 761.5,546.5C 761.608,544.217 762.441,542.217 764,540.5C 767.833,536.667 771.667,532.833 775.5,529C 789.968,516.539 805.968,513.706 823.5,520.5 Z"/></g>
<g><path style="opacity:1" fill="#557890" d="M 1495.5,524.5 C 1494.13,519.471 1491.47,518.471 1487.5,521.5C 1496.9,512.63 1507.9,507.297 1520.5,505.5C 1511.6,511.114 1503.26,517.447 1495.5,524.5 Z"/></g>
<g><path style="opacity:1" fill="#0f1417" d="M 1251.5,524.5 C 1195.86,522.682 1140.86,527.682 1086.5,539.5C 1082.99,538.957 1079.65,537.957 1076.5,536.5C 1098.34,527.614 1121.01,521.447 1144.5,518C 1180.54,516.429 1216.21,518.595 1251.5,524.5 Z"/></g>
<g><path style="opacity:1" fill="#96d5fe" d="M 823.5,520.5 C 824.5,520.5 825.5,520.5 826.5,520.5C 836.385,520.611 846.051,522.111 855.5,525C 882.668,534.498 905.835,549.998 925,571.5C 931.5,581.833 938,592.167 944.5,602.5C 946.432,603.52 948.432,603.687 950.5,603C 954.251,598.835 954.251,594.669 950.5,590.5C 953.652,587.203 957.319,584.37 961.5,582C 968.971,579.096 976.305,575.93 983.5,572.5C 995.81,567.953 1008.14,563.62 1020.5,559.5C 1042.53,552.597 1064.53,545.93 1086.5,539.5C 1140.86,527.682 1195.86,522.682 1251.5,524.5C 1310.49,528.776 1368.83,537.61 1426.5,551C 1478.5,566.337 1527.17,588.67 1572.5,618C 1583.1,625.266 1592.43,633.933 1600.5,644C 1600.24,645.261 1599.57,646.261 1598.5,647C 1591.99,651.086 1585.66,655.42 1579.5,660C 1577.86,661.129 1576.86,662.629 1576.5,664.5C 1572.84,666.76 1570.34,670.093 1569,674.5C 1567.19,680.387 1566.03,686.387 1565.5,692.5C 1565.09,700.604 1563.93,708.604 1562,716.5C 1561.3,732.52 1561.64,748.52 1563,764.5C 1565.56,784.633 1568.89,804.633 1573,824.5C 1577.84,845.194 1582.67,865.86 1587.5,886.5C 1588.17,886.5 1588.5,886.833 1588.5,887.5C 1598.05,919.929 1612.88,949.596 1633,976.5C 1661.23,1010.41 1697.06,1022.74 1740.5,1013.5C 1740.85,1025.37 1741.51,1037.2 1742.5,1049C 1742.23,1062.2 1741.39,1075.37 1740,1088.5C 1735.6,1116.91 1730.76,1145.25 1725.5,1173.5C 1724.57,1174.57 1724.23,1175.9 1724.5,1177.5C 1721.53,1177 1718.53,1176.67 1715.5,1176.5C 1673.34,1181.81 1631.01,1184.65 1588.5,1185C 1562.94,1188.98 1537.27,1191.81 1511.5,1193.5C 1506.05,1179.25 1500.55,1164.91 1495,1150.5C 1486.83,1135.97 1476.67,1122.81 1464.5,1111C 1458.18,1105.84 1451.52,1101.17 1444.5,1097C 1406.81,1075.74 1368.15,1058.74 1328.5,1046C 1327.94,1045.62 1327.61,1045.12 1327.5,1044.5C 1394.39,1013.71 1431.23,961.375 1438,887.5C 1439.81,805.965 1409.31,739.465 1346.5,688C 1289.46,645.908 1226.13,631.575 1156.5,645C 1077.85,670.98 1025.02,723.146 998,801.5C 986.05,839.087 986.717,876.421 1000,913.5C 1017.96,958.118 1045.79,995.284 1083.5,1025C 1085.08,1026.09 1086.74,1026.93 1088.5,1027.5C 1075.51,1034.33 1062.18,1040.66 1048.5,1046.5C 1047.32,1045.31 1047.32,1044.15 1048.5,1043C 1047.27,1041.47 1045.77,1040.3 1044,1039.5C 1041.98,1040.08 1039.81,1040.08 1037.5,1039.5C 1026.69,1041.03 1016.36,1044.7 1006.5,1050.5C 1004.57,1049.48 1002.57,1049.31 1000.5,1050C 999.449,1051.38 998.116,1052.38 996.5,1053C 983.305,1056.94 971.638,1063.27 961.5,1072C 956.032,1072.79 952.198,1075.62 950,1080.5C 949.333,1079.83 948.667,1079.17 948,1078.5C 946.837,1080.29 946.17,1082.29 946,1084.5C 943.667,1083.83 941.333,1083.17 939,1082.5C 938.167,1083.5 937.333,1084.5 936.5,1085.5C 927.755,1084.43 919.588,1086.1 912,1090.5C 911.228,1090.36 910.561,1090.02 910,1089.5C 904.265,1094.29 898.099,1098.45 891.5,1102C 888.894,1103.94 887.061,1106.44 886,1109.5C 884.871,1111.14 883.371,1112.14 881.5,1112.5C 878.312,1092.56 873.978,1072.89 868.5,1053.5C 858.776,1018.83 847.942,984.493 836,950.5C 823.482,903.186 819.648,855.186 824.5,806.5C 825.037,784.607 827.537,762.94 832,741.5C 833.74,740.284 834.74,738.618 835,736.5C 839.284,722.485 843.451,708.485 847.5,694.5C 849.635,692.631 852.302,691.964 855.5,692.5C 855.709,690.286 854.876,688.619 853,687.5C 838.698,682.342 825.198,675.675 812.5,667.5C 793.331,655.75 774.331,643.75 755.5,631.5C 750.048,626.711 745.715,621.045 742.5,614.5C 734.81,589.595 740.143,567.928 758.5,549.5C 759.833,548.833 760.833,547.833 761.5,546.5C 766.374,541.459 771.708,536.959 777.5,533C 791.398,523.857 806.731,519.691 823.5,520.5 Z"/></g>
<g><path style="opacity:1" fill="#24333c" d="M 1541.5,482.5 C 1544.32,484.779 1546.15,487.779 1547,491.5C 1547.7,495.905 1547.36,500.239 1546,504.5C 1541.68,515.822 1535.34,525.822 1527,534.5C 1522.75,544.688 1517.25,554.021 1510.5,562.5C 1515.27,545.295 1523.43,529.961 1535,516.5C 1541.61,506.039 1543.78,494.705 1541.5,482.5 Z"/></g>
<g><path style="opacity:1" fill="#364d5c" d="M 1495.5,524.5 C 1494.51,525.795 1493.51,527.128 1492.5,528.5C 1491.54,528.953 1490.71,529.619 1490,530.5C 1487.17,535.5 1484.33,540.5 1481.5,545.5C 1473.59,547 1471.43,544 1475,536.5C 1478.23,530.69 1482.4,525.69 1487.5,521.5C 1491.47,518.471 1494.13,519.471 1495.5,524.5 Z"/></g>
<g><path style="opacity:1" fill="#587c94" d="M 1495.5,524.5 C 1501.15,527.451 1507.15,529.951 1513.5,532C 1515.32,536.846 1513.66,538.512 1508.5,537C 1503.27,533.887 1497.94,531.053 1492.5,528.5C 1493.51,527.128 1494.51,525.795 1495.5,524.5 Z"/></g>
<g><path style="opacity:1" fill="#202e36" d="M 1076.5,536.5 C 1079.65,537.957 1082.99,538.957 1086.5,539.5C 1064.53,545.93 1042.53,552.597 1020.5,559.5C 1018.74,559.357 1017.07,559.691 1015.5,560.5C 1014.23,558.596 1012.57,557.263 1010.5,556.5C 1016.78,553.01 1023.45,550.176 1030.5,548C 1045.95,544.472 1061.28,540.638 1076.5,536.5 Z"/></g>
<g><path style="opacity:1" fill="#172128" d="M 758.5,549.5 C 740.143,567.928 734.81,589.595 742.5,614.5C 739.865,611.921 737.699,608.921 736,605.5C 729.974,589.582 731.64,574.582 741,560.5C 745.73,554.91 751.563,551.243 758.5,549.5 Z"/></g>
<g><path style="opacity:1" fill="#395161" d="M 1010.5,556.5 C 1012.57,557.263 1014.23,558.596 1015.5,560.5C 1017.07,559.691 1018.74,559.357 1020.5,559.5C 1008.14,563.62 995.81,567.953 983.5,572.5C 991.969,566.426 1000.97,561.092 1010.5,556.5 Z"/></g>
<g><path style="opacity:1" fill="#6590ac" d="M 860.5,604.5 C 859.317,605.504 857.984,606.338 856.5,607C 857.381,607.708 858.047,608.542 858.5,609.5C 847.457,603.539 835.79,599.039 823.5,596C 836.782,595.046 849.115,597.879 860.5,604.5 Z"/></g>
<g><path style="opacity:1" fill="#466376" d="M 860.5,604.5 C 874.57,610.118 886.403,618.784 896,630.5C 899.268,636.937 897.435,639.437 890.5,638C 883.119,626.778 873.452,618.278 861.5,612.5C 861.167,611.5 860.5,610.833 859.5,610.5C 858.833,610.5 858.5,610.167 858.5,609.5C 858.047,608.542 857.381,607.708 856.5,607C 857.984,606.338 859.317,605.504 860.5,604.5 Z"/></g>
<g><path style="opacity:1" fill="#5d849e" d="M 859.5,610.5 C 860.5,610.833 861.167,611.5 861.5,612.5C 855.009,619.492 848.342,626.325 841.5,633C 836.769,635.812 834.602,634.645 835,629.5C 842.413,624.21 849.913,619.043 857.5,614C 858.823,613.184 859.489,612.017 859.5,610.5 Z"/></g>
<g><path style="opacity:1" fill="#050708" d="M 1327.5,1044.5 C 1313.79,1049.52 1299.79,1053.52 1285.5,1056.5C 1279.22,1054.03 1273.22,1051.03 1267.5,1047.5C 1317.43,1042.62 1358.6,1021.29 1391,983.5C 1417.24,947.561 1429.07,907.227 1426.5,862.5C 1397.87,863.912 1369.53,861.745 1341.5,856C 1274.85,842.501 1212.52,818.168 1154.5,783C 1133.83,768.667 1113.17,754.333 1092.5,740C 1085.79,733.626 1078.79,727.626 1071.5,722C 1069.29,719.075 1066.95,716.241 1064.5,713.5C 1028.96,749.241 1007.8,792.241 1001,842.5C 998.946,865.967 1002.28,888.634 1011,910.5C 1025.81,946.303 1047.31,977.47 1075.5,1004C 1083.54,1010.68 1091.88,1016.84 1100.5,1022.5C 1096.79,1024.69 1092.79,1026.35 1088.5,1027.5C 1086.74,1026.93 1085.08,1026.09 1083.5,1025C 1045.79,995.284 1017.96,958.118 1000,913.5C 986.717,876.421 986.05,839.087 998,801.5C 1025.02,723.146 1077.85,670.98 1156.5,645C 1226.13,631.575 1289.46,645.908 1346.5,688C 1409.31,739.465 1439.81,805.965 1438,887.5C 1431.23,961.375 1394.39,1013.71 1327.5,1044.5 Z"/></g>
<g><path style="opacity:1" fill="#1f2d35" d="M 755.5,631.5 C 774.331,643.75 793.331,655.75 812.5,667.5C 811.167,668.5 811.167,669.5 812.5,670.5C 806.778,666.306 800.445,663.139 793.5,661C 789.167,657.333 784.833,653.667 780.5,650C 769.887,646.715 761.554,640.549 755.5,631.5 Z"/></g>
<g><path style="opacity:1" fill="#96d5fd" d="M 1649.5,641.5 C 1697.4,638.88 1739.74,652.713 1776.5,683C 1777.52,684.049 1777.68,685.216 1777,686.5C 1756.13,716.386 1732.63,744.219 1706.5,770C 1678.47,791.516 1647.47,807.516 1613.5,818C 1603.95,820.481 1594.28,822.314 1584.5,823.5C 1577.58,792.884 1573.58,761.884 1572.5,730.5C 1573.14,712.558 1575.64,694.891 1580,677.5C 1581.74,673.759 1584.24,670.592 1587.5,668C 1594.23,662.941 1601.23,658.274 1608.5,654C 1612.08,648.707 1617.08,645.707 1623.5,645C 1632.32,643.89 1640.99,642.723 1649.5,641.5 Z"/></g>
<g><path style="opacity:1" fill="#96d5fe" d="M 1425.5,850.5 C 1425.5,851.5 1425.5,852.5 1425.5,853.5C 1414.83,853.5 1404.17,853.5 1393.5,853.5C 1370.1,852.752 1347.1,849.252 1324.5,843C 1288.8,834.324 1254.14,822.657 1220.5,808C 1201.55,798.859 1182.88,789.192 1164.5,779C 1132.38,758.216 1101.38,735.883 1071.5,712C 1069.99,711.163 1069.49,709.996 1070,708.5C 1132.45,649.688 1203.95,635.521 1284.5,666C 1360.63,698.476 1407.13,755.309 1424,836.5C 1424.67,841.156 1425.17,845.823 1425.5,850.5 Z"/></g>
<g><path style="opacity:1" fill="#5c829b" d="M 1576.5,664.5 C 1572.81,673.904 1569.15,683.237 1565.5,692.5C 1566.03,686.387 1567.19,680.387 1569,674.5C 1570.34,670.093 1572.84,666.76 1576.5,664.5 Z"/></g>
<g><path style="opacity:0.999" fill="#456174" d="M 812.5,667.5 C 825.198,675.675 838.698,682.342 853,687.5C 854.876,688.619 855.709,690.286 855.5,692.5C 852.302,691.964 849.635,692.631 847.5,694.5C 836.317,685.746 824.651,677.746 812.5,670.5C 811.167,669.5 811.167,668.5 812.5,667.5 Z"/></g>
<g><path style="opacity:1" fill="#fefefe" d="M 1784.5,692.5 C 1791.11,697.271 1796.94,702.937 1802,709.5C 1849.81,773.666 1860.81,843.666 1835,919.5C 1810.32,971.664 1769.15,999.998 1711.5,1004.5C 1689.58,1004.92 1670.58,997.75 1654.5,983C 1639.51,967.853 1627.34,950.686 1618,931.5C 1603.93,898.899 1593.1,865.233 1585.5,830.5C 1612.25,828.917 1637.58,822.084 1661.5,810C 1674.5,802.333 1687.5,794.667 1700.5,787C 1714.23,776.271 1727.07,764.437 1739,751.5C 1755.14,732.525 1770.31,712.859 1784.5,692.5 Z"/></g>
<g><path style="opacity:1" fill="#fefefe" d="M 1267.5,1047.5 C 1241.28,1037.05 1215.62,1025.55 1190.5,1013C 1186.35,1011.06 1182.02,1009.73 1177.5,1009C 1162.5,1008.33 1147.5,1008.33 1132.5,1009C 1121.43,1012.71 1110.76,1017.21 1100.5,1022.5C 1091.88,1016.84 1083.54,1010.68 1075.5,1004C 1047.31,977.47 1025.81,946.303 1011,910.5C 1002.28,888.634 998.946,865.967 1001,842.5C 1007.8,792.241 1028.96,749.241 1064.5,713.5C 1066.95,716.241 1069.29,719.075 1071.5,722C 1078.79,727.626 1085.79,733.626 1092.5,740C 1113.17,754.333 1133.83,768.667 1154.5,783C 1212.52,818.168 1274.85,842.501 1341.5,856C 1369.53,861.745 1397.87,863.912 1426.5,862.5C 1429.07,907.227 1417.24,947.561 1391,983.5C 1358.6,1021.29 1317.43,1042.62 1267.5,1047.5 Z"/></g>
<g><path style="opacity:1" fill="#0c0f12" d="M 824.5,806.5 C 819.648,855.186 823.482,903.186 836,950.5C 847.942,984.493 858.776,1018.83 868.5,1053.5C 867.883,1053.61 867.383,1053.94 867,1054.5C 864.899,1046.3 862.232,1038.3 859,1030.5C 851.046,1014.36 845.713,997.361 843,979.5C 841.667,978.167 840.333,976.833 839,975.5C 836.528,969.085 833.862,962.752 831,956.5C 829.503,942.97 827.17,929.637 824,916.5C 822.667,915.167 821.333,913.833 820,912.5C 819.51,891.314 818.677,870.147 817.5,849C 819.24,835.153 821.073,821.319 823,807.5C 823.383,806.944 823.883,806.611 824.5,806.5 Z"/></g>
<g><path style="opacity:0.864" fill="#030405" d="M 1915.5,1220.5 C 1905.46,1230.21 1896.12,1240.54 1887.5,1251.5C 1876.74,1262.63 1866.41,1274.13 1856.5,1286C 1865.67,1295.52 1873.51,1306.02 1880,1317.5C 1882.01,1323.25 1881.84,1328.91 1879.5,1334.5C 1872.87,1337.63 1866.37,1337.63 1860,1334.5C 1858.43,1335.06 1857.1,1334.39 1856,1332.5C 1855.59,1332.96 1855.09,1333.29 1854.5,1333.5C 1840.03,1327.62 1826.86,1318.96 1815,1307.5C 1813.33,1309.5 1811.67,1311.5 1810,1313.5C 1808.21,1323.58 1803.05,1331.41 1794.5,1337C 1775.45,1345.76 1755.45,1351.1 1734.5,1353C 1728.39,1354.52 1722.39,1356.35 1716.5,1358.5C 1701.57,1439.65 1671.74,1514.65 1627,1583.5C 1619,1594.17 1611,1604.83 1603,1615.5C 1594.64,1626.02 1585.48,1635.69 1575.5,1644.5C 1571.5,1647.83 1567.83,1651.5 1564.5,1655.5C 1544.8,1674.94 1522.97,1691.6 1499,1705.5C 1501.26,1718.68 1501.93,1732.01 1501,1745.5C 1495.63,1765.96 1483.8,1770.79 1465.5,1760C 1462.33,1756.83 1459.17,1753.67 1456,1750.5C 1452.49,1743.47 1448.49,1736.81 1444,1730.5C 1402.21,1744.49 1359.38,1752.49 1315.5,1754.5C 1247.55,1758.78 1180.22,1753.78 1113.5,1739.5C 1111.28,1751.41 1108.12,1763.08 1104,1774.5C 1095.41,1792.55 1081.57,1798.72 1062.5,1793C 1058.54,1789.58 1055.71,1785.41 1054,1780.5C 1053.26,1769.8 1053.6,1759.13 1055,1748.5C 1056.07,1742.54 1057.9,1736.88 1060.5,1731.5C 1061.83,1731.5 1063.17,1731.5 1064.5,1731.5C 1064.84,1732.34 1065.51,1732.67 1066.5,1732.5C 1064.47,1744.78 1062.8,1757.11 1061.5,1769.5C 1061.18,1776.69 1063.51,1782.86 1068.5,1788C 1078.24,1790.31 1086.08,1787.48 1092,1779.5C 1098.49,1765.86 1102.65,1751.52 1104.5,1736.5C 1100.21,1736.82 1096.21,1735.99 1092.5,1734C 1093.06,1733.62 1093.39,1733.12 1093.5,1732.5C 1095.74,1732.79 1097.74,1732.46 1099.5,1731.5C 1106.17,1731.5 1112.83,1731.5 1119.5,1731.5C 1120.17,1732.83 1120.83,1732.83 1121.5,1731.5C 1127.83,1731.5 1134.17,1731.5 1140.5,1731.5C 1141.59,1733.12 1143.26,1733.95 1145.5,1734C 1175.66,1738.92 1205.99,1742.08 1236.5,1743.5C 1271.62,1745.06 1306.62,1743.73 1341.5,1739.5C 1417.65,1733.89 1484.99,1707.06 1543.5,1659C 1590.15,1617.5 1626.99,1568.67 1654,1512.5C 1692.41,1430.84 1712.91,1344.84 1715.5,1254.5C 1719.37,1267.08 1721.54,1280.08 1722,1293.5C 1722.87,1297.06 1725.04,1298.56 1728.5,1298C 1731.64,1295.7 1734.64,1293.2 1737.5,1290.5C 1738.17,1290.5 1738.5,1290.17 1738.5,1289.5C 1750.82,1288.27 1763.15,1287.1 1775.5,1286C 1778.83,1284 1781.5,1281.33 1783.5,1278C 1772.17,1267.87 1762.33,1256.37 1754,1243.5C 1753.16,1239.36 1752.33,1235.36 1751.5,1231.5C 1751.5,1229.17 1751.5,1226.83 1751.5,1224.5C 1752.29,1220.68 1754.12,1217.34 1757,1214.5C 1760.29,1215.78 1763.96,1215.78 1768,1214.5C 1776.49,1216 1783.99,1219.5 1790.5,1225C 1794.85,1226.6 1798.69,1229.1 1802,1232.5C 1863.74,1146.92 1924.41,1060.92 1984,974.5C 2015.12,935.709 2046.62,897.209 2078.5,859C 2082.83,857.745 2087,856.245 2091,854.5C 2092.4,855.116 2093.9,855.449 2095.5,855.5C 2099.76,853.898 2103.93,852.898 2108,852.5C 2121,853.046 2134.83,853.046 2149.5,852.5C 2154.28,853.69 2158.94,854.023 2163.5,853.5C 2166.11,869.725 2168.27,886.058 2170,902.5C 2170.4,910.173 2170.9,917.84 2171.5,925.5C 2171.55,928.295 2171.05,930.961 2170,933.5C 2156.78,950.916 2143.78,968.583 2131,986.5C 2128.67,988.833 2126.33,991.167 2124,993.5C 2119.03,1001.46 2113.69,1009.13 2108,1016.5C 2080.99,1050.51 2052.16,1083.01 2021.5,1114C 2020.17,1114.67 2018.83,1115.33 2017.5,1116C 2008.52,1124.64 1999.86,1133.64 1991.5,1143C 1986.29,1146.39 1981.96,1150.72 1978.5,1156C 1971.33,1160.5 1965.5,1166.33 1961,1173.5C 1951.3,1181.54 1942.63,1190.54 1935,1200.5C 1928.3,1207.04 1921.8,1213.7 1915.5,1220.5 Z"/></g>
<g><path style="opacity:1" fill="#364c5b" d="M 1425.5,850.5 C 1426.43,851.568 1426.77,852.901 1426.5,854.5C 1415.32,854.828 1404.32,854.495 1393.5,853.5C 1404.17,853.5 1414.83,853.5 1425.5,853.5C 1425.5,852.5 1425.5,851.5 1425.5,850.5 Z"/></g>
<g><path style="opacity:0.004" fill="#000000" d="M 2097.5,853.5 C 2098.83,854.167 2098.83,854.167 2097.5,853.5 Z"/></g>
<g><path style="opacity:1" fill="#030303" d="M 1644.5,855.5 C 1670.67,857.554 1682.5,871.554 1680,897.5C 1673.21,917.321 1659.37,925.488 1638.5,922C 1619.59,914.429 1611.76,900.596 1615,880.5C 1619.86,866.126 1629.7,857.792 1644.5,855.5 Z"/></g>
<g><path style="opacity:1" fill="#8cbafd" d="M 2159.5,858.5 C 2161.13,883.448 2163.29,908.448 2166,933.5C 2132.77,972.342 2100.27,1011.68 2068.5,1051.5C 2059.49,1060.51 2050.83,1069.84 2042.5,1079.5C 2011.91,1109.09 1981.91,1139.42 1952.5,1170.5C 1947.11,1174.89 1942.44,1179.89 1938.5,1185.5C 1921.12,1203.21 1904.46,1221.54 1888.5,1240.5C 1885.36,1243.46 1882.69,1246.79 1880.5,1250.5C 1870.94,1261.28 1861.6,1272.28 1852.5,1283.5C 1838.46,1266.63 1822.63,1251.63 1805,1238.5C 1804.33,1237.5 1804.33,1236.5 1805,1235.5C 1840.85,1192.29 1874.51,1147.29 1906,1100.5C 1913.09,1090.65 1920.42,1080.99 1928,1071.5C 1966.76,1010.4 2009.76,952.4 2057,897.5C 2064.44,885.726 2072.28,874.226 2080.5,863C 2087.55,862.761 2094.55,862.261 2101.5,861.5C 2120.9,861.543 2140.23,860.543 2159.5,858.5 Z"/></g>
<g><path style="opacity:1" fill="#354760" d="M 2159.5,858.5 C 2140.23,860.543 2120.9,861.543 2101.5,861.5C 2118.55,860.595 2135.71,859.262 2153,857.5C 2155.36,857.504 2157.53,857.837 2159.5,858.5 Z"/></g>
<g><path style="opacity:1" fill="#030303" d="M 1331.5,887.5 C 1357.67,889.554 1369.5,903.554 1367,929.5C 1360.21,949.321 1346.37,957.488 1325.5,954C 1306.59,946.429 1298.76,932.596 1302,912.5C 1306.86,898.126 1316.7,889.792 1331.5,887.5 Z"/></g>
<g><path style="opacity:1" fill="#050506" d="M 1536.5,930.5 C 1551.88,929.172 1566.22,932.339 1579.5,940C 1588.12,946.066 1591.62,954.233 1590,964.5C 1604.18,973.364 1608.18,985.697 1602,1001.5C 1599.03,1008.47 1594.53,1014.31 1588.5,1019C 1576.01,1028.41 1562.01,1034.25 1546.5,1036.5C 1547.42,1048.5 1545.92,1060.16 1542,1071.5C 1539.96,1076.88 1536.13,1080.04 1530.5,1081C 1516.09,1083.18 1501.75,1082.85 1487.5,1080C 1485.51,1078.68 1484.35,1076.85 1484,1074.5C 1482.81,1060.69 1483.65,1047.03 1486.5,1033.5C 1486.17,1032.5 1485.83,1031.5 1485.5,1030.5C 1476.11,1025.93 1467.11,1020.77 1458.5,1015C 1453.23,1010.72 1450.06,1005.22 1449,998.5C 1445.27,974.103 1455.11,958.27 1478.5,951C 1487.42,949.23 1496.42,948.063 1505.5,947.5C 1507.75,943.205 1511.08,940.039 1515.5,938C 1522.3,934.569 1529.3,932.069 1536.5,930.5 Z"/></g>
<g><path style="opacity:1" fill="#e0cecc" d="M 1495.5,957.5 C 1497.83,957.5 1500.17,957.5 1502.5,957.5C 1502.94,966.781 1507.28,973.614 1515.5,978C 1538.19,988.926 1560.19,987.759 1581.5,974.5C 1591.76,981.823 1593.26,990.823 1586,1001.5C 1568.72,1017.54 1548.22,1025.21 1524.5,1024.5C 1503.46,1024.91 1484.13,1019.41 1466.5,1008C 1463.96,1005.8 1461.79,1003.3 1460,1000.5C 1455.27,981.788 1461.77,968.955 1479.5,962C 1485.04,960.801 1490.38,959.301 1495.5,957.5 Z"/></g>
<g><path style="opacity:1" fill="#5297fe" d="M 1267.5,1047.5 C 1273.22,1051.03 1279.22,1054.03 1285.5,1056.5C 1336.81,1080.48 1388.47,1103.98 1440.5,1127C 1453.58,1133.08 1462.92,1142.75 1468.5,1156C 1473.37,1169.67 1477.37,1183.5 1480.5,1197.5C 1480.5,1198.17 1480.5,1198.83 1480.5,1199.5C 1481.88,1208.42 1483.88,1217.09 1486.5,1225.5C 1486.5,1226.5 1486.5,1227.5 1486.5,1228.5C 1501.27,1294.18 1516.1,1359.84 1531,1425.5C 1531.67,1435.83 1531.67,1446.17 1531,1456.5C 1528.55,1462.74 1525.55,1468.74 1522,1474.5C 1461.83,1545.33 1401.67,1616.17 1341.5,1687C 1335.5,1691 1329.5,1695 1323.5,1699C 1317.02,1702.03 1310.36,1704.2 1303.5,1705.5C 1204.83,1705.67 1106.17,1705.5 1007.5,1705C 987.031,1698.51 969.531,1687.35 955,1671.5C 897.389,1606.91 840.722,1541.58 785,1475.5C 780.668,1469.83 777.668,1463.5 776,1456.5C 775.168,1444.79 775.501,1433.13 777,1421.5C 796.619,1337.33 816.619,1253.33 837,1169.5C 842.676,1159.47 848.843,1149.8 855.5,1140.5C 858.271,1137.61 861.271,1134.94 864.5,1132.5C 870.469,1129.84 876.469,1127.17 882.5,1124.5C 938.098,1099.03 993.432,1073.03 1048.5,1046.5C 1062.18,1040.66 1075.51,1034.33 1088.5,1027.5C 1092.79,1026.35 1096.79,1024.69 1100.5,1022.5C 1110.76,1017.21 1121.43,1012.71 1132.5,1009C 1147.5,1008.33 1162.5,1008.33 1177.5,1009C 1182.02,1009.73 1186.35,1011.06 1190.5,1013C 1215.62,1025.55 1241.28,1037.05 1267.5,1047.5 Z"/></g>
<g><path style="opacity:1" fill="#fbfbfb" d="M 1492.5,1033.5 C 1506.92,1037.1 1521.59,1038.76 1536.5,1038.5C 1537.27,1048.77 1536.1,1058.77 1533,1068.5C 1532.17,1069.33 1531.33,1070.17 1530.5,1071C 1517.59,1072.98 1504.59,1073.81 1491.5,1073.5C 1491.66,1060.16 1491.99,1046.83 1492.5,1033.5 Z"/></g>
<g><path style="opacity:1" fill="#8bc5eb" d="M 1048.5,1046.5 C 993.432,1073.03 938.098,1099.03 882.5,1124.5C 882.605,1120.45 882.272,1116.45 881.5,1112.5C 883.371,1112.14 884.871,1111.14 886,1109.5C 887.061,1106.44 888.894,1103.94 891.5,1102C 898.099,1098.45 904.265,1094.29 910,1089.5C 910.561,1090.02 911.228,1090.36 912,1090.5C 919.588,1086.1 927.755,1084.43 936.5,1085.5C 937.333,1084.5 938.167,1083.5 939,1082.5C 941.333,1083.17 943.667,1083.83 946,1084.5C 946.17,1082.29 946.837,1080.29 948,1078.5C 948.667,1079.17 949.333,1079.83 950,1080.5C 952.198,1075.62 956.032,1072.79 961.5,1072C 971.638,1063.27 983.305,1056.94 996.5,1053C 998.116,1052.38 999.449,1051.38 1000.5,1050C 1002.57,1049.31 1004.57,1049.48 1006.5,1050.5C 1016.36,1044.7 1026.69,1041.03 1037.5,1039.5C 1039.81,1040.08 1041.98,1040.08 1044,1039.5C 1045.77,1040.3 1047.27,1041.47 1048.5,1043C 1047.32,1044.15 1047.32,1045.31 1048.5,1046.5 Z"/></g>
<g><path style="opacity:1" fill="#8dc8ef" d="M 1327.5,1044.5 C 1327.61,1045.12 1327.94,1045.62 1328.5,1046C 1368.15,1058.74 1406.81,1075.74 1444.5,1097C 1451.52,1101.17 1458.18,1105.84 1464.5,1111C 1476.67,1122.81 1486.83,1135.97 1495,1150.5C 1500.55,1164.91 1506.05,1179.25 1511.5,1193.5C 1501.29,1194.81 1490.96,1196.15 1480.5,1197.5C 1477.37,1183.5 1473.37,1169.67 1468.5,1156C 1462.92,1142.75 1453.58,1133.08 1440.5,1127C 1388.47,1103.98 1336.81,1080.48 1285.5,1056.5C 1299.79,1053.52 1313.79,1049.52 1327.5,1044.5 Z"/></g>
<g><path style="opacity:1" fill="#2f3f55" d="M 2068.5,1051.5 C 2062.68,1058.44 2056.85,1065.44 2051,1072.5C 2048.56,1075.45 2045.73,1077.78 2042.5,1079.5C 2050.83,1069.84 2059.49,1060.51 2068.5,1051.5 Z"/></g>
<g><path style="opacity:1" fill="#082d75" d="M 1145.5,1070.5 C 1152.17,1070.33 1158.84,1070.5 1165.5,1071C 1245.42,1107.87 1325.58,1144.37 1406,1180.5C 1408.42,1183.73 1410.09,1187.4 1411,1191.5C 1428.53,1270.15 1446.2,1348.81 1464,1427.5C 1464.83,1432.16 1465.17,1436.83 1465,1441.5C 1409.62,1506.54 1354.62,1571.87 1300,1637.5C 1297.77,1639.7 1295.27,1641.53 1292.5,1643C 1203.17,1643.67 1113.83,1643.67 1024.5,1643C 1019.62,1638.39 1013.96,1635.06 1007.5,1633C 950.799,1570.72 895.632,1507.22 842,1442.5C 841.899,1431.46 843.899,1420.79 848,1410.5C 851.439,1394.87 854.772,1379.21 858,1363.5C 872.016,1305.06 886.349,1246.72 901,1188.5C 902.685,1186.98 904.185,1185.32 905.5,1183.5C 985.83,1146.19 1065.83,1108.52 1145.5,1070.5 Z"/></g>
<g><path style="opacity:1" fill="#4e689c" d="M 1100.5,1128.5 C 1134,1127.5 1167.66,1127.17 1201.5,1127.5C 1201.81,1130.71 1201.48,1133.71 1200.5,1136.5C 1200.5,1133.83 1200.5,1131.17 1200.5,1128.5C 1167.17,1128.5 1133.83,1128.5 1100.5,1128.5 Z"/></g>
<g><path style="opacity:1" fill="#fafafc" d="M 1100.5,1128.5 C 1133.83,1128.5 1167.17,1128.5 1200.5,1128.5C 1200.5,1131.17 1200.5,1133.83 1200.5,1136.5C 1199.25,1146.81 1198.25,1157.14 1197.5,1167.5C 1195.74,1173.59 1194.74,1179.92 1194.5,1186.5C 1193.25,1193.42 1192.58,1200.42 1192.5,1207.5C 1191.32,1211.99 1190.82,1216.65 1191,1221.5C 1192.35,1218.89 1193.85,1216.56 1195.5,1214.5C 1216.73,1219.29 1236.07,1228.12 1253.5,1241C 1272.63,1259.1 1283.97,1281.26 1287.5,1307.5C 1287.96,1315.77 1289.29,1323.77 1291.5,1331.5C 1293.44,1341.71 1294.28,1352.04 1294,1362.5C 1287.23,1374.84 1281.23,1387.5 1276,1400.5C 1272.46,1411.7 1269.63,1423.03 1267.5,1434.5C 1266.83,1438.82 1266.5,1443.32 1266.5,1448C 1266.31,1454.74 1266.98,1461.24 1268.5,1467.5C 1270.05,1473.82 1271.39,1480.32 1272.5,1487C 1272.17,1487.83 1271.83,1488.67 1271.5,1489.5C 1239.09,1504.75 1212.26,1526.75 1191,1555.5C 1183.51,1566.81 1177.34,1578.81 1172.5,1591.5C 1165.99,1590.24 1159.99,1587.9 1154.5,1584.5C 1167.54,1551.08 1180.04,1517.41 1192,1483.5C 1207.85,1446.14 1222.02,1408.14 1234.5,1369.5C 1236.04,1367.16 1236.71,1364.5 1236.5,1361.5C 1180.83,1361.5 1125.17,1361.5 1069.5,1361.5C 1069.26,1362.79 1069.6,1363.79 1070.5,1364.5C 1071.68,1371.88 1073.18,1379.22 1075,1386.5C 1096.95,1452.18 1118.78,1517.85 1140.5,1583.5C 1140.39,1584.44 1140.06,1585.28 1139.5,1586C 1134.61,1587.3 1129.77,1588.8 1125,1590.5C 1124.23,1590.36 1123.56,1590.02 1123,1589.5C 1111.96,1558.91 1094.13,1533.07 1069.5,1512C 1058.64,1504.3 1047.64,1496.8 1036.5,1489.5C 1036.17,1488.5 1035.83,1487.5 1035.5,1486.5C 1041.34,1462.96 1041.84,1439.3 1037,1415.5C 1034.29,1408.29 1031.96,1400.96 1030,1393.5C 1025.54,1383.3 1021.38,1372.96 1017.5,1362.5C 1017.55,1355.15 1017.88,1347.82 1018.5,1340.5C 1019.01,1312.75 1025.18,1286.41 1037,1261.5C 1053.23,1236.4 1075.89,1221.07 1105,1215.5C 1107.01,1220.71 1108.51,1226.04 1109.5,1231.5C 1076.91,1237.92 1055.41,1256.92 1045,1288.5C 1042.12,1300.39 1039.96,1312.39 1038.5,1324.5C 1036.86,1328.21 1036.2,1332.21 1036.5,1336.5C 1035.73,1344.49 1035.57,1352.49 1036,1360.5C 1044.79,1379.03 1051.29,1398.36 1055.5,1418.5C 1057.22,1433.1 1057.89,1447.77 1057.5,1462.5C 1056.5,1468.81 1056,1475.15 1056,1481.5C 1070.75,1490.62 1084.25,1501.29 1096.5,1513.5C 1097.14,1515.33 1098.14,1515.67 1099.5,1514.5C 1099.01,1512.97 1098.34,1511.64 1097.5,1510.5C 1095.7,1504.44 1093.7,1498.44 1091.5,1492.5C 1090.16,1487.47 1088.66,1482.47 1087,1477.5C 1086.62,1476.94 1086.12,1476.61 1085.5,1476.5C 1080.23,1459.28 1074.56,1442.28 1068.5,1425.5C 1068.65,1422.28 1067.65,1419.62 1065.5,1417.5C 1061.98,1404.1 1058.15,1390.77 1054,1377.5C 1052.12,1370.62 1051.28,1363.62 1051.5,1356.5C 1054.5,1356.5 1057.5,1356.5 1060.5,1356.5C 1060.5,1352.83 1060.5,1349.17 1060.5,1345.5C 1122.5,1345.5 1184.5,1345.5 1246.5,1345.5C 1246.19,1349.04 1246.52,1352.38 1247.5,1355.5C 1249.83,1355.5 1252.17,1355.5 1254.5,1355.5C 1253.29,1367.02 1251.12,1378.35 1248,1389.5C 1230.83,1432.36 1214.5,1475.36 1199,1518.5C 1214.9,1503.38 1232.57,1490.71 1252,1480.5C 1249.17,1461.26 1248.84,1441.93 1251,1422.5C 1256.48,1400.55 1264.48,1379.55 1275,1359.5C 1275.19,1332.29 1270.52,1305.95 1261,1280.5C 1254,1265.16 1243.16,1253.33 1228.5,1245C 1216.31,1237.97 1203.31,1233.14 1189.5,1230.5C 1188.39,1244.52 1187.05,1258.52 1185.5,1272.5C 1184.03,1276.92 1183.36,1281.59 1183.5,1286.5C 1183.66,1287.87 1183.49,1289.21 1183,1290.5C 1172.83,1300 1162.67,1309.5 1152.5,1319C 1151.5,1319.67 1150.5,1319.67 1149.5,1319C 1140.7,1309.2 1131.53,1299.7 1122,1290.5C 1118.55,1269.58 1115.71,1248.58 1113.5,1227.5C 1113.56,1222.27 1112.89,1217.27 1111.5,1212.5C 1110.58,1201.48 1109.41,1190.48 1108,1179.5C 1107.72,1178.58 1107.22,1177.92 1106.5,1177.5C 1105.07,1161.09 1103.07,1144.76 1100.5,1128.5 Z"/></g>
<g><path style="opacity:1" fill="#8597ba" d="M 1180.5,1149.5 C 1180.5,1148.17 1180.5,1146.83 1180.5,1145.5C 1160.83,1145.5 1141.17,1145.5 1121.5,1145.5C 1121.5,1146.83 1121.5,1148.17 1121.5,1149.5C 1120.55,1148.08 1120.22,1146.41 1120.5,1144.5C 1140.83,1144.5 1161.17,1144.5 1181.5,1144.5C 1181.78,1146.41 1181.45,1148.08 1180.5,1149.5 Z"/></g>
<g><path style="opacity:0.998" fill="#01d3fe" d="M 855.5,1140.5 C 848.843,1149.8 842.676,1159.47 837,1169.5C 816.619,1253.33 796.619,1337.33 777,1421.5C 775.501,1433.13 775.168,1444.79 776,1456.5C 777.668,1463.5 780.668,1469.83 785,1475.5C 840.722,1541.58 897.389,1606.91 955,1671.5C 969.531,1687.35 987.031,1698.51 1007.5,1705C 1106.17,1705.5 1204.83,1705.67 1303.5,1705.5C 1300.46,1709.54 1296.79,1712.88 1292.5,1715.5C 1283.28,1722.11 1273.28,1727.11 1262.5,1730.5C 1242.87,1731.46 1223.2,1731.8 1203.5,1731.5C 1186.17,1731.5 1168.83,1731.5 1151.5,1731.5C 1150.83,1731.5 1150.17,1731.5 1149.5,1731.5C 1146.5,1731.5 1143.5,1731.5 1140.5,1731.5C 1134.17,1731.5 1127.83,1731.5 1121.5,1731.5C 1120.83,1731.5 1120.17,1731.5 1119.5,1731.5C 1112.83,1731.5 1106.17,1731.5 1099.5,1731.5C 1092.17,1731.5 1084.83,1731.5 1077.5,1731.5C 1074.17,1731.5 1070.83,1731.5 1067.5,1731.5C 1066.5,1731.5 1065.5,1731.5 1064.5,1731.5C 1063.17,1731.5 1061.83,1731.5 1060.5,1731.5C 1028.16,1731.67 995.832,1731.5 963.5,1731C 959.016,1730.13 954.683,1728.8 950.5,1727C 943.653,1722.16 936.32,1718.16 928.5,1715C 925.833,1713 923.167,1711 920.5,1709C 902.599,1689.94 884.933,1670.77 867.5,1651.5C 862.776,1645.79 858.11,1640.12 853.5,1634.5C 815.21,1589.04 776.71,1543.71 738,1498.5C 730.144,1485.6 727.311,1471.6 729.5,1456.5C 733.474,1440.6 737.141,1424.6 740.5,1408.5C 747.473,1379.94 754.473,1351.27 761.5,1322.5C 761.833,1320.5 762.167,1318.5 762.5,1316.5C 771.464,1276.86 780.631,1237.19 790,1197.5C 794.996,1185.67 801.83,1175 810.5,1165.5C 814.833,1162 819.167,1158.5 823.5,1155C 834.312,1150.43 844.978,1145.59 855.5,1140.5 Z"/></g>
<g><path style="opacity:1" fill="#092d75" d="M 1180.5,1149.5 C 1178.43,1168.49 1176.43,1187.49 1174.5,1206.5C 1173.03,1210.92 1172.36,1215.59 1172.5,1220.5C 1169.86,1241.09 1167.69,1261.76 1166,1282.5C 1161.27,1287.56 1156.1,1291.73 1150.5,1295C 1147.35,1290.69 1143.69,1286.85 1139.5,1283.5C 1137.5,1269.16 1135.5,1254.83 1133.5,1240.5C 1133.56,1235.27 1132.89,1230.27 1131.5,1225.5C 1128.33,1200.12 1124.99,1174.78 1121.5,1149.5C 1121.5,1148.17 1121.5,1146.83 1121.5,1145.5C 1141.17,1145.5 1160.83,1145.5 1180.5,1145.5C 1180.5,1146.83 1180.5,1148.17 1180.5,1149.5 Z"/></g>
<g><path style="opacity:0.98" fill="#0c0d13" d="M 1738.5,1169.5 C 1743.54,1175.92 1746.7,1183.25 1748,1191.5C 1750.53,1202.36 1751.69,1213.36 1751.5,1224.5C 1751.5,1226.83 1751.5,1229.17 1751.5,1231.5C 1751.89,1247.94 1749.39,1263.94 1744,1279.5C 1741.9,1282.7 1740.07,1286.03 1738.5,1289.5C 1737.83,1289.5 1737.5,1289.83 1737.5,1290.5C 1734.64,1293.2 1731.64,1295.7 1728.5,1298C 1725.04,1298.56 1722.87,1297.06 1722,1293.5C 1721.54,1280.08 1719.37,1267.08 1715.5,1254.5C 1713.44,1246.97 1710.44,1239.97 1706.5,1233.5C 1706.77,1231.62 1706.1,1230.29 1704.5,1229.5C 1689.35,1220.95 1673.02,1217.28 1655.5,1218.5C 1617.49,1221.5 1579.49,1224.5 1541.5,1227.5C 1523.17,1228.12 1504.84,1228.45 1486.5,1228.5C 1486.5,1227.5 1486.5,1226.5 1486.5,1225.5C 1536.85,1221 1587.18,1216.17 1637.5,1211C 1652.18,1210.38 1666.85,1210.71 1681.5,1212C 1693.95,1214.98 1705.12,1220.48 1715,1228.5C 1717.71,1234.26 1720.05,1240.26 1722,1246.5C 1723.58,1256.59 1725.25,1266.59 1727,1276.5C 1728,1275.5 1729,1274.5 1730,1273.5C 1732.74,1267.01 1735.74,1260.68 1739,1254.5C 1740.62,1231.31 1739.28,1208.31 1735,1185.5C 1734.46,1183.37 1733.62,1181.37 1732.5,1179.5C 1729.63,1181.53 1726.63,1183.37 1723.5,1185C 1692.44,1186.62 1661.44,1188.95 1630.5,1192C 1618.17,1192.5 1605.84,1192.67 1593.5,1192.5C 1588.27,1192.44 1583.27,1193.11 1578.5,1194.5C 1557.51,1196.13 1536.51,1197.63 1515.5,1199C 1503.84,1199.5 1492.17,1199.67 1480.5,1199.5C 1480.5,1198.83 1480.5,1198.17 1480.5,1197.5C 1490.96,1196.15 1501.29,1194.81 1511.5,1193.5C 1537.27,1191.81 1562.94,1188.98 1588.5,1185C 1631.01,1184.65 1673.34,1181.81 1715.5,1176.5C 1718.53,1176.67 1721.53,1177 1724.5,1177.5C 1724.23,1175.9 1724.57,1174.57 1725.5,1173.5C 1725.9,1174.53 1726.56,1174.69 1727.5,1174C 1730.48,1170.2 1734.15,1168.7 1738.5,1169.5 Z"/></g>
<g><path style="opacity:1" fill="#34455e" d="M 1952.5,1170.5 C 1948.56,1176.11 1943.89,1181.11 1938.5,1185.5C 1942.44,1179.89 1947.11,1174.89 1952.5,1170.5 Z"/></g>
<g><path style="opacity:1" fill="#9facc9" d="M 1106.5,1177.5 C 1107.22,1177.92 1107.72,1178.58 1108,1179.5C 1109.41,1190.48 1110.58,1201.48 1111.5,1212.5C 1109.44,1201.02 1107.77,1189.36 1106.5,1177.5 Z"/></g>
<g><path style="opacity:1" fill="#5e1dfa" d="M 1486.5,1225.5 C 1483.88,1217.09 1481.88,1208.42 1480.5,1199.5C 1492.17,1199.67 1503.84,1199.5 1515.5,1199C 1536.51,1197.63 1557.51,1196.13 1578.5,1194.5C 1583.73,1194.56 1588.73,1193.89 1593.5,1192.5C 1605.84,1192.67 1618.17,1192.5 1630.5,1192C 1661.44,1188.95 1692.44,1186.62 1723.5,1185C 1726.63,1183.37 1729.63,1181.53 1732.5,1179.5C 1733.62,1181.37 1734.46,1183.37 1735,1185.5C 1739.28,1208.31 1740.62,1231.31 1739,1254.5C 1735.74,1260.68 1732.74,1267.01 1730,1273.5C 1729,1274.5 1728,1275.5 1727,1276.5C 1725.25,1266.59 1723.58,1256.59 1722,1246.5C 1720.05,1240.26 1717.71,1234.26 1715,1228.5C 1705.12,1220.48 1693.95,1214.98 1681.5,1212C 1666.85,1210.71 1652.18,1210.38 1637.5,1211C 1587.18,1216.17 1536.85,1221 1486.5,1225.5 Z"/></g>
<g><path style="opacity:1" fill="#586c9f" d="M 1197.5,1167.5 C 1197.51,1174.12 1196.51,1180.46 1194.5,1186.5C 1194.74,1179.92 1195.74,1173.59 1197.5,1167.5 Z"/></g>
<g><path style="opacity:1" fill="#4117aa" d="M 1593.5,1192.5 C 1588.73,1193.89 1583.73,1194.56 1578.5,1194.5C 1583.27,1193.11 1588.27,1192.44 1593.5,1192.5 Z"/></g>
<g><path style="opacity:1" fill="#94a2c2" d="M 1192.5,1207.5 C 1192.5,1209.5 1192.5,1211.5 1192.5,1213.5C 1193.79,1213.26 1194.79,1213.6 1195.5,1214.5C 1193.85,1216.56 1192.35,1218.89 1191,1221.5C 1190.82,1216.65 1191.32,1211.99 1192.5,1207.5 Z"/></g>
<g><path style="opacity:1" fill="#7a8cb4" d="M 1111.5,1212.5 C 1112.89,1217.27 1113.56,1222.27 1113.5,1227.5C 1112.11,1222.73 1111.44,1217.73 1111.5,1212.5 Z"/></g>
<g><path style="opacity:1" fill="#7e90b6" d="M 1174.5,1206.5 C 1174.64,1211.41 1173.97,1216.08 1172.5,1220.5C 1172.36,1215.59 1173.03,1210.92 1174.5,1206.5 Z"/></g>
<g><path style="opacity:1" fill="#96d5fe" d="M 1704.5,1229.5 C 1704.66,1231.15 1705.33,1232.49 1706.5,1233.5C 1710.44,1239.97 1713.44,1246.97 1715.5,1254.5C 1712.91,1344.84 1692.41,1430.84 1654,1512.5C 1626.99,1568.67 1590.15,1617.5 1543.5,1659C 1484.99,1707.06 1417.65,1733.89 1341.5,1739.5C 1356.1,1723.88 1368.44,1706.55 1378.5,1687.5C 1391.51,1673.42 1402.51,1658.08 1411.5,1641.5C 1412.5,1641.5 1413.5,1641.5 1414.5,1641.5C 1414.35,1640.45 1414.52,1639.45 1415,1638.5C 1425,1628.16 1435.34,1618.16 1446,1608.5C 1464.75,1585.42 1483.59,1562.59 1502.5,1540C 1503.45,1539.52 1504.45,1539.35 1505.5,1539.5C 1505.28,1538.32 1505.61,1537.32 1506.5,1536.5C 1510.19,1533.15 1514.19,1530.15 1518.5,1527.5C 1531.12,1514.86 1542.29,1501.19 1552,1486.5C 1556.43,1476.09 1559.93,1465.42 1562.5,1454.5C 1562.78,1433.92 1560.12,1413.42 1554.5,1393C 1554.83,1392.67 1555.17,1392.33 1555.5,1392C 1552.47,1381.58 1548.64,1371.41 1544,1361.5C 1542.09,1353.97 1540.43,1346.3 1539,1338.5C 1537.15,1331.31 1534.32,1324.47 1530.5,1318C 1531.02,1317.44 1531.36,1316.77 1531.5,1316C 1530.68,1313.41 1529.68,1310.75 1528.5,1308C 1528.83,1307.67 1529.17,1307.33 1529.5,1307C 1527.36,1301.57 1526.02,1295.9 1525.5,1290C 1526.66,1284.94 1526.66,1279.61 1525.5,1274C 1526.81,1270.93 1527.81,1267.77 1528.5,1264.5C 1527.45,1252.34 1525.45,1240.34 1522.5,1228.5C 1529.02,1228.82 1535.36,1228.49 1541.5,1227.5C 1579.49,1224.5 1617.49,1221.5 1655.5,1218.5C 1673.02,1217.28 1689.35,1220.95 1704.5,1229.5 Z"/></g>
<g><path style="opacity:0.004" fill="#000000" d="M 1915.5,1220.5 C 1916.83,1221.17 1916.83,1221.17 1915.5,1220.5 Z"/></g>
<g><path style="opacity:1" fill="#072b70" d="M 1759.5,1221.5 C 1766.73,1221.22 1773.73,1222.39 1780.5,1225C 1790.9,1236.73 1802.57,1247.07 1815.5,1256C 1837.28,1276.1 1856.45,1298.27 1873,1322.5C 1873.67,1324.17 1873.67,1325.83 1873,1327.5C 1870.26,1328.61 1867.43,1328.78 1864.5,1328C 1856.5,1325.75 1848.84,1322.75 1841.5,1319C 1813.15,1298.33 1787.65,1274.49 1765,1247.5C 1759.26,1239.65 1757.43,1230.99 1759.5,1221.5 Z"/></g>
<g><path style="opacity:1" fill="#5540be" d="M 1704.5,1229.5 C 1706.1,1230.29 1706.77,1231.62 1706.5,1233.5C 1705.33,1232.49 1704.66,1231.15 1704.5,1229.5 Z"/></g>
<g><path style="opacity:1" fill="#798bb3" d="M 1131.5,1225.5 C 1132.89,1230.27 1133.56,1235.27 1133.5,1240.5C 1132.11,1235.73 1131.44,1230.73 1131.5,1225.5 Z"/></g>
<g><path style="opacity:1" fill="#3c4f6b" d="M 1888.5,1240.5 C 1886.79,1244.57 1884.13,1247.91 1880.5,1250.5C 1882.69,1246.79 1885.36,1243.46 1888.5,1240.5 Z"/></g>
<g><path style="opacity:0.004" fill="#000000" d="M 1887.5,1251.5 C 1888.83,1252.17 1888.83,1252.17 1887.5,1251.5 Z"/></g>
<g><path style="opacity:1" fill="#4a79d5" d="M 1786.5,1279.5 C 1794.43,1286.92 1802.59,1294.25 1811,1301.5C 1811.63,1303.64 1811.3,1305.64 1810,1307.5C 1804.49,1294.9 1794.82,1288.24 1781,1287.5C 1780.33,1286.83 1780.33,1286.17 1781,1285.5C 1783.33,1283.8 1785.17,1281.8 1786.5,1279.5 Z"/></g>
<g><path style="opacity:1" fill="#657aa8" d="M 1185.5,1272.5 C 1185.64,1277.41 1184.97,1282.08 1183.5,1286.5C 1183.36,1281.59 1184.03,1276.92 1185.5,1272.5 Z"/></g>
<g><path style="opacity:1" fill="#e0d2b8" d="M 1749.5,1295.5 C 1759.51,1295.33 1769.51,1295.5 1779.5,1296C 1790.73,1295.59 1798.06,1300.59 1801.5,1311C 1799.21,1321.3 1793.21,1328.63 1783.5,1333C 1765.75,1339.59 1747.58,1343.42 1729,1344.5C 1725.21,1346.32 1721.54,1348.32 1718,1350.5C 1719.71,1334.84 1721.71,1319.18 1724,1303.5C 1732.38,1300.04 1740.88,1297.37 1749.5,1295.5 Z"/></g>
<g><path style="opacity:1" fill="#adb8d1" d="M 1287.5,1307.5 C 1289.71,1315.23 1291.04,1323.23 1291.5,1331.5C 1289.29,1323.77 1287.96,1315.77 1287.5,1307.5 Z"/></g>
<g><path style="opacity:0.881" fill="#020104" d="M 762.5,1316.5 C 762.167,1318.5 761.833,1320.5 761.5,1322.5C 750.119,1334.94 739.452,1347.94 729.5,1361.5C 726.45,1363.55 724.117,1366.22 722.5,1369.5C 707.427,1386.08 691.761,1402.24 675.5,1418C 667.026,1425.07 658.026,1431.4 648.5,1437C 612.752,1453.91 576.752,1470.25 540.5,1486C 497.612,1500.07 454.612,1513.74 411.5,1527C 372.83,1540.34 344.997,1565.51 328,1602.5C 326.392,1605.35 325.726,1608.35 326,1611.5C 326.671,1610.75 327.504,1610.41 328.5,1610.5C 326.429,1611.89 324.762,1613.72 323.5,1616C 320.433,1617.16 318.767,1616.16 318.5,1613C 331.073,1570.09 358.073,1540.09 399.5,1523C 449.032,1507.27 498.365,1490.93 547.5,1474C 581.287,1458.61 614.954,1442.94 648.5,1427C 655.5,1422 662.5,1417 669.5,1412C 688,1394.83 705.833,1377 723,1358.5C 726.192,1345.61 732.358,1334.44 741.5,1325C 747.619,1319.94 754.619,1317.11 762.5,1316.5 Z"/></g>
<g><path style="opacity:1" fill="#7e8fb6" d="M 1038.5,1324.5 C 1038.8,1328.79 1038.14,1332.79 1036.5,1336.5C 1036.2,1332.21 1036.86,1328.21 1038.5,1324.5 Z"/></g>
<g><path style="opacity:1" fill="#581feb" d="M 761.5,1322.5 C 754.473,1351.27 747.473,1379.94 740.5,1408.5C 740.721,1404.2 739.388,1403.54 736.5,1406.5C 733.118,1404.28 730.618,1401.28 729,1397.5C 728.766,1393.69 727.932,1390.02 726.5,1386.5C 727.115,1383.96 727.782,1381.46 728.5,1379C 727.804,1375.31 727.47,1371.64 727.5,1368C 730.302,1366.27 730.969,1364.1 729.5,1361.5C 739.452,1347.94 750.119,1334.94 761.5,1322.5 Z"/></g>
<g><path style="opacity:1" fill="#8395b9" d="M 1247.5,1355.5 C 1246.52,1352.38 1246.19,1349.04 1246.5,1345.5C 1184.5,1345.5 1122.5,1345.5 1060.5,1345.5C 1060.5,1349.17 1060.5,1352.83 1060.5,1356.5C 1057.5,1356.5 1054.5,1356.5 1051.5,1356.5C 1053.95,1355.53 1056.61,1355.19 1059.5,1355.5C 1059.5,1351.83 1059.5,1348.17 1059.5,1344.5C 1122.17,1344.5 1184.83,1344.5 1247.5,1344.5C 1247.5,1348.17 1247.5,1351.83 1247.5,1355.5 Z"/></g>
<g><path style="opacity:1" fill="#7587b1" d="M 1018.5,1340.5 C 1017.88,1347.82 1017.55,1355.15 1017.5,1362.5C 1016.84,1359.69 1016.5,1356.69 1016.5,1353.5C 1016.32,1348.89 1016.98,1344.56 1018.5,1340.5 Z"/></g>
<g><path style="opacity:1" fill="#5c1df5" d="M 729.5,1361.5 C 730.969,1364.1 730.302,1366.27 727.5,1368C 727.47,1371.64 727.804,1375.31 728.5,1379C 727.782,1381.46 727.115,1383.96 726.5,1386.5C 727.932,1390.02 728.766,1393.69 729,1397.5C 730.618,1401.28 733.118,1404.28 736.5,1406.5C 739.388,1403.54 740.721,1404.2 740.5,1408.5C 737.141,1424.6 733.474,1440.6 729.5,1456.5C 727.742,1456.12 726.075,1455.46 724.5,1454.5C 723.069,1454.98 721.736,1455.64 720.5,1456.5C 720.709,1457.09 721.043,1457.59 721.5,1458C 718.867,1458.42 716.701,1459.59 715,1461.5C 713.205,1467.81 711.705,1473.98 710.5,1480C 711.357,1480.69 712.023,1481.52 712.5,1482.5C 712.5,1486.17 712.5,1489.83 712.5,1493.5C 713.242,1494.29 714.075,1494.95 715,1495.5C 715.789,1499.46 717.289,1503.12 719.5,1506.5C 721.904,1507.01 722.571,1508.17 721.5,1510C 722.833,1511 724.167,1512 725.5,1513C 725.167,1513.33 724.833,1513.67 724.5,1514C 730.531,1521.96 735.198,1530.29 738.5,1539C 740.513,1541.38 742.346,1543.88 744,1546.5C 747.662,1553.47 751.329,1560.47 755,1567.5C 764.326,1578.16 773.659,1588.83 783,1599.5C 790.86,1611.71 800.027,1622.87 810.5,1633C 808.527,1633.5 806.527,1633.66 804.5,1633.5C 794.033,1622.21 784.533,1610.21 776,1597.5C 768.972,1589.81 761.972,1582.14 755,1574.5C 738.621,1547.3 722.621,1520.3 707,1493.5C 706.803,1490.31 705.97,1487.31 704.5,1484.5C 704.563,1479.52 704.563,1474.52 704.5,1469.5C 706.956,1455.8 710.623,1442.47 715.5,1429.5C 714.067,1427.19 714.734,1425.69 717.5,1425C 716.14,1423.06 716.473,1421.4 718.5,1420C 717.978,1419.44 717.645,1418.77 717.5,1418C 719.314,1411.34 719.981,1404.67 719.5,1398C 720.357,1397.31 721.023,1396.48 721.5,1395.5C 720.508,1387.65 721.175,1379.65 723.5,1371.5C 723.457,1370.58 723.124,1369.92 722.5,1369.5C 724.117,1366.22 726.45,1363.55 729.5,1361.5 Z"/></g>
<g><path style="opacity:1" fill="#6077a6" d="M 1234.5,1369.5 C 1234.67,1367.14 1235.01,1364.81 1235.5,1362.5C 1180.16,1361.84 1125.16,1362.5 1070.5,1364.5C 1069.6,1363.79 1069.26,1362.79 1069.5,1361.5C 1125.17,1361.5 1180.83,1361.5 1236.5,1361.5C 1236.71,1364.5 1236.04,1367.16 1234.5,1369.5 Z"/></g>
<g><path style="opacity:1" fill="#5f1dfd" d="M 722.5,1369.5 C 723.124,1369.92 723.457,1370.58 723.5,1371.5C 721.175,1379.65 720.508,1387.65 721.5,1395.5C 721.023,1396.48 720.357,1397.31 719.5,1398C 719.981,1404.67 719.314,1411.34 717.5,1418C 717.645,1418.77 717.978,1419.44 718.5,1420C 716.473,1421.4 716.14,1423.06 717.5,1425C 714.734,1425.69 714.067,1427.19 715.5,1429.5C 710.623,1442.47 706.956,1455.8 704.5,1469.5C 704.563,1474.52 704.563,1479.52 704.5,1484.5C 705.97,1487.31 706.803,1490.31 707,1493.5C 722.621,1520.3 738.621,1547.3 755,1574.5C 761.972,1582.14 768.972,1589.81 776,1597.5C 784.533,1610.21 794.033,1622.21 804.5,1633.5C 795.983,1633.17 787.65,1633.51 779.5,1634.5C 756.665,1636.54 733.831,1638.54 711,1640.5C 689.31,1640.24 667.81,1638.07 646.5,1634C 610.096,1622.15 573.762,1610.15 537.5,1598C 511.746,1590.39 485.746,1583.73 459.5,1578C 424.35,1574.8 390.683,1580.3 358.5,1594.5C 354.042,1596.23 349.709,1598.23 345.5,1600.5C 339.967,1602.76 334.967,1605.76 330.5,1609.5C 330.158,1610.34 329.492,1610.67 328.5,1610.5C 327.504,1610.41 326.671,1610.75 326,1611.5C 325.726,1608.35 326.392,1605.35 328,1602.5C 344.997,1565.51 372.83,1540.34 411.5,1527C 454.612,1513.74 497.612,1500.07 540.5,1486C 576.752,1470.25 612.752,1453.91 648.5,1437C 658.026,1431.4 667.026,1425.07 675.5,1418C 691.761,1402.24 707.427,1386.08 722.5,1369.5 Z"/></g>
<g><path style="opacity:1" fill="#7d8eb5" d="M 1065.5,1417.5 C 1067.65,1419.62 1068.65,1422.28 1068.5,1425.5C 1067.13,1423.06 1066.13,1420.4 1065.5,1417.5 Z"/></g>
<g><path style="opacity:1" fill="#b9c3d7" d="M 1055.5,1418.5 C 1056.63,1421.63 1057.47,1424.96 1058,1428.5C 1058.83,1440.01 1058.66,1451.34 1057.5,1462.5C 1057.89,1447.77 1057.22,1433.1 1055.5,1418.5 Z"/></g>
<g><path style="opacity:1" fill="#aab6cf" d="M 1267.5,1434.5 C 1267.38,1445.52 1267.71,1456.52 1268.5,1467.5C 1266.98,1461.24 1266.31,1454.74 1266.5,1448C 1266.5,1443.32 1266.83,1438.82 1267.5,1434.5 Z"/></g>
<g><path style="opacity:1" fill="#5a6c9f" d="M 1085.5,1476.5 C 1086.12,1476.61 1086.62,1476.94 1087,1477.5C 1088.66,1482.47 1090.16,1487.47 1091.5,1492.5C 1090.21,1491.94 1089.38,1490.94 1089,1489.5C 1088.13,1485.07 1086.97,1480.74 1085.5,1476.5 Z"/></g>
<g><path style="opacity:1" fill="#7d8fb6" d="M 1097.5,1510.5 C 1098.34,1511.64 1099.01,1512.97 1099.5,1514.5C 1098.14,1515.67 1097.14,1515.33 1096.5,1513.5C 1097.4,1512.79 1097.74,1511.79 1097.5,1510.5 Z"/></g>
<g><path style="opacity:1" fill="#571de9" d="M 729.5,1456.5 C 727.311,1471.6 730.144,1485.6 738,1498.5C 776.71,1543.71 815.21,1589.04 853.5,1634.5C 828.833,1634.5 804.167,1634.5 779.5,1634.5C 787.65,1633.51 795.983,1633.17 804.5,1633.5C 806.527,1633.66 808.527,1633.5 810.5,1633C 800.027,1622.87 790.86,1611.71 783,1599.5C 773.659,1588.83 764.326,1578.16 755,1567.5C 751.329,1560.47 747.662,1553.47 744,1546.5C 742.346,1543.88 740.513,1541.38 738.5,1539C 735.198,1530.29 730.531,1521.96 724.5,1514C 724.833,1513.67 725.167,1513.33 725.5,1513C 724.167,1512 722.833,1511 721.5,1510C 722.571,1508.17 721.904,1507.01 719.5,1506.5C 717.289,1503.12 715.789,1499.46 715,1495.5C 714.075,1494.95 713.242,1494.29 712.5,1493.5C 712.5,1489.83 712.5,1486.17 712.5,1482.5C 712.023,1481.52 711.357,1480.69 710.5,1480C 711.705,1473.98 713.205,1467.81 715,1461.5C 716.701,1459.59 718.867,1458.42 721.5,1458C 721.043,1457.59 720.709,1457.09 720.5,1456.5C 721.736,1455.64 723.069,1454.98 724.5,1454.5C 726.075,1455.46 727.742,1456.12 729.5,1456.5 Z"/></g>
<g><path style="opacity:0.881" fill="#030206" d="M 779.5,1634.5 C 804.167,1634.5 828.833,1634.5 853.5,1634.5C 858.11,1640.12 862.776,1645.79 867.5,1651.5C 866.264,1653.61 864.764,1655.61 863,1657.5C 862.667,1656.83 862.333,1656.17 862,1655.5C 857.59,1660.46 852.09,1663.46 845.5,1664.5C 832.118,1660.98 820.785,1654.15 811.5,1644C 809.285,1642.96 806.952,1642.29 804.5,1642C 796.833,1641.33 789.167,1641.33 781.5,1642C 758.833,1644.21 736.166,1646.38 713.5,1648.5C 687.172,1647.96 661.172,1644.79 635.5,1639C 578.865,1619.12 521.532,1601.46 463.5,1586C 428.225,1580.44 393.891,1583.94 360.5,1596.5C 359.833,1595.83 359.167,1595.17 358.5,1594.5C 390.683,1580.3 424.35,1574.8 459.5,1578C 485.746,1583.73 511.746,1590.39 537.5,1598C 573.762,1610.15 610.096,1622.15 646.5,1634C 667.81,1638.07 689.31,1640.24 711,1640.5C 733.831,1638.54 756.665,1636.54 779.5,1634.5 Z"/></g>
<g><path style="opacity:1" fill="#8fcbf3" d="M 1541.5,1227.5 C 1535.36,1228.49 1529.02,1228.82 1522.5,1228.5C 1525.45,1240.34 1527.45,1252.34 1528.5,1264.5C 1527.81,1267.77 1526.81,1270.93 1525.5,1274C 1526.66,1279.61 1526.66,1284.94 1525.5,1290C 1526.02,1295.9 1527.36,1301.57 1529.5,1307C 1529.17,1307.33 1528.83,1307.67 1528.5,1308C 1529.68,1310.75 1530.68,1313.41 1531.5,1316C 1531.36,1316.77 1531.02,1317.44 1530.5,1318C 1534.32,1324.47 1537.15,1331.31 1539,1338.5C 1540.43,1346.3 1542.09,1353.97 1544,1361.5C 1548.64,1371.41 1552.47,1381.58 1555.5,1392C 1555.17,1392.33 1554.83,1392.67 1554.5,1393C 1560.12,1413.42 1562.78,1433.92 1562.5,1454.5C 1559.93,1465.42 1556.43,1476.09 1552,1486.5C 1542.29,1501.19 1531.12,1514.86 1518.5,1527.5C 1514.19,1530.15 1510.19,1533.15 1506.5,1536.5C 1505.61,1537.32 1505.28,1538.32 1505.5,1539.5C 1504.45,1539.35 1503.45,1539.52 1502.5,1540C 1483.59,1562.59 1464.75,1585.42 1446,1608.5C 1435.34,1618.16 1425,1628.16 1415,1638.5C 1414.52,1639.45 1414.35,1640.45 1414.5,1641.5C 1413.5,1641.5 1412.5,1641.5 1411.5,1641.5C 1402.51,1658.08 1391.51,1673.42 1378.5,1687.5C 1368.44,1706.55 1356.1,1723.88 1341.5,1739.5C 1306.62,1743.73 1271.62,1745.06 1236.5,1743.5C 1234.95,1742.11 1235.28,1741.44 1237.5,1741.5C 1240.01,1741.97 1242.51,1742.31 1245,1742.5C 1251.49,1741.33 1257.99,1740.17 1264.5,1739C 1268.96,1737.38 1273.63,1735.38 1278.5,1733C 1280.13,1732.51 1281.8,1732.34 1283.5,1732.5C 1283.35,1731.45 1283.52,1730.45 1284,1729.5C 1285.3,1729.97 1286.8,1729.97 1288.5,1729.5C 1290.28,1725.03 1291.61,1720.36 1292.5,1715.5C 1296.79,1712.88 1300.46,1709.54 1303.5,1705.5C 1310.36,1704.2 1317.02,1702.03 1323.5,1699C 1329.5,1695 1335.5,1691 1341.5,1687C 1401.67,1616.17 1461.83,1545.33 1522,1474.5C 1525.55,1468.74 1528.55,1462.74 1531,1456.5C 1531.67,1446.17 1531.67,1435.83 1531,1425.5C 1516.1,1359.84 1501.27,1294.18 1486.5,1228.5C 1504.84,1228.45 1523.17,1228.12 1541.5,1227.5 Z"/></g>
<g><path style="opacity:0.996" fill="#1f0e50" d="M 358.5,1594.5 C 359.167,1595.17 359.833,1595.83 360.5,1596.5C 356.25,1598.36 351.917,1600.03 347.5,1601.5C 346.508,1601.67 345.842,1601.34 345.5,1600.5C 349.709,1598.23 354.042,1596.23 358.5,1594.5 Z"/></g>
<g><path style="opacity:0.482" fill="#321083" d="M 345.5,1600.5 C 345.842,1601.34 346.508,1601.67 347.5,1601.5C 342.047,1604.54 336.381,1607.21 330.5,1609.5C 334.967,1605.76 339.967,1602.76 345.5,1600.5 Z"/></g>
<g><path style="opacity:0.357" fill="#91cef5" d="M 1575.5,1644.5 C 1572.83,1649.17 1569.17,1652.83 1564.5,1655.5C 1567.83,1651.5 1571.5,1647.83 1575.5,1644.5 Z"/></g>
<g><path style="opacity:1" fill="#dfd0b7" d="M 1489.5,1708.5 C 1491.83,1709.65 1492.99,1711.65 1493,1714.5C 1493.67,1724.83 1493.67,1735.17 1493,1745.5C 1489.56,1757.63 1482.4,1760.46 1471.5,1754C 1468.33,1750.83 1465.17,1747.67 1462,1744.5C 1459.15,1738.15 1455.31,1732.48 1450.5,1727.5C 1457.69,1724.08 1465.02,1720.91 1472.5,1718C 1478.55,1715.31 1484.22,1712.15 1489.5,1708.5 Z"/></g>
<g><path style="opacity:1" fill="#86bfe3" d="M 1292.5,1715.5 C 1291.61,1720.36 1290.28,1725.03 1288.5,1729.5C 1286.8,1729.97 1285.3,1729.97 1284,1729.5C 1283.52,1730.45 1283.35,1731.45 1283.5,1732.5C 1281.8,1732.34 1280.13,1732.51 1278.5,1733C 1273.63,1735.38 1268.96,1737.38 1264.5,1739C 1257.99,1740.17 1251.49,1741.33 1245,1742.5C 1242.51,1742.31 1240.01,1741.97 1237.5,1741.5C 1235.28,1741.44 1234.95,1742.11 1236.5,1743.5C 1205.99,1742.08 1175.66,1738.92 1145.5,1734C 1143.26,1733.95 1141.59,1733.12 1140.5,1731.5C 1143.5,1731.5 1146.5,1731.5 1149.5,1731.5C 1150.17,1732.83 1150.83,1732.83 1151.5,1731.5C 1168.83,1731.5 1186.17,1731.5 1203.5,1731.5C 1222.33,1732.66 1241.33,1732.83 1260.5,1732C 1261.42,1731.72 1262.08,1731.22 1262.5,1730.5C 1273.28,1727.11 1283.28,1722.11 1292.5,1715.5 Z"/></g>
<g><path style="opacity:0.994" fill="#e0d1b7" d="M 1067.5,1731.5 C 1070.83,1731.5 1074.17,1731.5 1077.5,1731.5C 1082.64,1732.49 1087.97,1732.82 1093.5,1732.5C 1093.39,1733.12 1093.06,1733.62 1092.5,1734C 1096.21,1735.99 1100.21,1736.82 1104.5,1736.5C 1102.65,1751.52 1098.49,1765.86 1092,1779.5C 1086.08,1787.48 1078.24,1790.31 1068.5,1788C 1063.51,1782.86 1061.18,1776.69 1061.5,1769.5C 1062.8,1757.11 1064.47,1744.78 1066.5,1732.5C 1067.17,1732.5 1067.5,1732.17 1067.5,1731.5 Z"/></g>
<g><path style="opacity:0.188" fill="#364d5c" d="M 1262.5,1730.5 C 1262.08,1731.22 1261.42,1731.72 1260.5,1732C 1241.33,1732.83 1222.33,1732.66 1203.5,1731.5C 1223.2,1731.8 1242.87,1731.46 1262.5,1730.5 Z"/></g>
</svg>
