<svg width="256" height="256" viewBox="0 0 256 256" fill="none" xmlns="http://www.w3.org/2000/svg">
<g clip-path="url(#clip0_971_35246)">
<path d="M53.841 161.32C53.841 176.152 41.854 188.14 27.022 188.14C12.19 188.14 0.203003 176.152 0.203003 161.32C0.203003 146.489 12.19 134.502 27.023 134.502H53.84V161.321L53.841 161.32ZM67.251 161.32C67.251 146.489 79.238 134.502 94.07 134.502C108.902 134.502 120.889 146.489 120.889 161.321V228.368C120.889 243.2 108.902 255.188 94.069 255.188C79.239 255.188 67.251 243.2 67.251 228.368V161.32Z" fill="#E01E5A"/>
<path d="M94.07 53.638C79.238 53.638 67.25 41.651 67.25 26.819C67.25 11.987 79.239 0 94.07 0C108.901 0 120.889 11.987 120.889 26.819V53.639H94.069L94.07 53.638ZM94.07 67.251C108.902 67.251 120.889 79.238 120.889 94.07C120.889 108.902 108.902 120.889 94.069 120.889H26.82C11.987 120.889 0 108.902 0 94.069C0 79.239 11.987 67.251 26.819 67.251H94.07Z" fill="#36C5F0"/>
<path d="M201.55 94.07C201.55 79.238 213.537 67.25 228.368 67.25C243.2 67.25 255.188 79.238 255.188 94.07C255.188 108.902 243.2 120.889 228.368 120.889H201.55V94.07ZM188.14 94.07C188.14 108.902 176.152 120.889 161.32 120.889C146.489 120.889 134.502 108.902 134.502 94.069V26.82C134.502 11.987 146.489 0 161.32 0C176.151 0 188.139 11.987 188.139 26.819V94.069L188.14 94.07Z" fill="#2EB67D"/>
<path d="M161.32 201.55C176.152 201.55 188.14 213.537 188.14 228.368C188.14 243.2 176.152 255.188 161.32 255.188C146.489 255.188 134.502 243.2 134.502 228.368V201.55H161.32ZM161.32 188.14C146.489 188.14 134.502 176.152 134.502 161.32C134.502 146.489 146.489 134.502 161.321 134.502H228.571C243.403 134.502 255.391 146.489 255.391 161.321C255.391 176.152 243.403 188.14 228.571 188.14H161.32Z" fill="#ECB22E"/>
</g>
<defs>
<clipPath id="clip0_971_35246">
<rect width="256" height="256" fill="white"/>
</clipPath>
</defs>
</svg>
