<svg width="256" height="180" viewBox="0 0 256 180" fill="none" xmlns="http://www.w3.org/2000/svg">
<g clip-path="url(#clip0_971_35247)">
<path d="M250.346 28.075C248.878 22.6486 246.014 17.7014 242.039 13.7263C238.064 9.75112 233.117 6.88661 227.69 5.418C207.824 0 127.87 0 127.87 0C127.87 0 47.9122 0.164 28.0462 5.582C22.6197 7.0507 17.6726 9.91536 13.6976 13.8907C9.72263 17.8661 6.85841 22.8134 5.39019 28.24C-0.618808 63.538 -2.94981 117.324 5.55519 151.21C7.02356 156.636 9.88785 161.584 13.8628 165.559C17.8378 169.534 22.7848 172.398 28.2112 173.867C48.0772 179.285 128.033 179.285 128.033 179.285C128.033 179.285 207.988 179.285 227.853 173.867C233.28 172.399 238.227 169.534 242.202 165.559C246.177 161.584 249.042 156.637 250.51 151.21C256.848 115.862 258.801 62.109 250.346 28.075Z" fill="#FF0000"/>
<path d="M102.421 128.06L168.749 89.6421L102.421 51.2241V128.06Z" fill="white"/>
</g>
<defs>
<clipPath id="clip0_971_35247">
<rect width="256" height="180" fill="white"/>
</clipPath>
</defs>
</svg>
